<?xml version="1.0" standalone="no"?>
<!DOCTYPE svg PUBLIC "-//W3C//DTD SVG 1.1//EN" "http://www.w3.org/Graphics/SVG/1.1/DTD/svg11.dtd" >
<svg>
<metadata>
Created by FontForge 20090622 at Sat Jul 15 07:33:30 2017
 By deploy user
Copyright (c) 2017 by Creative Smart. All rights reserved.
</metadata>
<defs>
<font id="Violeta" horiz-adv-x="454" >
  <font-face 
    font-family="Violeta"
    font-weight="400"
    font-stretch="normal"
    units-per-em="1000"
    panose-1="0 0 0 0 0 0 0 0 0 0"
    ascent="800"
    descent="-200"
    x-height="404"
    cap-height="699"
    bbox="-1822.4 -464.943 2347.4 1023.5"
    underline-thickness="50"
    underline-position="-50"
    unicode-range="U+000D-U+E225"
  />
<missing-glyph horiz-adv-x="310" 
 />
    <glyph glyph-name="r_r" unicode="rr" horiz-adv-x="664" 
d="M425 489l66 -1l-57 -77q44 -1 126 -1q-90 -122 -124 -180q-59 -96 -47 -137q12 -40 69 -1q73 48 170 164q8 9 24 29q9 10 13 15l7 -5l-22.5 -27l-25 -29.5l-23.5 -27.5t-26 -29l-24.5 -25.5t-27 -26.5l-26 -22t-27.5 -21.5t-27 -16.5q-46 -26 -80 -13.5t-35.5 56.5
t40.5 117q35 57 120 172l-59 1l-90 -108h1l-22.5 -27l-25 -29.5l-23.5 -27.5t-26 -29l-24.5 -25.5t-27 -26.5l-26 -22t-27.5 -21.5t-27 -16.5q-46 -26 -80 -13.5t-35.5 56.5t40.5 117q35 57 120 172l-59 1l-99 -120l-8 4q14 18 46.5 56.5t48.5 59.5h-57l65 86l66 -1l-57 -77
q44 -1 126 -1q-90 -122 -124 -180q-59 -96 -47 -137q12 -40 69 -1q35 23 73.5 59.5t59 60.5l63.5 75q14 18 46.5 56.5t48.5 59.5h-57z" />
    <glyph glyph-name="s_s" unicode="ss" horiz-adv-x="542" 
d="M205 55q-28 1 -41 20q-8 12 -6 27q0 15 11 31q33 49 131 68q5 22 5.5 65.5t4.5 62.5q-52 -51 -103 -79.5t-122 -44.5q-11 -72 -53.5 -110t-97.5 -40q-28 1 -41 20q-7 12 -6 27q0 15 11 31q33 49 131 68q5 22 5.5 65.5t4.5 62.5l-44 -49l-6 6l45 51l8 9q1 3 6.5 32
t14.5 48.5t26 31.5q12 9 23 7q12 -2 15 -14q4 -17 -17 -40q-12 -16 -41 -48q-1 -21 9 -70t8 -80q134 30 219 124l8 9q1 3 6.5 32t14.5 48.5t26 31.5q12 9 23 7q12 -2 15 -14q4 -17 -17 -40q-12 -16 -41 -48q-1 -21 9 -70t8 -80q39 9 79 23q73 27 108 64l4 -4l2 -1
q-35 -39 -112 -66q-38 -15 -82 -24q-11 -72 -53.5 -110t-97.5 -40zM300 193q-95 -19 -124 -64q-9 -14 -11 -27q0 -10 3 -16q16 -19 43.5 -7.5t55.5 46.5t33 68zM29 193q-95 -19 -124 -64q-9 -14 -11 -27q0 -10 3 -16q16 -19 43.5 -7.5t55.5 46.5t33 68z" />
    <glyph glyph-name="b_r" unicode="br" horiz-adv-x="779" 
d="M540 489l66 -1l-57 -77q44 -1 126 -1q-90 -122 -124 -180q-59 -96 -47 -137q12 -40 69 -1q73 48 170 164q8 9 24 29q9 10 13 15l7 -5l-22.5 -27l-25 -29.5l-23.5 -27.5t-26 -29l-24.5 -25.5t-27 -26.5l-26 -22t-27.5 -21.5t-27 -16.5q-46 -26 -80 -13.5t-35.5 56.5
t40.5 117q35 57 120 172l-59 1q-80 -102 -106 -129q-128 -136 -251 -110q-43 -53 -93.5 -82.5t-96.5 -20.5q-27 5 -37 38q-5 15 -3 34q1 19 23 61l-99 -136h-68l450 616h66l-233 -320q11 10 25 19q49 38 92 31q31 -5 43.5 -28.5t7 -56.5t-23.5 -71.5t-45 -74.5
q21 -6 42.5 -5t39.5 4t39.5 15l35.5 20t35.5 28l32 30.5t31.5 35.5t28 34l28 36l25 32h-57zM132 191q-14 6 -9 17q5 12 20 1l3 -3l2 -2l5 8q55 92 50 152q-4 55 -78 3q-29 -22 -60 -56l-58 -79h1q-4 -8 -16.5 -31t-19 -38.5t-7.5 -29.5v-13q2 -25 11 -33t33 -2q29 7 64 35
t64 68z" />
    <glyph glyph-name="o_r" unicode="or" horiz-adv-x="727" 
d="M488 489l66 -1l-57 -77q44 -1 126 -1q-90 -122 -124 -180q-59 -96 -47 -137q12 -40 69 -1q73 48 170 164q8 9 24 29q9 10 13 15l7 -5l-22.5 -27l-25 -29.5l-23.5 -27.5t-26 -29l-24.5 -25.5t-27 -26.5l-26 -22t-27.5 -21.5t-27 -16.5q-46 -26 -80 -13.5t-35.5 56.5
t40.5 117q35 57 120 172l-59 1l-90 -108h1l-11 -13l-16 -17.5l-19 -20t-23.5 -22l-26 -20.5t-30 -19.5t-32 -14t-35 -10t-36.5 -1.5t-39 7h-1q-31 -40 -79 -77q-48 -35 -92 -28q-63 10 -50 89q14 79 84 161q81 93 159 95q12 0 23 -2q10 -1 18 -8q6 -4 9 -12q9 -15 9 -37
q0 -15 -3 -31q-13 -65 -61 -127l-10 -14q1 -1 2 0q20 -6 40 -7t38.5 4t34.5 11t33 18l28.5 20.5t26.5 23.5l22 22.5t19 21.5q14 18 46.5 56.5t48.5 59.5h-57zM145 192q50 72 59 124q2 16 3 32t-9 26t-31 4q-34 -9 -74 -43.5t-70 -83.5q-55 -92 -50 -152q1 -16 9.5 -22t21 -3
t24.5 8.5t23 13.5q1 0 10.5 7.5l17.5 14t21.5 20t26.5 29.5l-1 1q-14 5 -11 14q3 11 18 0q1 -2 3 -3z" />
    <glyph glyph-name="o_s" unicode="os" horiz-adv-x="666" 
d="M329 55q-28 1 -41 20q-8 12 -6 27q0 15 11 31q33 49 131 68q5 22 5.5 65.5t4.5 62.5l-37 -41q-13 -15 -17.5 -19.5l-21.5 -22.5t-28 -26.5l-31 -23.5t-37 -21.5t-38.5 -13t-44 -5.5t-44.5 8h-1q-31 -40 -79 -77q-48 -35 -92 -28q-63 10 -50 89q14 79 84 161q81 93 159 95
q12 0 23 -2q10 -1 18 -8q6 -4 9 -12q9 -15 9 -37q0 -15 -3 -31q-13 -65 -61 -127l-10 -14q1 -1 2 0q22 -6 44 -5.5t39.5 4t38.5 15t33 19t31.5 25.5l25.5 23.5t23 25.5l18 19l33 38l8 9q1 3 6.5 32t14.5 48.5t26 31.5q12 9 23 7q12 -2 15 -14q4 -17 -17 -40q-12 -16 -41 -48
q-1 -21 9 -70t8 -80q39 9 79 23q73 27 108 64l4 -4l2 -1q-35 -39 -112 -66q-38 -15 -82 -24q-11 -72 -53.5 -110t-97.5 -40zM145 192q50 72 59 124q2 16 3 32t-9 26t-31 4q-34 -9 -74 -43.5t-70 -83.5q-55 -92 -50 -152q1 -16 9.5 -22t21 -3t24.5 8.5t23 13.5q1 0 10.5 7.5
l17.5 14t21.5 20t26.5 29.5l-1 1q-14 5 -11 14q3 11 18 0q1 -2 3 -3zM424 193q-95 -19 -124 -64q-9 -14 -11 -27q0 -10 3 -16q16 -19 43.5 -7.5t55.5 46.5t33 68z" />
    <glyph glyph-name="o_x" unicode="ox" horiz-adv-x="772" 
d="M432 229l39 154q-43 -60 -79 -101q-132 -156 -257 -118h-1q-31 -40 -79 -77q-48 -35 -92 -28q-63 10 -50 89q14 79 84 161q81 93 159 95q12 0 23 -2q10 -1 18 -8q6 -4 9 -12q9 -15 9 -37q0 -15 -3 -31q-13 -65 -61 -127l-10 -14q1 -1 2 0q20 -6 40 -7t38.5 4t34.5 11
t33 18l28.5 20.5t26.5 23.5l22 22.5t19 21.5q62 77 93 122v2l67 -1l-35 -142l144 145l6 -6l-154 -154l-6 -26q-16 -65 -15 -103q2 -37 21 -48q23 -9 59 17q19 13 40.5 31t36.5 32t38.5 39.5l32 34.5t33 38t26.5 31l5 -2l3 -2q-145 -175 -233 -224q-32 -16 -60 -16h-1
q-8 0 -18 2q-21 7 -33 34q-9 18 -13 57v22l-111 -112l-6 6l118 118q1 22 9 47zM145 192q50 72 59 124q2 16 3 32t-9 26t-31 4q-34 -9 -74 -43.5t-70 -83.5q-55 -92 -50 -152q1 -16 9.5 -22t21 -3t24.5 8.5t23 13.5q1 0 10.5 7.5l17.5 14t21.5 20t26.5 29.5l-1 1
q-14 5 -11 14q3 11 18 0q1 -2 3 -3z" />
    <glyph glyph-name="o_z" unicode="o&#x7a;" horiz-adv-x="790" 
d="M485 411l201 -1q-8 -8 -55 -50l-80 -74t-66 -77t-39 -79q-4 -25 1.5 -34.5t14.5 -7.5t26.5 6.5t28.5 4.5q17 0 35.5 -6t29.5 -11l11 -4q89 89 197 221l8 -4q-123 -149 -213 -239l-10 4q-10 5 -29 9.5t-37 4.5q-15 0 -38 -6.5t-37 -9.5t-27 4t-18 30q-22 99 221 310h-122
l-25.5 -31.5l-27.5 -35l-29 -36t-31 -35.5t-33 -33t-35.5 -28.5t-38 -23t-41 -15l-44.5 -5.5t-48 5h-1q-31 -40 -79 -77q-48 -35 -92 -28q-63 10 -50 89q14 79 84 161q81 93 159 95q12 0 23 -2q10 -1 18 -8q6 -4 9 -12q9 -15 9 -37q0 -15 -3 -31q-13 -65 -61 -127l-10 -14
q1 -1 2 0q47 -12 91.5 0.5t83.5 47t69 69t65 79.5l32 42h1zM145 192q50 72 59 124q2 16 3 32t-9 26t-31 4q-34 -9 -74 -43.5t-70 -83.5q-55 -92 -50 -152q1 -16 9.5 -22t21 -3t24.5 8.5t23 13.5q1 0 10.5 7.5l17.5 14t21.5 20t26.5 29.5l-1 1q-14 5 -11 14q3 11 18 0
q1 -2 3 -3z" />
    <glyph glyph-name="w_r" unicode="wr" horiz-adv-x="933" 
d="M694 489l66 -1l-57 -77q44 -1 126 -1q-90 -122 -124 -180q-59 -96 -47 -137q12 -40 69 -1q73 48 170 164q8 9 24 29q9 10 13 15l7 -5l-22.5 -27l-25 -29.5l-23.5 -27.5t-26 -29l-24.5 -25.5t-27 -26.5l-26 -22t-27.5 -21.5t-27 -16.5q-46 -26 -80 -13.5t-35.5 56.5
t40.5 117q35 57 120 172l-59 1q-93 -120 -153 -168q-118 -96 -249 -74l-29 -29l-2 -2h-1l-2 -2q-44 -42 -71 -57q-13 -7 -23 -9l-7 -3q-39 -10 -62 6t-19.5 60t41.5 106l3 6q-143 -185 -186 -181q-27 3 -37 23t0.5 59.5t43.5 92.5q38 63 125 180l66 -1q-85 -115 -124 -179
q-1 -2 -6 -10q-85 -139 -46 -142q12 -1 41.5 27t74 83.5l70.5 88.5l66 86l34 47l67 -1q-82 -108 -125 -179q-58 -96 -46 -138q7 -27 37 -18q30 15 69 51q13 11 39 37l-11 3q-14 6 -10 17q7 11 24 -2q6 -4 9 -5q46 49 84 99l101 138l6 -5l-101 -138q-41 -55 -82 -97
q15 -6 53 -8q42 1 83 17t69 34.5t65 57t55 60.5l54 69h-57z" />
    <glyph glyph-name="t_t" unicode="tt" horiz-adv-x="482" 
d="M392 521h66l-67 -93h96v-5h-100l-39 -54q-57 -78 -94 -139q-58 -95 -47 -138q12 -40 69 -1q23 16 54.5 45.5t54.5 54l75 82.5q12 12 24 27l6 -6l-24 -27q-96 -105 -133 -139q-40 -37 -76 -57q-46 -23 -78 -13t-35 49t33 107q-55 -58 -85 -86q-40 -37 -76 -57
q-48 -24 -80 -12t-32.5 54.5t41.5 116.5q41 65 100 145l34 48h-84v5h88l28.5 38.5l26.5 37t13 17.5h66l-67 -93h174l28.5 38.5l26.5 37t13 17.5zM35 91q21 14 49.5 41t48 47.5l66.5 71.5q36 56 87 124l34 48h-174l-39 -54q-57 -78 -94 -139q-58 -95 -47 -138q12 -40 69 -1z
" />
    <glyph glyph-name=".notdef" horiz-adv-x="310" 
 />
    <glyph glyph-name=".null" horiz-adv-x="0" 
 />
    <glyph glyph-name="nonmarkingreturn" horiz-adv-x="333" 
 />
    <glyph glyph-name="NULL" horiz-adv-x="0" 
 />
    <glyph glyph-name="NULL" horiz-adv-x="0" 
 />
    <glyph glyph-name="CR" unicode="&#xd;" horiz-adv-x="310" 
 />
    <glyph glyph-name="space" unicode=" " horiz-adv-x="310" 
 />
    <glyph glyph-name="exclam" unicode="!" horiz-adv-x="290" 
d="M453 821l-475 -707l-50 -1l451 708h74zM-71 88q13 0 20.5 -9t5.5 -22t-13 -22t-24 -9t-20.5 9t-5.5 22t13 22t24 9z" />
    <glyph glyph-name="quotedbl" unicode="&#x22;" horiz-adv-x="223" 
d="M72 462h-17l21 65h45zM142 462h-17l21 65h45z" />
    <glyph glyph-name="numbersign" unicode="#" horiz-adv-x="833" 
d="M238 469h55l80 146h74q-42 -63 -91 -146h145l80 146h74q-42 -63 -91 -146h76q-15 -15 -39 -47h-65l-122 -217h82q-15 -15 -39 -47h-70q-72 -127 -108 -183l-50 -1l101 184h-151q-72 -127 -108 -183l-50 -1l101 184h-68l40 47h54l119 217h-69zM328 422l-122 -217h150
l119 217h-147z" />
    <glyph glyph-name="dollar" unicode="$" horiz-adv-x="532" 
d="M267 364q1 -37 -20.5 -85.5t-57.5 -92t-90 -69.5t-110 -18l-44 -75h-15l44 76q-1 1 -3 1l-16 6l-48 -83h-16l54 92q-15 16 -11 45.5t25 62.5h16q-36 -60 -20 -91l168 285q-29 4 -53 22.5t-22 52.5q2 39 23 85.5t55 88t85.5 66t107.5 17.5l42 73h15l-44 -75q10 -3 18 -9
l49 84h15l-55 -94q24 -37 -18 -103h-16q31 51 23 84l-165 -280q28 -4 55.5 -21.5t28.5 -44.5zM305 728q-72 -10 -131 -87.5t-66 -140.5q-3 -24 5.5 -40.5t21.5 -21.5zM171 409l-167 -283q44 4 94.5 55t81.5 104.5t30 73.5q0 14 -4 24t-9.5 14.5t-10.5 7t-10 3.5zM341 723
q-8 7 -19 8l-174 -296q2 0 22 -3zM-14 119l172 294q-7 2 -21 4l-172 -294q8 -4 15 -4h6z" />
    <glyph glyph-name="percent" unicode="%" horiz-adv-x="505" 
d="M291 691q61 -26 25 -121q-33 -88 -115 -164q-93 -87 -161 -73q-17 4 -31 15q-29 27 -25.5 74t39 100.5t80 97.5t97.5 65.5t91 5.5zM302 660q-26 19 -101 -50t-127 -152.5t-23 -100.5q50 -30 155 74q62 61 91.5 135.5t4.5 93.5zM473 337q61 -26 25 -121q-33 -88 -115 -164
q-93 -87 -161 -73q-17 4 -31 15q-29 27 -25.5 74t39 100.5t80 97.5t97.5 65.5t91 5.5zM484 306q-26 19 -101 -50t-127 -152.5t-23 -100.5q50 -30 155 74q62 61 91.5 135.5t4.5 93.5zM454 690h74l-467 -703l-50 -1z" />
    <glyph glyph-name="ampersand" unicode="&#x26;" horiz-adv-x="1220" 
d="M98 472q117 205 328.5 309t446.5 88q92 106 166 142l19 8q27 9 42 0q2 0 4 -2l3 -2q7 -7 6 -19q-3 -17 -23 -40q-29 -35 -95 -84l-26 -19q153 -42 225.5 -163.5t29.5 -271.5q-13 -44 -35.5 -90t-58.5 -93t-79 -84.5t-102 -62t-122 -27.5q-9 -1 -26 -1h-5q-6 -6 -14 -11
q-78 -59 -167 -86q-23 -7 -40 -11q-65 -15 -117 -9q-68 4 -122.5 44.5t-80.5 98.5t-31 126t25 127q65 142 221 243q57 37 208 115q68 34 101 52q40 57 86 111q-28 3 -63 1q-60 -3 -118 -15q-155 -36 -293 -135.5t-214 -228.5q-51 -88 -67 -188t3.5 -190.5t85 -161.5
t168.5 -98h3q24 -6 37 -8q118 -16 251 35l34 16q90 44 175 117l6 -6q-91 -76 -178 -118q-143 -70 -274 -54q-96 10 -174 55t-125.5 112.5t-70 148t-10.5 167t57 163.5zM685 475q66 31 129 28q37 -1 67 -19q20 -13 31 -25l9 -10q27 -34 30 -79q3 -23 2 -43q-5 -72 -47 -146
q-34 -60 -100 -113q55 1 117 30q3 1 8.5 3.5t7.5 3.5q76 48 138.5 135.5t88.5 175.5q45 157 -5.5 274t-203.5 155q-4 -2 -12 -8l-44 -28l-64 -40q-91 -143 -146 -278zM618 423q-62 -49 -114 -126l-3 2l-4 2q25 37 62 78q29 32 62 57q11 39 20 60q45 113 118 223
q-12 -7 -56.5 -35l-57 -36l-50 -33t-52 -36.5l-44.5 -35.5t-45.5 -41.5l-38 -42.5t-39.5 -50.5t-32 -53.5q-57 -98 -55 -205.5t66 -160.5q8 -7 19 -13q77 -44 199 -16q113 26 211 101q-45 3 -85 31l-2 1l-5 3l-3 2l-3 2q-44 31 -64.5 86.5t-20 114.5t16.5 122zM657 148
q13 -21 30 -36q45 -42 106 -44q56 44 93 96q43 65 56 136l3 28q3 51 -15 90q-19 40 -53 59q-21 11 -30 13l-11 2q-29 6 -65 1q-44 -5 -90 -29q-79 -211 -24 -316zM905 866q36 -6 54 -10q6 4 17.5 12.5t13.5 9.5q66 49 94 83q28 33 19 45v1q-4 4 -6 5q-12 7 -36 -1
q-12 -4 -19 -8q-58 -36 -137 -137zM850 788q56 32 90 56q4 2 7 4l-49 9z" />
    <glyph glyph-name="quotesingle" unicode="'" horiz-adv-x="181" 
d="M55 462l21 65h45l-49 -65h-17z" />
    <glyph glyph-name="parenleft" unicode="(" horiz-adv-x="291" 
d="M393 610l9 -5l-12 -19q-1 2 -3.5 3.5t-3.5 2.5q-30 16 -99 -22.5t-140 -104t-113 -128.5q-66 -99 -85 -211t34 -153l2 -1h2l-13 -20q-6 2 -13 5q-45 24 -60.5 85t5.5 147.5t79 173.5q58 88 138.5 154t154.5 91.5t118 1.5z" />
    <glyph glyph-name="parenright" unicode=")" horiz-adv-x="508" 
d="M-57 0l-9 5l12 19q1 -2 3.5 -3.5t3.5 -2.5q30 -16 99 22.5t140 104t113 128.5q66 99 85 211t-34 153l-2 1h-2l13 20q6 -2 13 -5q45 -24 60.5 -85t-5.5 -147.5t-79 -173.5q-58 -88 -138.5 -154t-154.5 -91.5t-118 -1.5z" />
    <glyph glyph-name="asterisk" unicode="*" horiz-adv-x="436" 
d="M170 299l43 110l-73 -43q-3 2 -15 13t-13 14l108 63l-59 54q2 1 26.5 15t27.5 15l36 -34l34 86h13t21.5 0.5t13.5 0.5l-36 -92l84 49q1 -2 26 -27l-108 -63l55 -53q-40 -20 -52 -29l-39 36l-45 -116h-23.5t-24.5 1z" />
    <glyph glyph-name="plus" unicode="+" horiz-adv-x="459" 
d="M119 292l115 2l80 98h56l-80 -98l110 1l-39 -47l-110 -1l-78 -98h-15h-26.5h-14.5l78 98l-116 -2z" />
    <glyph glyph-name="comma" unicode="," horiz-adv-x="165" 
d="M90 149q13 0 20.5 -9t5.5 -22q-3 -13 -12 -20l-42 -42h-17l22 33q-19 9 -14 29q2 13 13 22t24 9z" />
    <glyph glyph-name="hyphen" unicode="-" horiz-adv-x="411" 
d="M114 247h225q-15 -15 -39 -47h-226z" />
    <glyph glyph-name="period" unicode="." horiz-adv-x="122" 
d="M77 92q10 -5 12.5 -18.5t-5.5 -26.5q-7 -13 -19.5 -17.5t-22.5 1.5q-10 5 -12.5 18.5t5.5 26.5q7 13 19.5 17.5t22.5 -1.5z" />
    <glyph glyph-name="slash" unicode="/" horiz-adv-x="381" 
d="M481 745h74l-529 -800l-50 -1z" />
    <glyph glyph-name="zero" unicode="0" horiz-adv-x="369" 
d="M411 560q60 -25 7 -145q-50 -114 -155 -222q-112 -116 -186 -116q-23 0 -39 13q-21 19 -20.5 56t23.5 85t56 98.5t76.5 96.5t85.5 80.5t83 50t69 3.5zM422 529q-26 19 -124 -82.5t-173 -217t-45 -130.5q36 -18 112.5 43.5t143.5 152.5q55 76 82 146.5t4 87.5z" />
    <glyph glyph-name="one" unicode="1" horiz-adv-x="224" 
d="M382 564l-184 -268t-141 -215h-75l294 437l-73 -69h-17l119 114l1 1h76z" />
    <glyph glyph-name="two" unicode="2" horiz-adv-x="336" 
d="M-17 76q69 95 226 250q33 30 59 58q65 74 76 127q7 34 -21 37q-18 2 -48.5 -16.5t-54.5 -45.5l-9 -10q-32 -38 -49 -79l-8 3q19 44 51 81q55 67 115 77q27 5 48 -7q22 -12 28 -35t-1 -47.5t-23 -50.5l-3 -4q-8 -13 -22 -29q-30 -38 -132.5 -140.5t-148.5 -160.5h157
l-6 -8h-117q-117 -1 -117 0z" />
    <glyph glyph-name="three" unicode="3" horiz-adv-x="325" 
d="M325 549q28 -22 22 -55t-33 -67t-65 -59q15 0 26 -8q24 -20 25 -56.5t-23.5 -79t-57 -78.5t-75.5 -56t-80 -11q-38 10 -38.5 58.5t55.5 109.5h12q-56 -55 -56 -109q0 -39 32 -41h3q35 0 82 57t74 117t12 70q-20 15 -59 -12h-24q21 17 40 26q43 31 83 99q44 76 15 88
q-3 1 -6 1q-20 3 -49 -19.5t-47 -44.5q-33 -37 -50 -79l-7 3q15 40 51 81q88 103 138 65z" />
    <glyph glyph-name="four" unicode="4" horiz-adv-x="358" 
d="M373 368l-55 -81h39q-1 -1 -3.5 -4t-4.5 -6h-38l-136 -199l-75 -1l136 200h-212l342 284h97l-330 -274h109l55 81h76z" />
    <glyph glyph-name="five" unicode="5" horiz-adv-x="313" 
d="M274 360q24 -21 25 -57t-23.5 -78.5t-57.5 -78.5t-76 -56t-79 -11q-23 6 -33 29t2 61t49 78l11 -1q-22 -23 -35 -46t-16.5 -41t-1 -32t11 -22t20.5 -9q34 -1 81.5 55.5t74.5 117.5t12 72q-21 15 -60 -13h-75l156 229q32 0 95 -0.5t94 -0.5l-8 -10h-113
q-111 -158 -138 -200q62 29 84 14z" />
    <glyph glyph-name="six" unicode="6" horiz-adv-x="336" 
d="M60 81q-16 14 -22 33t0 44.5t13 47t27 53.5l31.5 50t37 50.5l32.5 41l28 34.5q54 66 119 98t92 13q27 -17 18.5 -69t-49.5 -96h-10q34 37 46.5 83.5t-6.5 56.5q-23 11 -81.5 -38.5t-89.5 -88.5q-9 -11 -23 -30q29 6 47 -2q51 -23 12 -111q-34 -78 -103 -137
q-78 -65 -119 -33zM162 267l-28 -45q-62 -106 -40 -122q31 -23 97 45q63 64 87 132q21 59 -16 67q-19 5 -46 -15.5t-54 -61.5z" />
    <glyph glyph-name="seven" unicode="7" horiz-adv-x="269" 
d="M381 558l-184 -268t-141 -215h-75l315 470h-158l10 13h233z" />
    <glyph glyph-name="eight" unicode="8" horiz-adv-x="314" 
d="M42 86q-32 22 -25 66t31.5 88t66 78t78.5 35q-14 37 17.5 94.5t82 92t81.5 10.5q26 -19 21 -55.5t-24 -73.5t-52.5 -66.5t-64.5 -34.5q13 -24 3.5 -62.5t-34.5 -73.5t-57.5 -65.5t-65.5 -39t-58 6.5zM234 321q-4 0 -8 2q-31 1 -92 -74q-63 -79 -70 -127q-3 -28 21 -29
q34 -1 73 33t65 79q23 39 26.5 73t-15.5 43zM208 352l19 -6q31 7 80 75q56 76 48 109q-3 12 -16 14q-22 3 -52 -20.5t-54 -57.5q-23 -35 -30.5 -67t5.5 -47z" />
    <glyph glyph-name="nine" unicode="9" horiz-adv-x="380" 
d="M412 545q26 -21 22 -63t-26.5 -90.5t-60.5 -102.5q-74 -105 -162.5 -172t-129.5 -37q-17 12 -18.5 41t15 64t47.5 60l9 -1q-30 -29 -46 -60t-15 -50.5t12 -29.5q16 -10 78.5 42t88.5 85q5 6 23 31q-27 -8 -47 1q-51 23 -12 111q34 78 103 138q79 65 119 33zM310 358
q4 7 14 23t15 23q62 105 39 122q-31 23 -98 -46q-62 -65 -86 -132q-20 -59 16 -67q20 -4 47 16t53 61z" />
    <glyph glyph-name="colon" unicode=":" horiz-adv-x="223" 
d="M52 138q10 -5 12.5 -18.5t-5.5 -26.5q-7 -13 -19.5 -17.5t-22.5 1.5q-10 5 -12.5 18.5t5.5 26.5q7 13 19.5 17.5t22.5 -1.5zM202 374q10 -5 12.5 -18.5t-5.5 -26.5q-7 -13 -19.5 -17.5t-22.5 1.5q-10 5 -12.5 18.5t5.5 26.5q7 13 19.5 17.5t22.5 -1.5z" />
    <glyph glyph-name="semicolon" unicode=";" horiz-adv-x="241" 
d="M90 149q13 0 20.5 -9t5.5 -22q-3 -13 -12 -20l-42 -42h-17l22 33q-19 9 -14 29q2 13 13 22t24 9zM216 334q10 -5 12.5 -18.5t-5.5 -26.5q-7 -13 -19.5 -17.5t-22.5 1.5q-10 5 -12.5 18.5t5.5 26.5q7 13 19.5 17.5t22.5 -1.5z" />
    <glyph glyph-name="less" unicode="&#x3c;" horiz-adv-x="280" 
d="M321 511l-315 -191l245 -190l-14 -79l-346 269l444 269z" />
    <glyph glyph-name="equal" unicode="=" horiz-adv-x="412" 
d="M87 245h225q-15 -15 -39 -47h-226zM159 347h225q-15 -15 -39 -47h-226z" />
    <glyph glyph-name="greater" unicode="&#x3e;" horiz-adv-x="299" 
d="M-104 51l14 78l315 191l-245 190l14 79l346 -269z" />
    <glyph glyph-name="question" unicode="?" horiz-adv-x="460" 
d="M-80 112q48 126 326 372q156 139 148 236q-5 60 -71 78q-76 21 -168 -28q-90 -48 -143 -144q-33 -60 -9 -100q24 -39 81 -17q40 16 86 62l11 -9l-14 -14q-27 -26 -57 -43t-63.5 -19.5t-53.5 26.5q-15 20 -15.5 45.5t11 51t27 47.5t35.5 43q100 108 215 121q92 10 138 -45
q53 -66 -1 -177q-33 -69 -106 -144q-47 -48 -134 -124.5t-138.5 -128.5t-61.5 -85l-1 -2v-2h-42zM-71 88q13 0 20.5 -9t5.5 -22t-13 -22t-24 -9t-20.5 9t-5.5 22t13 22t24 9z" />
    <glyph glyph-name="at" unicode="@" horiz-adv-x="833" 
d="M394 434l66 -1q-90 -123 -124 -179q-59 -97 -47 -138q10 -32 47 -14q45 21 103.5 86t104.5 142q87 154 82 252t-83 126q-64 23 -160 -13.5t-199 -129.5q-79 -72 -144 -160.5t-99 -169.5q-79 -192 -12 -320q30 -57 86 -85q57 -28 131 -17q93 14 195.5 91.5t201.5 221.5
l6 -5q-99 -145 -203.5 -223.5t-198.5 -92.5q-75 -10 -135 18q-58 27 -90 89q-69 132 12 326q34 82 99.5 171t145.5 162q65 59 131 96.5t120 48t99 3t70.5 -40.5t32.5 -80.5t-13.5 -118.5t-68.5 -153q-44 -76 -104 -141t-107 -91q-57 -29 -91 -6t-16 87q-38 -41 -67 -62
q-50 -36 -92 -30q-63 9 -49.5 88.5t83.5 160.5q81 94 159 95q12 0 23 -2q29 -5 37 -38q5 -15 3 -34q0 -6 -1 -9zM314 324q7 18 7 29v13q-1 25 -10 33.5t-34 2.5q-34 -9 -74 -44t-70 -83q-55 -94 -50 -153q4 -55 78 -3q34 25 78 76q13 33 29 59q17 28 46 70z" />
    <glyph glyph-name="A" unicode="A" horiz-adv-x="1078" 
d="M1119 670q67 -1 94 -23q9 -8 11 -16q1 -9 -6 -16q-14 -15 -60 -21q-26 -2 -56 0q-44 -49 -87.5 -131t-73 -169.5t-45.5 -167.5t-8 -135.5t42 -63.5q-51 5 -71.5 53t-12 116.5t23 126t32.5 105.5h-176l-31.5 -45.5t-33 -47l-30.5 -43t-33 -45l-31 -39t-34 -40l-32 -33
t-35.5 -32l-34.5 -25.5q-51 -35 -121 -49.5t-149 4.5q-24 6 -48 18q-48 23 -94 78l6 6q10 -13 22 -25q16 -16 36 -31q18 -13 34 -21q42 -21 99 -27q122 0 255 154q51 60 172 235l6 8h-44l2 10h48l20 29q98 139 173 208q33 28 66 47q-13 3 -37 7.5t-32 6.5q-228 49 -340 54
q-217 9 -355 -131q-102 -104 -122 -242q-18 -130 46 -208q57 -68 161 -65q67 2 130 53.5t78 116.5l8 -2q-17 -69 -81 -120q-65 -53 -135 -56q-143 -5 -203 100q-54 95 -18 226q38 142 156 235q140 109 336 101q114 -5 341 -54l79 -16q94 48 193 42zM1059 597q-36 4 -86 14
q-69 -48 -142 -139q-49 -60 -99 -134h174q0 1 1 1q71 178 152 258zM983 617q60 -10 83 -13q54 51 111 51q-20 5 -59 7h-5q-7 0 -21 -2q-54 -9 -109 -43zM1109 601h2q32 0 46 1q41 4 55 18q6 6 4 10q0 5 -8 11q-9 7 -18 9l-4 2q-35 -7 -77 -51z" />
    <glyph glyph-name="B" unicode="B" horiz-adv-x="1185" 
d="M905 628q74 39 149.5 47.5t155.5 -21.5l-1 -3l-2 -4q-125 53 -263 -46q22 -17 41 -40q29 -40 32 -81q3 -42 -24 -80q-50 -65 -173 -92q54 -2 96 -19q80 -32 86 -113q5 -79 -60 -150q-83 -89 -217 -91q-13 0 -27 1q-51 4 -116 14q-56 8 -80.5 11t-65.5 2.5t-69 -8.5
q-12 -5 -22 -8l-12 -6l-1 2q-73 -20 -138 -11q-107 13 -188 105l3 3l3 2q47 -49 91.5 -73t100.5 -30q71 -2 140 43.5t131 123.5t118 160.5t123.5 173t125.5 142.5q18 16 34 27q-99 83 -325 81q-248 -1 -399 -148q-108 -104 -127 -238q-17 -121 49 -194q57 -62 158 -58
q67 3 130 53q63 52 78 117l8 -2q-15 -67 -81 -121q-63 -52 -135 -55q-140 -5 -200 93q-54 90 -17 216q40 139 168 233q151 111 368 114q89 2 186 -15t168 -57zM399 -31q51 7 184 -11q63 -9 114 -5q50 4 98.5 30t81.5 64t51.5 79t11.5 79.5t-40 61.5q-59 41 -195 25l5 7
q7 2 32.5 7.5t35.5 8t33.5 9t34.5 13t29.5 16.5t27.5 22t19 27.5t14 35.5t4 43q-3 51 -30 91q-57 -52 -124 -142t-118.5 -168t-117.5 -157.5t-125 -119.5z" />
    <glyph glyph-name="C" unicode="C" horiz-adv-x="1051" 
d="M597 80q16 49 41 85q27 38 59 60q4 4 7 5q53 35 103 32q49 -2 72 -36l2 -2q22 -33 8 -85q-13 -50 -57 -101q-36 -43 -79 -69q-11 -8 -26 -15q-46 -26 -94 -32h-1q-33 -5 -65 1q-104 19 -90 143q13 124 130 286q98 135 219 224q-51 19 -64 25q-170 68 -256 77
q-211 20 -351 -116q-103 -100 -127 -240q-22 -129 37 -210q55 -73 159 -68q67 3 130 54q64 51 78 116l8 -2q-15 -67 -81 -121q-66 -52 -134 -55q-135 -5 -193 99q-53 95 -19 226q37 142 151 233q142 112 343 92q40 -4 90 -18t78.5 -25l89.5 -35l68 -27q101 72 190 90
q73 15 110 -3t34 -52q0 -3 -1 -4q-4 -41 -51 -66q-43 -23 -101 -20q-2 0 -6 0.5t-6 0.5q-57 6 -136 34q-68 -55 -131 -129.5t-107 -151t-68.5 -146t-19 -122t44.5 -71.5q63 -30 164 34q45 29 77 68l8 10q34 45 47 85v3q13 48 -7 79v1l-1 1q-13 17 -37 27l-18 4h-1
q-1 0 -4.5 0.5t-5.5 0.5h-7h-5q-3 0 -8 -0.5t-7 -0.5q-37 -7 -72 -29l-7 -5q-32 -22 -56 -58q-26 -37 -41 -83zM1159 617q0 31 -28.5 44.5t-86.5 -1.5q-83 -25 -170 -93q68 -25 129 -32q2 0 5.5 -0.5t5.5 -0.5q56 -3 97 19q44 23 48 61v3z" />
    <glyph glyph-name="D" unicode="D" horiz-adv-x="1213" 
d="M448 217q-15 -66 -81 -121q-63 -52 -134 -55q-141 -5 -201 95q-54 90 -18 216q41 140 169 235q161 120 396 114q190 -3 314 -86q105 67 222 59h2q30 -2 57 -9q26 -8 39 -14l-2 -4l-1 -3q-22 9 -45 15q-31 6 -51 8q-91 -4 -182 -82q61 -54 90 -130.5t26 -153.5t-35 -151
t-86 -126.5t-135 -76.5t-174 -5q-49 10 -78.5 14.5t-82.5 3.5t-103 -15q-114 -38 -211 -2q-11 3 -31 13q-50 24 -95 78l3 3l3 2l17 -18q28 -30 61 -51l14 -7q43 -21 101 -27q70 1 138 48t129 124.5t116.5 159t122.5 170.5t124 141q7 7 23 19q-116 95 -291 95
q-255 0 -414 -146q-113 -103 -136 -238q-21 -122 44 -196q56 -66 161 -64q69 3 129 53q64 53 79 117zM396 -37q90 15 224 -13q69 -12 132 13.5t108.5 76.5t75.5 120t38.5 140t-8 141.5t-59.5 120.5q-55 -52 -122 -141.5t-117 -166.5t-115.5 -155t-123.5 -117q-13 -9 -33 -19
z" />
    <glyph glyph-name="E" unicode="E" horiz-adv-x="1154" 
d="M827 574q35 56 91 83t106.5 25.5t86.5 -22.5q57 -32 38 -79q-17 -41 -75 -58q-28 -9 -59 -7q-2 0 -6 0.5t-7 0.5q-61 7 -144 37q-13 -41 10 -73.5t80 -40.5l-1 -3q-114 6 -210.5 -74t-134.5 -188q-29 -81 -10.5 -149t73.5 -94q70 -33 172 34q44 28 77 67q42 51 55 98
q13 46 -7 79q-1 1 -1 2q-16 21 -41 28q-8 2 -24 4h-2h-7h-12q-41 -5 -79 -30l-7 -5q-31 -22 -57 -58q-25 -39 -40 -83l-8 2q17 49 42 86q25 36 58 60l8 4q53 35 103 32q49 -2 72 -36q1 0 1 -2q23 -34 9 -85q-12 -47 -57 -101q-37 -42 -79 -69q-24 -14 -38 -21
q-39 -19 -80 -26q-27 -5 -69 1q-83 15 -116.5 89.5t1.5 172.5q38 106 144.5 190.5t221.5 78.5q-64 7 -85.5 44.5t3.5 78.5q-6 2 -61 24q-170 68 -256 77q-205 22 -346 -112q-104 -98 -131 -237q-25 -132 34 -213q54 -75 161 -71q67 1 130 53q63 50 78 116l8 -2
q-15 -67 -81 -120q-65 -53 -134 -56q-135 -5 -193 99q-53 95 -19 226q37 142 151 233q142 112 343 92q40 -4 90 -18t78.5 -25l89.5 -35zM861 561q86 -30 142 -36q2 0 6 -0.5t6 -0.5q71 -4 111 37q34 35 11 66q-11 14 -31 23q-36 16 -85 14q-57 -3 -100 -32.5t-60 -70.5z" />
    <glyph glyph-name="F" unicode="F" horiz-adv-x="991" 
d="M457 215q-15 -67 -81 -120q-65 -54 -135 -55q-146 -5 -208 100q-55 93 -19 224q38 141 158 234q172 133 423 94q94 -15 194 -54q4 -2 24.5 -10l32.5 -13l40 -16q110 82 241 74q78 -3 121 -34h1q23 -17 31 -37t2 -38q-6 -19 -24 -32q-26 -20 -69 -24q-65 -8 -225 53
q-7 2 -32 11q-44 -39 -84 -90q-43 -51 -108 -144q14 -3 40.5 -8t41 -8t36.5 -6t35 -3t28 1.5t25 7.5t16 15l5 -4q-21 -74 -136 -57q-34 5 -116 26l-68.5 -98.5l-61.5 -81.5t-74 -84.5t-69 -56.5q-50 -35 -117.5 -49t-143.5 2q-28 5 -59 20q-50 26 -94 78l6 6q42 -52 92 -77
q41 -21 101 -27q122 0 255 156q51 59 168 228q-81 17 -117 -2l-4 3q41 37 141 29l20 28q99 139 169 201l19 17l-17 6.5t-18 7.5l-57 23q-296 119 -515 11q-137 -68 -205 -205q-63 -126 -36 -238q26 -107 122 -140q40 -13 89 -11q67 1 130 53q63 50 78 116zM939 578l33 -12
q156 -57 216 -50q41 4 65 22q17 16 21 29q5 16 -1 32q-7 17 -29 34q-46 29 -118 32h-8q-91 -8 -179 -87z" />
    <glyph glyph-name="G" unicode="G" horiz-adv-x="1179" 
d="M317 -244q-16 5 -29 12q-51 26 -95 79l6 5q45 -53 92 -77q41 -21 106 -27q74 3 142 55.5t141 146.5l78 110q8 9 15 21q-73 -18 -131 -7q-120 22 -111 126q9 109 150 257q47 49 103 96l42 33l-64 25q-170 68 -255 77q-211 21 -351 -114q-102 -100 -126 -239
q-23 -130 36 -211q54 -74 159 -69q67 1 130 53q63 51 78 116l8 -2q-17 -69 -81 -120q-66 -53 -135 -56q-135 -5 -193 99q-53 95 -19 226q37 143 152 234q141 111 342 91q85 -9 258 -78l69 -27q101 72 190 90q72 15 109 -2.5t34 -51.5v-4q-4 -42 -51 -67q-43 -23 -102 -20
q-4 1 -11 1q-51 5 -118 27q-8 -6 -50 -41q-164 -145 -219 -272q-50 -117 24 -155q27 -14 69 -15q29 -1 71 10l54.5 77.5t60.5 77t72 72.5t61 29q35 4 45 -21q15 -35 -43.5 -96.5t-148.5 -106.5l-58 -80l-66 -93q-82 -107 -154 -155q-54 -37 -129 -50.5t-157 11.5zM1159 628
q0 24 -22 37q-30 16 -93.5 -5.5t-150.5 -89.5q60 -20 111 -25q2 0 5.5 -0.5t4.5 -0.5q55 -3 98 19q43 23 47 61v4zM891 137q32 17 66 41q52 39 85 80t28 61q-5 12 -15 10t-19 -11q-41 -36 -145 -181z" />
    <glyph glyph-name="H" unicode="H" horiz-adv-x="1185" 
d="M613 337h38q117 167 193 237q45 39 92 60l-63 10q-233 39 -371 45q-216 9 -354 -132q-102 -104 -122 -243q-17 -129 47 -207q56 -68 158 -64q67 3 130 54q63 50 78 116l8 -2q-15 -67 -81 -120q-63 -53 -135 -56q-137 -5 -197 99q-55 95 -22 226q36 143 154 236
q137 109 336 101q139 -6 372 -45l75 -12q91 36 166 29q18 -1 25.5 -12t-7.5 -25q-24 -20 -87 -13q-25 1 -52 6q-67 -38 -128.5 -108.5t-137.5 -179.5h254q117 167 193 237q56 50 129 75t142 20h5q28 -4 41 -7q1 0 2.5 -0.5t2.5 -0.5q25 -6 47 -15l-3 -8q-23 11 -46 15
q-18 4 -50 8q-8 0 -26 -2q-74 -11 -147 -70.5t-135.5 -144l-121.5 -171.5t-127 -171t-129 -125q-46 -32 -112.5 -47.5t-130.5 -4.5l1 7q127 -16 259 128q58 63 177 235l20 29h-254l-35 -50.5l-36.5 -53l-34 -47t-37 -49l-34.5 -42t-38 -42t-36.5 -33t-39.5 -30.5
q-34 -23 -79 -38t-98.5 -18.5t-103.5 14.5q-18 6 -36 15q-50 24 -95 78l6 6q45 -53 92 -77q42 -21 99 -27q121 1 250 150q50 58 169 229q5 8 10 15h-34zM1006 631q14 -2 40 -4q4 -1 10 -1q52 -4 72 12q4 4 6 9q1 2 -1 6q-6 10 -45 6q-39 -6 -82 -28z" />
    <glyph glyph-name="I" unicode="I" horiz-adv-x="877" 
d="M1115 671q18 -1 25.5 -12t-7.5 -25q-24 -20 -87 -13h-1q-24 1 -51 6q-59 -34 -120.5 -100.5t-114.5 -143l-105.5 -153t-111.5 -145.5t-114 -106q-46 -32 -112.5 -47.5t-130.5 -4.5q-43 8 -79 25q-48 23 -94 78l6 6q42 -52 92 -77q42 -21 98 -27q59 -1 118.5 32.5
t108 87.5t103 126t99.5 141t101 140.5t106 116.5q45 39 92 60l-64 10q-230 39 -370 45q-216 9 -354 -132q-102 -104 -122 -243q-17 -129 47 -207q56 -68 158 -64q67 3 130 54q63 50 78 116l8 -2q-17 -69 -81 -120q-63 -53 -135 -56q-137 -5 -197 99q-55 95 -22 226
q36 143 154 236q137 109 336 101q139 -6 372 -45l75 -12q91 36 166 29zM1006 633q14 -2 40 -4q4 -1 10 -1q52 -4 72 12q4 4 6 9q0 4 -1 6q-6 10 -45 6q-39 -6 -82 -28z" />
    <glyph glyph-name="J" unicode="J" horiz-adv-x="835" 
d="M1117 672q18 -1 25.5 -12t-7.5 -25q-24 -20 -87 -13h-1q-24 2 -51 6q-67 -39 -129.5 -110.5t-139.5 -182.5l-200 -283q-69 -99 -123.5 -163.5t-111.5 -103.5q-42 -28 -100.5 -44t-116.5 -11q-65 6 -109 29q-47 23 -95 78l6 5q45 -52 93 -76q45 -23 101 -27q45 -1 90 18.5
t80.5 47t80 79t73.5 91l75 105.5l209 297q94 133 167 200q45 39 92 60l-63 10q-233 39 -371 45q-216 9 -354 -132q-102 -104 -122 -243q-17 -129 47 -207q56 -68 158 -64q67 3 130 54q63 50 78 116l8 -2q-15 -67 -81 -120q-63 -53 -135 -56q-137 -5 -198 99q-54 95 -22 226
q36 142 154 236q138 109 337 101q139 -6 372 -45l75 -12q91 36 166 29zM1008 634q14 -2 40 -4q4 -1 10 -1q52 -4 72 12q4 5 6 9q1 2 -1 6q-5 9 -45 6q-41 -6 -82 -28z" />
    <glyph glyph-name="K" unicode="K" horiz-adv-x="1166" 
d="M1461 673q76 -3 139 -34q23 -10 42 -25l-5 -6q-17 13 -40 24q-38 17 -70 21q-83 8 -172.5 -37t-197.5 -133l-158 -133q-126 -102 -217 -134q-56 -20 -127 -17q23 -9 57.5 -46.5t67 -78t83.5 -80t104 -52.5q83 -21 165 23l3 -7q-80 -43 -171 -43q-71 0 -121.5 24.5
t-77.5 62.5t-46 76.5t-39 74t-44 48.5h-4q-117 -164 -204 -223q-41 -28 -99 -44t-116 -11q-61 5 -108 28q-50 24 -95 78l6 6q45 -53 92 -77q42 -21 97 -27q71 -2 140.5 43.5t131.5 123.5t118 160.5l123.5 173.5t125.5 143q45 39 92 60l-64 10q-230 39 -370 45
q-216 9 -354 -132q-102 -104 -122 -243q-17 -129 47 -207q56 -68 158 -64q67 3 130 54q63 50 78 116l8 -2q-15 -67 -81 -120q-63 -53 -135 -56q-137 -5 -197 99q-55 95 -22 226q36 143 154 236q137 109 336 101q139 -6 372 -45l75 -12q91 36 166 29q18 -1 25.5 -12t-7.5 -25
q-24 -20 -87 -13h-1q-24 2 -51 6q-31 -18 -64.5 -47t-57.5 -54t-60.5 -73l-53.5 -71t-58 -83l-53 -77q68 9 141.5 52.5t162.5 117.5l139 117q103 84 180 124q89 46 191 41zM1006 632q14 -2 40 -4q4 -1 10 -1q52 -4 72 12q4 5 6 9q0 4 -1 6q-5 9 -45 6q-39 -6 -82 -28z" />
    <glyph glyph-name="L" unicode="L" horiz-adv-x="837" 
d="M701 0q42 -16 49 -57q3 -24 -10 -45q-15 -23 -39 -35t-55 -10.5t-59 5.5t-65.5 18.5t-60 24t-57.5 26l-43 20.5q-48 -16 -93.5 -20.5t-71.5 -1t-39 10.5q-19 11 -25 27q-5 16 1 30q9 16 25 21q43 15 186 -37q61 39 129.5 121t121.5 162.5t122 173t127 144.5q45 39 92 60
l-64 10q-230 39 -370 45q-216 9 -354 -132q-102 -104 -122 -243q-17 -129 47 -207q56 -68 158 -64q67 3 130 54q63 50 78 116l8 -2q-15 -67 -81 -120q-63 -53 -135 -56q-137 -5 -197 99q-55 95 -22 226q36 143 154 236q137 109 336 101q139 -6 372 -45l75 -12q20 9 58 18
t80.5 13t53.5 -14q7 -13 -8 -25q-24 -20 -87 -13h-1q-24 1 -51 6q-59 -34 -120.5 -100.5t-114.5 -143l-105.5 -153t-111.5 -145.5t-114 -106q-17 -13 -37 -21l2 -1q177 -65 237 -76q81 -14 102 20q11 17 10 39q-5 38 -44 50l1 4zM323 -36q-125 56 -162 43q-15 -5 -20 -18
q-6 -10 -1 -23q5 -16 21 -23q32 -13 82.5 -6t79.5 27zM1006 635q14 -2 40 -4q4 -1 10 -1q52 -4 72 12q4 4 6 9q0 4 -1 6q-5 9 -45 6q-39 -6 -82 -28z" />
    <glyph glyph-name="M" unicode="M" horiz-adv-x="1339" 
d="M949 644q18 7 47.5 15.5t62.5 14.5t57.5 2t26.5 -21q1 -9 -10 -19q-24 -20 -87 -13h-1q-24 1 -51 6q-59 -34 -120.5 -100.5t-114.5 -143l-105.5 -153t-111.5 -145.5t-114 -106q-95 -65 -214 -55h-5q-5 0 -13 2q-51 6 -91 26q-48 23 -94 78l6 6q42 -52 92 -77
q40 -21 97 -27q60 -2 120 32t108.5 87.5t102.5 126t99.5 141t101.5 140.5t106 117q45 39 92 60l-64 10q-230 39 -370 45q-216 9 -354 -132q-102 -104 -122 -243q-17 -129 47 -207q56 -68 158 -64q67 3 130 54q63 50 78 116l8 -2q-15 -67 -81 -120q-63 -53 -135 -56
q-137 -5 -197 99q-55 95 -22 226q36 143 154 236q137 109 336 101q139 -6 372 -45zM1691 663q16 -3 39 -13l-3 -8q-21 10 -45 15q-26 7 -50 8q-9 0 -25 -2q-74 -11 -147 -70.5t-135.5 -144l-121.5 -171.5t-127 -171t-129 -125q-48 -32 -114.5 -48t-131.5 -3l2 6
q63 -9 125 21t112.5 83t106.5 127t102.5 145t104.5 145.5t109 120.5l25 20q-105 -57 -229.5 -151t-223.5 -188l-79 -79q-18 -74 -34 -101q-17 -30 -35 -20q-3 2 -7 8q-8 20 35 76q15 20 34 40l26 108q20 89 32.5 137.5t35 108t45.5 82.5l6 -5q-22 -22 -44 -81t-34.5 -108
t-32.5 -136q-19 -79 -23 -93q57 57 70 69q143 135 318 256t280 142q51 13 104 10h5q31 -3 54 -10zM1006 635q14 -2 40 -4q4 -1 11 -1q51 -4 71 12q4 4 6 9q0 4 -1 6q-5 9 -45 6q-39 -6 -82 -28zM845 166q-10 -10 -24 -28q-40 -52 -33 -68l3 -3q11 -7 24 16q14 25 30 83z" />
    <glyph glyph-name="N" unicode="N" horiz-adv-x="1272" 
d="M1115 670q18 -1 25.5 -12t-7.5 -25q-24 -20 -87 -13h-1q-24 2 -51 6q-59 -34 -120.5 -100.5t-114.5 -143l-105.5 -153t-111.5 -145.5t-114 -106q-53 -36 -124.5 -49.5t-151.5 6.5q-23 7 -42 16q-48 23 -94 78l6 6q42 -52 92 -77q42 -21 99 -27q70 0 138.5 47t129.5 124.5
t116.5 159.5t122.5 171.5t124 141.5q45 39 92 60l-64 10q-230 39 -370 45q-216 9 -354 -132q-102 -104 -122 -243q-17 -129 47 -207q56 -68 158 -64q67 3 130 54q63 50 78 116l8 -2q-15 -67 -81 -120q-63 -53 -135 -56q-137 -5 -197 99q-55 95 -22 226q36 143 154 236
q137 109 336 101q139 -6 372 -45l75 -12q91 36 166 29zM1546 670q34 -4 51 -8q23 -5 47 -15l-3 -8q-23 11 -46 15q-16 4 -50 8q-10 0 -30 -2q-74 -11 -147.5 -70.5t-136 -144l-121.5 -171.5t-127 -171t-129 -125q-43 -30 -104.5 -46t-122.5 -8h-5v1q-4 0 -14 2l1 6
q5 -1 14 -1q44 -4 91 16q31 13 56 33q42 31 71.5 77.5t48.5 112t27.5 108.5t20.5 120q10 63 16 95t18.5 69t28.5 53l6 -5q-16 -16 -28 -52t-17.5 -67.5t-15.5 -94.5q-9 -58 -14.5 -89t-18.5 -86t-27 -89.5t-37.5 -74t-52.5 -66.5q56 43 121 124t115.5 158t116 164t121.5 137
q57 51 131.5 75.5t144.5 19.5zM1006 632q14 -2 40 -4q4 -1 10 -1q52 -4 72 12q4 5 6 9q0 4 -1 6q-6 10 -45 6q-39 -6 -82 -28z" />
    <glyph glyph-name="O" unicode="O" horiz-adv-x="1165" 
d="M441 212q-17 -69 -81 -120q-66 -53 -135 -56q-135 -5 -193 99q-53 95 -19 226q37 143 152 234q141 111 342 91q85 -9 258 -78l69 -27q101 72 190 90q71 15 108 -2.5t35 -51.5v-4q-4 -42 -51 -67l-8 -3q6 -21 6 -44q0 -81 -60 -196q-59 -111 -144 -204
q-184 -204 -342 -176q-30 5 -53 22q-37 28 -40 85t25 128t75 146.5t113.5 147.5t137.5 124l-64 25q-170 68 -255 77q-212 20 -352 -117q-103 -100 -127 -239q-22 -130 38 -210q54 -73 159 -67q67 1 130 53q63 51 78 116zM868 560q-139 -113 -238.5 -280.5t-88.5 -267.5
q11 -84 100 -81q115 12 263 173q90 99 143 203q59 110 59 192q0 19 -5 41q-37 -16 -87 -14q-4 1 -11 1h-1q-53 6 -134 33zM1099 547q-9 25 -27 41l5 6q19 -17 29 -44l6 3q28 15 39 36q8 14 8 28v1q3 26 -28 43t-87 0q-80 -25 -169 -95q71 -24 129 -31q2 0 5.5 -0.5t4.5 -0.5
q45 -3 85 13z" />
    <glyph glyph-name="P" unicode="P" horiz-adv-x="1158" 
d="M1198 652l2 -2q-9 3 -27 7l-22 3q-106 12 -211 -73q36 -30 62 -71q38 -60 45 -133q3 -38 -10 -78q-21 -64 -75 -109q-62 -52 -149 -60q-83 -8 -184 26l2 7q64 -24 127 -21t113.5 25.5t83 77.5t36.5 134q6 98 -76 180q-57 -52 -124.5 -142t-118.5 -168.5t-117.5 -158
t-125.5 -119.5q-48 -33 -118 -48.5t-136 -0.5q-38 8 -67 23q-47 23 -95 78l7 5q42 -51 91 -76q40 -20 102 -27q59 0 118.5 34t107.5 88t102 126t99 140t101 139.5t105 115.5q5 5 30 25q-118 87 -286 91q-113 3 -213 -23q-194 -54 -291 -203q-77 -119 -61 -241
q15 -110 97 -156q48 -26 111 -23q67 3 129 53q64 53 79 117l8 -2q-17 -68 -81 -121q-65 -52 -135 -55q-129 -5 -193 91q-59 89 -31 213q31 142 159 239q87 66 207 96q210 52 404 -6q66 -20 120 -53q1 0 1 -0.5t1 -0.5q50 31 98 42q105 23 191 5q25 -6 46 -16l-3 -7
q-11 5 -35 13zM1203 649q-1 0 -3 1h1q1 -1 2 -1z" />
    <glyph glyph-name="Q" unicode="Q" horiz-adv-x="1098" 
d="M654 36q57 43 111 101t97.5 119t76 124t48 116.5t12.5 97t-29 65.5q-23 20 -54.5 21.5t-63.5 -13t-58 -31t-50 -37.5q2 -2 3 -2q23 -26 37 -50q35 -62 31 -132q-3 -61 -37 -118q-59 -99 -124 -104q-32 -2 -55 20q-23 23 -29 62q-10 60 22 137q34 78 103 151q26 26 38 36
q-23 22 -55 42q-74 44 -171 50q-212 11 -352 -127q-103 -101 -127 -238q-22 -128 39 -205q54 -69 158 -64q67 3 130 54q63 50 78 116l8 -2q-15 -67 -81 -120q-65 -53 -134 -56q-138 -5 -196 99q-52 93 -16 223q39 140 158 231q140 108 336 96q96 -4 174 -50q29 -16 57 -43
q121 103 233 83q105 -19 91 -143q-14 -125 -131 -286q-110 -152 -245 -242q148 -111 252 -110q49 0 68.5 28.5t-6.5 66.5l6 4q23 -30 15 -65q-5 -24 -23 -36q-21 -16 -55 -16q-64 -1 -136.5 35.5t-130.5 84.5q-1 0 -52.5 -26.5t-63.5 -30.5q-22 -7 -44 -12q-105 -22 -136 20
q-10 13 -10 31q1 17 12 33q24 40 77 52q44 11 87 4q42 -7 107 -44zM777 543q-15 25 -35 47l-4 4l-37 -36q-55 -59 -88 -122q-47 -89 -35 -159q6 -38 26 -58t49 -18q63 5 118 100q32 53 37 115q3 67 -31 127zM496 -50q73 23 150 80q-57 34 -100 42q-21 3 -41 3q-26 -2 -43 -7
q-46 -10 -70 -45l-3 -4q-8 -12 -10 -28q0 -15 8 -26q30 -39 109 -15z" />
    <glyph glyph-name="R" unicode="R" horiz-adv-x="1152" 
d="M901 614q133 80 275 47q25 -6 46 -16l-3 -7q-15 8 -45 15q-16 4 -50 8q-91 0 -184 -75q36 -30 62 -71q38 -60 45 -133q3 -30 -9 -65q-24 -70 -88 -121q-73 -60 -174 -70q-71 -6 -145 13q20 -13 59.5 -51.5l73.5 -69t89.5 -57t115.5 -28.5q53 -2 109 24l2 -2
q-71 -41 -165 -41q-69 0 -118.5 19t-76.5 49.5t-45.5 61.5l-37.5 61t-40 43l-1 1q-90 -121 -167 -173q-51 -34 -118.5 -48t-144.5 2q-28 6 -57 20q-48 23 -94 78l6 5q45 -53 92 -76q40 -21 101 -27q59 0 118 34.5t107 88t102 125.5t99 140t101 139.5t105 115.5q18 16 28 23
q-60 45 -140.5 69t-163.5 24q-97 1 -193 -23q-193 -51 -289 -200q-76 -118 -60 -241q14 -110 95 -157q48 -27 110 -25q67 3 130 53q63 53 78 117l8 -2q-17 -68 -81 -121q-63 -52 -135 -55q-129 -5 -193 91q-59 89 -32 213q32 141 159 238q88 67 208 97q210 52 404 -6
q67 -20 120 -53zM602 155q52 -16 105.5 -17t102 14t87.5 44t63 77t26 108q4 102 -73 181q-50 -47 -101 -112.5t-115.5 -160t-94.5 -134.5z" />
    <glyph glyph-name="S" unicode="S" horiz-adv-x="1004" 
d="M938 547q-20 -50 -46.5 -165t-42.5 -163q-50 -144 -137.5 -216t-170.5 -67q-34 3 -61 18q-60 35 -64 107q0 47 26 96q48 91 146.5 138.5t195.5 20.5l-2 -8q-95 27 -190.5 -19.5t-140.5 -136.5q-22 -44 -24 -83t23.5 -66t77.5 -28q67 6 136 68t112 176q12 33 35.5 106.5
t45 131t46.5 100.5q-42 13 -141 52q-170 68 -255 77q-212 20 -352 -117q-103 -100 -127 -239q-22 -130 38 -210q54 -73 159 -67q67 1 130 53q63 51 78 116l7 -2q-16 -68 -80 -120q-66 -53 -135 -56q-135 -5 -193 99q-53 95 -19 226q37 143 152 234q141 111 342 91
q85 -9 258 -78q99 -39 142 -52q27 44 75 78t99.5 42.5t94.5 -21.5q17 -13 24 -35q6 -17 -1 -39q-10 -31 -42 -50q-60 -35 -219 8zM942 554q155 -40 211 -8q29 18 39 45q5 21 0 35q-5 18 -20 30q-56 37 -129 0.5t-101 -102.5z" />
    <glyph glyph-name="T" unicode="T" horiz-adv-x="850" 
d="M457 214q-15 -67 -81 -120q-65 -54 -135 -55q-146 -5 -208 100q-55 93 -19 224q38 141 158 234q172 133 423 94q94 -15 194 -54q4 -2 24.5 -10l32.5 -13l40 -16q108 82 240 74q79 -3 122 -34q22 -15 32 -37q8 -20 2 -38q-6 -19 -24 -32q-28 -20 -69 -24q-66 -8 -257 64
q-57 -52 -125 -142t-119.5 -169t-119 -159.5t-126.5 -120.5q-35 -24 -81 -39t-101 -17.5t-105 17.5q-13 4 -30 12q-50 26 -94 78l6 6q42 -52 92 -77q41 -21 100 -27q69 1 137.5 48t129.5 124.5t116.5 159t122.5 171t124 140.5l19 17l-17 6.5t-18 7.5l-57 23
q-296 119 -515 11q-137 -68 -205 -205q-63 -126 -36 -238q26 -107 122 -140q40 -13 89 -11q67 1 130 53q63 50 78 116zM939 577q182 -69 249 -62q41 4 65 22q17 16 21 29q5 17 -2 32q-5 16 -28 34h-1q-42 29 -117 32q-93 -4 -187 -87z" />
    <glyph glyph-name="U" unicode="U" horiz-adv-x="1145" 
d="M1373 662q88 7 156 -23l-3 -7q-79 35 -152 16q-79 -19 -151 -87.5t-154 -181.5l-28 -38.5l-36.5 -50l-38.5 -55t-38 -61l-31.5 -60.5t-22 -60t-6 -53t12 -46.5t36.5 -33.5l-1 -3q-58 -3 -87 18t-29 61t17.5 88t50.5 107q-114 -143 -193 -209t-152 -61q-27 2 -41.5 15.5
t-15 37t3.5 49t16.5 58t22.5 55.5t24 51t17 36l7 16q67 159 63 267q-2 70 -36.5 115t-86.5 60t-112 10t-116 -29q-126 -54 -196 -193q-64 -129 -47 -254q17 -122 106 -163q39 -18 89 -16q68 3 129 53q62 51 79 116l3 -1h4q-15 -66 -81 -121q-63 -52 -134 -55
q-134 -5 -191 105q-51 100 -16 239q36 148 145 239q48 40 105 62q61 23 123.5 26.5t118.5 -13.5t99.5 -60.5t62.5 -108.5q13 -47 14.5 -89.5t-12.5 -90.5t-25.5 -77.5t-41 -92.5l-43.5 -94q-52 -121 6 -130q30 -4 71.5 22t91 79t92.5 106l97 124q61 94 145 195q32 41 48 56
l40 41q94 85 222 95z" />
    <glyph glyph-name="V" unicode="V" horiz-adv-x="1017" 
d="M369 20l1 3q70 11 143.5 134.5t107 276t1.5 237.5q-19 51 -62 78.5t-94.5 30.5t-103.5 -7.5t-97 -31.5q-129 -62 -197 -202q-62 -129 -40 -248q21 -115 112 -149q37 -13 82 -11q69 3 130 53q63 51 78 116l4 -1h4q-17 -68 -81 -121q-63 -52 -135 -55q-135 -5 -192 102
q-52 98 -16 233q37 145 151 237q46 37 100 60q68 28 140 34t142.5 -19.5t110.5 -85.5q36 -50 43 -122.5t-10.5 -145.5t-51.5 -146t-77.5 -128.5t-93 -89.5t-92.5 -31q40 -8 83 -2q74 11 147 70.5t136 144l122 171.5t127 171t129 125q39 27 89.5 43.5t113.5 16t114 -27.5
l-3 -7q-49 22 -97 22.5t-90.5 -19.5t-83 -53t-79.5 -79.5t-75.5 -96l-75 -106l-74 -106.5t-77 -100t-79.5 -84q-70 -63 -165.5 -86t-168.5 2z" />
    <glyph glyph-name="W" unicode="W" horiz-adv-x="1252" 
d="M436 207q-15 -66 -81 -121q-63 -52 -134 -55q-134 -5 -190 105q-52 100 -17 239q36 146 144 237q91 76 209 87q192 19 269 -103q37 -59 38.5 -145t-26.5 -171t-81 -164.5t-120 -129.5q80 45 173.5 125.5t170.5 166.5q34 37 57 67q25 109 40 134q14 24 30 15q4 -2 8 -8
q12 -23 -27 -84q-17 -29 -44 -61l-3 -15q-18 -75 -28.5 -115t-32 -104.5t-48 -105.5t-58.5 -63q67 23 134.5 86.5t126 145l114.5 163.5t120 159.5t122 116.5q67 45 155 55t160 -23l-3 -7l-14 6q-43 18 -85 18t-78.5 -15t-74 -43.5t-70.5 -65t-68 -81t-66.5 -90.5l-66 -96
l-66 -94t-68.5 -87t-71 -74q-61 -54 -141 -78.5t-153 -14.5l1 6q32 0 50 3l12 3q26 9 48 31t40.5 57t32 66.5t27.5 81t21.5 79.5l19.5 81q-15 -19 -47 -55q-98 -108 -216 -203t-204 -125l-6 -2q-47 -20 -96 -21v4q62 19 144.5 106t130.5 196q103 234 55 358
q-49 124 -235 106q-159 -17 -259 -157q-83 -116 -88 -254q-5 -134 68 -199q51 -45 129 -42q69 3 130 53q65 53 78 117zM860 360q17 23 32 46q36 56 27 76q-2 3 -5 5q-9 5 -19 -12q-14 -25 -35 -115z" />
    <glyph glyph-name="X" unicode="X" horiz-adv-x="908" 
d="M837 -18l1 -10q-44 -19 -78 -21t-57.5 13.5t-39.5 40t-25 63t-13.5 77.5t-6.5 88q-52 -57 -94.5 -98.5t-93 -81.5t-94.5 -62t-95.5 -33.5t-99.5 -2.5t-102 38.5t-109 81.5l6 5q62 -60 123 -90t119.5 -29t111 18.5t111 61.5t107 90t109.5 113q-1 54 2 158.5t0 106.5
q-8 68 -43.5 112.5t-86 60t-108 11.5t-113.5 -28q-126 -54 -196 -193q-64 -129 -47 -254q16 -122 105 -163q39 -18 89 -16q67 1 130 53q63 51 78 116l8 -2q-17 -69 -81 -120q-65 -54 -135 -55q-134 -5 -190 104q-52 99 -18 238q36 147 145 238q49 42 107 64q61 24 125 27
t120.5 -13.5t99.5 -60.5t58 -109q4 -16 5.5 -44.5t2.5 -84.5t2 -81l16 19q156 176 233 243q176 155 317 130q47 -8 93 -35l-4 -7q-36 21 -73.5 29.5t-70 8t-72 -16t-69 -30.5t-71 -48.5t-68.5 -57.5t-71 -70l-68 -72.5l-70 -78.5q-4 -5 -12.5 -14.5t-9.5 -10.5q1 -30 2 -54
t3.5 -52t5.5 -50.5t8 -46t11.5 -40.5t15.5 -33t20.5 -26t25.5 -16t31.5 -5.5t37.5 7.5z" />
    <glyph glyph-name="Y" unicode="Y" horiz-adv-x="1172" 
d="M1423 662v1q18 -2 52 -8q25 -6 46 -16l-3 -7q-21 9 -45 15q-17 4 -51 8q-14 0 -28 -3q-89 -13 -169 -88t-171 -205l-229 -326q-135 -194 -228 -257t-210 -56q-64 6 -109 28q-49 25 -94 79l6 5q43 -51 92 -76q35 -19 93 -27q49 -1 96.5 19.5t93 62.5t82.5 86.5t84 109.5
l95 137q-99 -123 -166.5 -174.5t-136.5 -47.5q-27 2 -41.5 16t-15.5 37.5t3.5 48.5t17 57.5t23 56l23.5 51.5t17 36q74 169 70 283q-2 68 -35.5 112.5t-84.5 60t-109.5 11.5t-114.5 -26q-128 -52 -199 -191q-66 -128 -50 -255q15 -124 102 -166q40 -19 91 -17q69 3 130 53
q63 52 78 117l8 -2q-15 -66 -81 -121q-63 -52 -134 -55q-134 -5 -190 105q-52 100 -17 239q36 146 145 238q52 44 114 66q61 22 122 24t115.5 -15t97 -60t60.5 -108q49 -139 -52 -334q-64 -124 -76 -167q-17 -67 26 -73q95 -13 349 327l66 94q101 142 169 202
q56 51 129.5 75.5t143.5 19.5z" />
    <glyph glyph-name="Z" unicode="Z" horiz-adv-x="957" 
d="M490 -237v-1q-39 -19 -77 -26q-31 -7 -75 -9q-78 -1 -131 38q-30 23 -45 56q-14 34 -7 62q6 31 33 50l4 -6q-24 -18 -30 -45q-7 -29 7 -58q16 -37 49.5 -56.5t70.5 -20t77 6.5l12 3h1q149 41 250 201q85 132 95 271q9 126 -53 168q-32 22 -79 14l3 12q83 10 170 90
q109 101 147 125l-39 6q-233 39 -371 45q-216 9 -354 -131q-101 -104 -121 -243q-18 -129 45 -207q56 -69 159 -65q67 3 130 54q64 51 78 116l5 -1l3 -1q-15 -67 -81 -120q-63 -53 -134 -56q-138 -5 -198 99q-55 95 -22 226q36 143 154 236q138 109 337 101q138 -6 371 -45
l48 -8q51 30 108 37.5t76 -2.5q9 -3 16.5 -6t14.5 -11t5 -17q-1 -6 -8 -13q-26 -20 -88 -13q-40 4 -60 7q-21 -13 -80 -64.5t-118 -91.5q-52 -37 -122 -50q58 -16 85.5 -76.5t19 -142.5t-40.5 -167t-96 -160t-144 -111zM997 633q2 -1 6 -1q27 -4 44 -5q59 -7 81 11q6 4 6 9
q3 29 -100 -1q-28 -8 -37 -13z" />
    <glyph glyph-name="bracketleft" unicode="[" horiz-adv-x="414" 
d="M-113 -153q73 102 302.5 451t260.5 400h164l-9 -12h-89l-544 -826h84l-9 -13h-160z" />
    <glyph glyph-name="backslash" unicode="\" horiz-adv-x="415" 
d="M39 680l73 1l190 -792h-49q-107 417 -214 791z" />
    <glyph glyph-name="bracketright" unicode="]" horiz-adv-x="526" 
d="M614 698q-73 -102 -302.5 -451t-260.5 -400h-164l9 12h89l544 826h-84l9 13h160z" />
    <glyph glyph-name="asciicircum" unicode="^" horiz-adv-x="381" 
d="M263 353l-63 133l-119 -133h-75l215 241l114 -241h-72z" />
    <glyph glyph-name="underscore" unicode="_" horiz-adv-x="593" 
d="M106 -68h402q-15 -15 -39 -47h-403z" />
    <glyph glyph-name="grave" unicode="`" horiz-adv-x="213" 
d="M151 578h-17l-58 63l54 -1z" />
    <glyph glyph-name="a" unicode="a" 
d="M284 411l66 -1q-90 -123 -124 -179q-59 -97 -47 -138q11 -39 68 0q23 15 45 33.5t45.5 43l38 40l42 47l37.5 42.5l6 -5q-141 -172 -232 -223q-55 -32 -90 -7.5t-17 88.5q-38 -41 -67 -62q-50 -36 -92 -30q-63 9 -49.5 88t83.5 161q81 93 159 95q12 0 23 -2q29 -5 37 -38
q5 -15 3 -34q0 -6 -1 -9zM204 301q7 17 7 29v13q-1 25 -10 33.5t-34 2.5q-34 -9 -74 -44t-70 -84q-55 -93 -50 -152q4 -55 78 -3q34 25 78 76q11 29 29 59z" />
    <glyph glyph-name="b" unicode="b" horiz-adv-x="447" 
d="M263 674h66l-233 -320q11 10 25 19q49 38 92 31q31 -5 43.5 -28.5t7 -56.5t-23.5 -71.5t-45 -74.5q22 -6 44 -5.5t39.5 4t38.5 15t33 19t31.5 25.5l25.5 23.5t23 25.5l18 19l4 -2l3 -2l-11 -13l-16 -17.5l-19 -20t-23.5 -22l-26 -20.5t-30 -19.5t-32 -14t-35 -10
t-36.5 -1.5t-39 7q-43 -53 -93.5 -82.5t-96.5 -20.5q-27 5 -37 38q-5 15 -3 34q1 19 23 61l-99 -136h-68zM132 191q-14 6 -9 17q5 12 20 1l3 -3l2 -2l5 8q55 92 50 152q-4 55 -78 3q-29 -22 -60 -56l-58 -79h1q-4 -8 -16.5 -31t-19 -38.5t-7.5 -29.5v-13q2 -25 11 -33t33 -2
q29 7 64 35t64 68z" />
    <glyph glyph-name="c" unicode="c" horiz-adv-x="366" 
d="M222 318q-4 -11 -13.5 -20t-18.5 -4q-7 6 -4.5 18t12 22t16.5 6q6 -3 5 -14q10 36 -18 48q-41 16 -104 -39q-32 -28 -64 -71q-44 -61 -44.5 -114.5t40.5 -68.5q116 -43 337 218l8 -4q-28 -35 -62 -70.5t-79.5 -75.5t-94 -65t-88.5 -25q-51 0 -82.5 31t-32 76.5t28.5 97.5
q62 99 153 131q68 24 100 -5q26 -24 5 -72z" />
    <glyph glyph-name="d" unicode="d" horiz-adv-x="455" 
d="M473 673h67q-179 -250 -221 -304q-67 -94 -94 -139q-58 -95 -46 -137q11 -42 69 -2q38 25 95.5 83t111.5 125l7 -5q-138 -168 -230 -224q-54 -34 -91.5 -8.5t-19.5 89.5q-35 -40 -66 -62q-50 -36 -92 -30q-63 10 -50 89q14 79 84 161q81 93 159 95q12 0 23 -2
q29 -5 37 -39q4 -15 3 -34q0 -5 -1 -8l39 55q5 6 109.5 150.5t106.5 146.5zM204 302q7 16 7 27v14q-1 25 -10 33.5t-34 1.5q-34 -9 -74 -43.5t-70 -83.5q-55 -94 -50 -153q4 -57 78 -2q30 21 77 75q9 24 30 59q7 13 46 72z" />
    <glyph glyph-name="e" unicode="e" horiz-adv-x="366" 
d="M229 365q14 -68 -77 -108q-51 -22 -120 -27q-4 0 -11 -0.5t-10 -1.5q-27 -51 -22 -92t40 -55q16 -6 34 -6.5t36 5t36.5 13.5t38 21.5t36.5 26.5t36 31l34 32.5t32.5 33.5t28.5 32l25 29l8 -4q-198 -240 -324 -236q-78 -4 -105.5 63t19.5 142q63 99 154 131q67 22 98 -7
q10 -9 13 -23zM15 236q3 1 7 1h9q71 7 118 27q86 40 69 96q-8 26 -50 15q-66 -18 -134 -111q-6 -7 -14 -21z" />
    <glyph glyph-name="f" unicode="f" horiz-adv-x="288" 
d="M555 632q-35 11 -69.5 12t-65 -6t-61.5 -24t-58 -37.5t-56 -50t-53.5 -58.5t-51.5 -66h93v-6h-97l-87 -123l-176 -233q-60 -84 -110 -141t-101 -92q-40 -27 -93 -42.5t-117.5 -11.5t-116.5 35l1 1q47 -24 91.5 -28.5t86 11.5t78 40t76 67.5t70 82.5t70.5 95l170 225
q57 82 81 114h-77v6h81q73 98 135 155q97 88 230 95q26 2 67.5 -3t61.5 -13z" />
    <glyph glyph-name="g" unicode="g" horiz-adv-x="448" 
d="M219 298l81 113h67l-240 -344q223 106 322 233l6 -6q-106 -139 -338 -241l-23 -34q-33 -56 -87.5 -119t-126.5 -116.5t-128 -57.5q-46 -3 -67 21q-22 25 -1 65q21 41 93.5 91.5t185.5 94.5q52 19 54 20l24 36l48 67l-28 -23q-62 -43 -96 -38q-62 9 -50 89q13 80 82 162
q78 93 155 95q15 0 28 -3q11 -3 19.5 -8t13 -14t7 -15t2.5 -18.5v-17t-2 -18.5zM117 158l54 74h-1l3 3l33 46q5 15 7.5 33.5t1 36.5t-13 26.5t-32.5 1.5q-30 -11 -71.5 -45.5t-72.5 -81.5q-27 -40 -41.5 -84t-10.5 -71q7 -54 95 16q32 25 49 45zM-34 -10
q-112 -43 -183.5 -93t-91.5 -89q-18 -35 0 -56q34 -36 132.5 50.5t184.5 204.5q-7 -3 -21.5 -8.5t-20.5 -8.5z" />
    <glyph glyph-name="h" unicode="h" 
d="M281 309l-48 -76l-37 -57.5t-23 -37.5t-14 -28.5t-1 -16.5q5 -17 21.5 -19.5t32.5 4t29 15.5q38 25 81 65.5t63 62l70 78.5l6 -5q-136 -166 -238 -223q-34 -19 -69.5 -16.5t-49.5 27.5t13 77q0 1 8 13t34 54.5l67 109.5q9 17 2.5 30.5t-20.5 15.5q-22 3 -71 -40t-92 -92
l-90 -106t-50 -61l-25 -27h-68l452 619h66l-399 -548q7 8 35.5 43.5l43.5 53l43.5 50t48.5 51.5l44 40t44.5 31.5t37.5 12.5q25 3 45 -6.5t26 -32.5t-18 -61z" />
    <glyph glyph-name="i" unicode="i" horiz-adv-x="241" 
d="M71 410h66q-87 -118 -124 -180q-58 -94 -47 -137q11 -39 69 -2q33 22 72.5 62t111.5 120l25 27l2 -3l3 -2q-12 -15 -24 -27q-85 -94 -133 -140q-42 -39 -76 -57q-47 -24 -79.5 -12t-33 55t41.5 116q40 66 126 180zM151 484q21 -16 4 -40q-7 -10 -19 -12t-21 4
q-9 7 -10 18.5t6 21.5q20 23 40 8z" />
    <glyph glyph-name="j" unicode="j" horiz-adv-x="219" 
d="M-132 25q-27 -42 -64.5 -89t-84.5 -95t-99.5 -80.5t-96.5 -35.5q-27 -2 -39 4q-48 23 7 89q48 57 145 114q91 52 142 75q3 5 9 13t8 10l15 21l2 3l258 357l66 -1l-241 -347l114 60q124 74 212 177l6 -5q-88 -104 -214 -179q-39 -24 -127 -65zM-516 -258
q31 -17 116.5 66.5t167.5 186.5q-78 -38 -129 -70q-130 -80 -161 -140q-16 -31 6 -43zM146 485q9 -7 10 -18.5t-6 -21.5q-8 -10 -19.5 -12.5t-20.5 4.5q-21 16 -4 40q7 10 19 12t21 -4z" />
    <glyph glyph-name="k" unicode="k" horiz-adv-x="453" 
d="M264 675h66l-399 -548q7 8 35.5 43.5l43.5 53l43.5 50t48.5 51.5l44 40t44.5 31.5t37.5 12.5q39 4 61 -17.5t-1 -60.5l-62 5q10 16 3.5 30.5t-21.5 16.5q-33 4 -123 -90q13 -8 20.5 -41.5t10.5 -69.5t15.5 -69t38 -39.5t77.5 18.5q15 8 30 19.5t35.5 32t33 34.5l42 46.5
l43.5 48.5l24 27l3 -3l3 -2l-25 -27q-101 -113 -132 -141q-38 -35 -76 -56q-52 -26 -98.5 -10.5t-55.5 64.5q-5 27 -1 67t8 60t-2 34q-34 -35 -72.5 -80.5l-67.5 -81.5t-34 -41l-25 -27h-68z" />
    <glyph glyph-name="l" unicode="l" horiz-adv-x="238" 
d="M261 674h66l-220 -304q-57 -78 -94 -139q-58 -95 -47 -138q12 -40 69 -1q23 16 55.5 46.5t52.5 52.5l76 82l24 27l3 -2l3 -3l-24 -27q-96 -105 -133 -139q-42 -39 -76 -57q-48 -24 -80 -12t-32.5 54.5t41.5 116.5q41 65 100 145q5 8 106.5 147.5z" />
    <glyph glyph-name="m" unicode="m" horiz-adv-x="670" 
d="M29 56l196 278q10 17 3.5 32t-20.5 17q-18 2 -52 -24t-74 -69l-74.5 -83l-66.5 -79.5l-36 -44.5l-11.5 -12t-13.5 -15h-68l260 357l67 -1l-208 -285l27 33l32 39.5l33 39.5t36.5 41.5l35.5 37.5t37 35.5t34 27t33.5 20.5t28.5 8q25 3 45.5 -7.5t26.5 -33.5t-20 -60
l-96 -132q80 98 146.5 163t112.5 70q25 3 45 -6.5t26 -32.5t-18 -61l-49 -76l-39.5 -57t-26 -38t-15.5 -28t-2 -17q5 -17 23 -19.5t35.5 4t30.5 15.5q83 55 217 206l7 -5q-48 -59 -115 -125t-125 -98q-34 -19 -71.5 -16.5t-53.5 27.5t11 77q9 15 118 177q10 16 3 30t-21 16
q-22 3 -71 -40t-92 -92l-90.5 -106.5t-50.5 -60.5l-11 -12l-11 -15h-68z" />
    <glyph glyph-name="n" unicode="n" horiz-adv-x="453" 
d="M72 413l67 -1l-167 -230q180 219 254 227q25 3 45 -6.5t26 -32.5t-18 -61l-49 -76l-39.5 -57t-26 -38t-15.5 -28t-2 -17q5 -17 23 -19.5t35.5 4t30.5 15.5q83 55 217 206l7 -5q-145 -169 -242 -223q-34 -19 -71 -16.5t-52.5 27.5t11.5 77q9 15 118 177q10 16 3 30t-21 16
q-22 3 -71 -40t-92 -92l-90.5 -106.5t-50.5 -60.5l-11 -13l-11 -14h-68z" />
    <glyph glyph-name="o" unicode="o" horiz-adv-x="395" 
d="M143 173q22 -6 44 -5.5t39.5 4t38.5 15t33 19t31.5 25.5l25.5 23.5t23 25.5l18 19l4 -2l3 -2l-11 -13l-16 -17.5l-19 -20t-23.5 -22l-26 -20.5t-30 -19.5t-32 -14t-35 -10t-36.5 -1.5t-39 7h-1q-31 -40 -79 -77q-48 -35 -92 -28q-63 10 -50 89q14 79 84 161q81 93 159 95
q12 0 23 -2q10 -1 18 -8q6 -4 9 -12q9 -15 9 -37q0 -15 -3 -31q-13 -65 -61 -127l-10 -14q1 -1 2 0zM145 192q50 72 59 124q2 16 3 32t-9 26t-31 4q-34 -9 -74 -43.5t-70 -83.5q-55 -92 -50 -152q1 -16 9.5 -22t21 -3t24.5 8.5t23 13.5q1 0 10.5 7.5l17.5 14t21.5 20
t26.5 29.5l-1 1q-14 5 -11 14q3 11 18 0q1 -2 3 -3z" />
    <glyph glyph-name="p" unicode="p" horiz-adv-x="447" 
d="M-428 -273l498 682h67l-41 -55q3 2 7.5 6t8.5 7t8 5q47 36 92 31q37 -6 47.5 -37.5t-2.5 -74.5t-42 -89l-21 -30q17 -5 35 -5.5t33 1.5t31.5 9l28.5 12.5t27.5 17l24.5 18.5t23 20.5t19 19l17.5 19t14.5 15.5l4 -2l3 -3q-57 -64 -96 -92q-89 -63 -172 -39q-9 -12 -18 -21
q-91 -98 -173 -82q-29 5 -37 38q-5 15 -3 34q1 17 21 59l-337 -464h-68zM120 166l17 22l-5 3q-14 6 -9 17q5 12 20 1l3 -3v-1l1 -1l5 7q55 94 50 152q-4 55 -78 3q-17 -12 -58 -53q-11 -16 -60 -83q-4 -10 -16 -31.5t-18.5 -37.5t-7.5 -29v-13q1 -25 10 -33.5t34 -1.5
q56 14 112 82z" />
    <glyph glyph-name="q" unicode="q" horiz-adv-x="470" 
d="M299 410h67l-275 -377q52 2 109.5 30t109.5 72.5t89.5 84t71.5 80.5l7 -5q-13 -18 -37 -45.5t-67 -68.5t-87.5 -75t-100 -58.5t-103.5 -25.5l-214 -294h-68l212 290q-24 -2 -27 -3q-28 -7 -30 5q-1 10 14 15q6 2 13 1q2 0 16.5 -1.5l23.5 -2.5l54 74q-6 -6 -20 -16
q-51 -36 -92 -30q-63 9 -50 88t83 160q79 94 158 97q13 0 25 -2q30 -7 37 -39q4 -15 3 -34t-19 -53zM173 238q3 7 12 23t13.5 25t9 21.5t5.5 22.5v13q-2 25 -11 33.5t-33 2.5q-34 -9 -74.5 -43.5t-69.5 -83.5q-56 -93 -51 -153q5 -55 79 -3q20 16 52 48z" />
    <glyph glyph-name="r" unicode="r" horiz-adv-x="332" 
d="M93 489l66 -1l-57 -77q44 -1 126 -1q-90 -122 -124 -180q-59 -96 -47 -137q12 -40 69 -1q73 48 170 164q8 9 24 29q9 10 13 15l7 -5l-22.5 -27l-25 -29.5l-23.5 -27.5t-26 -29l-24.5 -25.5t-27 -26.5l-26 -22t-27.5 -21.5t-27 -16.5q-46 -26 -80 -13.5t-35.5 56.5
t40.5 117q35 57 120 172l-59 1l-99 -120l-8 4q14 18 46.5 56.5t48.5 59.5h-57z" />
    <glyph glyph-name="s" unicode="s" horiz-adv-x="271" 
d="M-66 55q-28 1 -41 20q-7 12 -6 27q0 15 11 31q33 49 131 68q5 22 5.5 65.5t4.5 62.5l-44 -49l-6 6l45 51l8 9q1 3 6.5 32t14.5 48.5t26 31.5q12 9 23 7q12 -2 15 -14q4 -17 -17 -40q-12 -16 -41 -48q-1 -21 9 -70t8 -80q39 9 79 23q73 27 108 64l4 -4l2 -1
q-35 -39 -112 -66q-38 -15 -82 -24q-11 -72 -53.5 -110t-97.5 -40zM29 193q-95 -19 -124 -64q-9 -14 -11 -27q0 -10 3 -16q16 -19 43.5 -7.5t55.5 46.5t33 68z" />
    <glyph glyph-name="t" unicode="t" horiz-adv-x="241" 
d="M151 521h66l-67 -93h96v-5h-100l-39 -54q-57 -78 -94 -139q-58 -95 -47 -138q12 -40 69 -1q23 16 54.5 45.5t54.5 54l75 82.5q12 12 24 27l6 -6l-24 -27q-96 -105 -133 -139q-40 -37 -76 -57q-48 -24 -80 -12t-32.5 54.5t41.5 116.5q41 65 100 145l34 48h-84v5h88
l28.5 38.5l26.5 37t13 17.5z" />
    <glyph glyph-name="u" unicode="u" horiz-adv-x="483" 
d="M313 411l66 -1q-85 -115 -124 -179q-59 -97 -47 -138q12 -40 69 -1q23 15 54.5 44.5t54.5 54.5l75 82l24 27l3 -3l3 -2l-24 -27q-96 -105 -133 -139q-39 -38 -76 -58q-47 -23 -79 -12t-33.5 52.5t37.5 112.5q-52 -58 -92 -95q-41 -39 -76 -58q-47 -24 -79.5 -12t-33 55
t41.5 117q34 56 126 180l66 -1q-90 -123 -124 -179q-58 -95 -47 -138q12 -40 69 -1q22 14 51 41t51.5 51l68.5 75q26 41 108 152z" />
    <glyph glyph-name="v" unicode="v" horiz-adv-x="401" 
d="M81 165q-39 -50 -74.5 -80.5t-53.5 -28.5q-21 2 -28.5 20.5t-3 46t14 54.5t21.5 53l86 182l66 -1l-85 -181q-3 -6 -5.5 -12t-8.5 -19l-11 -24.5t-10.5 -25.5t-9 -26l-6.5 -22t-2.5 -16t4.5 -7q21 -4 97 91q-6 4 -6.5 10.5t5 8.5t14.5 -3l183 232l6 -5l-181 -233
q21 -14 68 -14q50 -1 112.5 29.5t105.5 78.5l24 27l3 -3l3 -2l-24 -27q-56 -63 -143.5 -94.5t-160.5 -8.5z" />
    <glyph glyph-name="w" unicode="w" horiz-adv-x="601" 
d="M70 411l66 -1q-85 -115 -124 -179q-1 -2 -6 -10q-85 -139 -46 -142q12 -1 41.5 27t74 83.5l70.5 88.5l66 86l34 47l67 -1q-82 -108 -125 -179q-58 -96 -46 -138q7 -27 37 -18q30 15 69 51q13 11 39 37l-11 3q-14 6 -10 17q7 11 24 -2q6 -4 9 -5q46 49 84 99l101 138l6 -5
l-101 -138q-41 -55 -82 -97q15 -6 53 -8q51 0 113.5 30t105.5 78l24 27l3 -3l3 -2l-25 -27q-53 -60 -134.5 -91.5t-153.5 -15.5l-29 -29l-2 -2h-1l-2 -2q-44 -42 -71 -57q-13 -7 -23 -9l-7 -3q-39 -10 -62 6t-19.5 60t41.5 106l3 6q-143 -185 -186 -181q-27 3 -37 23
t0.5 59.5t43.5 92.5q38 63 125 180z" />
    <glyph glyph-name="x" unicode="x" horiz-adv-x="377" 
d="M37 229l39 154q-43 -60 -79 -101l-7 5q62 77 93 122v2l67 -1l-35 -142l144 145l6 -6l-154 -154l-6 -26q-16 -65 -15 -103q2 -37 21 -48q23 -9 59 17q19 13 40.5 31t36.5 32t38.5 39.5l32 34.5t33 38t26.5 31l5 -2l3 -2q-145 -175 -233 -224q-32 -16 -60 -16h-1
q-8 0 -18 2q-21 7 -33 34q-9 18 -13 57v22l-111 -112l-6 6l118 118q1 22 9 47z" />
    <glyph glyph-name="y" unicode="y" horiz-adv-x="464" 
d="M110 19q-33 -56 -87.5 -119t-126.5 -116.5t-128 -57.5q-46 -3 -67 21q-22 25 -1 65q21 41 93.5 91.5t185.5 94.5l54 20l24 36h1l113 155q-58 -60 -79 -80q-40 -37 -76 -57q-47 -24 -79.5 -12.5t-33 54.5t41.5 117q29 47 125 180h67q-96 -132 -125 -180q-58 -97 -46 -138
q11 -41 69 -1q50 34 175 172l106 147h67l-241 -346q66 31 112 59q122 72 211 176l7 -5q-87 -103 -214 -178q-58 -34 -125 -64zM-293 -248q34 -36 132.5 50.5t184.5 204.5l-42 -17q-112 -43 -183.5 -93t-91.5 -89q-18 -35 0 -56z" />
    <glyph glyph-name="z" unicode="z" horiz-adv-x="395" 
d="M90 411l201 -1q-8 -8 -55 -50l-80 -74t-66 -77t-39 -79q-4 -25 1.5 -34.5t14.5 -7.5t26.5 6.5t28.5 4.5q17 0 35.5 -6t29.5 -11l11 -4q89 89 197 221l8 -4q-123 -149 -213 -239l-10 4q-10 5 -29 9.5t-37 4.5q-15 0 -38 -6.5t-37 -9.5t-27 4t-18 30q-22 99 221 310h-122
q-12 -14 -44.5 -56.5t-51.5 -63.5l-6 6q18 21 52 64.5l46 58.5h1z" />
    <glyph glyph-name="braceleft" unicode="{" horiz-adv-x="319" 
d="M515 602l-4 -6q-33 5 -63 -12t-48 -38.5t-49.5 -64.5t-51.5 -66q-32 -37 -64.5 -58.5t-53.5 -24.5t-41 -3.5t-28 2.5t-13 -6q-3 -8 8.5 -14.5t24 -16t15 -37t-18.5 -75.5q-74 -170 -88 -210q-44 -128 8 -128h5l-5 -7q-72 -1 -61 112q9 106 73 225q7 14 15 27
q32 59 27 79.5t-20.5 33.5t-12.5 21q7 11 25.5 11.5t39 0t52 22t62.5 70.5q127 197 267 163z" />
    <glyph glyph-name="bar" unicode="|" horiz-adv-x="369" 
d="M238 713h75q-23 -125 -73.5 -448.5t-72.5 -478.5h-50z" />
    <glyph glyph-name="braceright" unicode="}" horiz-adv-x="460" 
d="M-122 -140l4 6q33 -5 63 12t48 38.5t49.5 64.5t51.5 66q32 37 64.5 58.5t53.5 24.5t41 3.5t28 -2.5t13 6q3 8 -8.5 14.5t-24 16t-15 37t18.5 75.5q74 170 88 210q44 128 -8 128h-5l5 7q72 1 61 -112q-9 -106 -73 -225q-7 -14 -15 -27q-32 -59 -27 -79.5t20.5 -33.5
t12.5 -21q-7 -11 -25.5 -11.5t-39 0t-52 -22t-62.5 -70.5q-127 -197 -267 -163z" />
    <glyph glyph-name="asciitilde" unicode="~" horiz-adv-x="621" 
d="M466 376q4 -8 5 -13q-13 -35 -51.5 -47t-86 -7t-95 12t-86.5 2.5t-53 -28.5l-5 13q14 36 53.5 48.5t88 7t96.5 -12.5t85.5 -3t48.5 28z" />
    <glyph glyph-name="sterling" unicode="&#xa3;" horiz-adv-x="761" 
d="M957 779l-14 -22q-33 47 -90 53q-38 4 -81.5 -23.5t-92.5 -87t-89 -115l-96 -139.5q-6 -9 -9 -14h112l-19 -23h-109q-113 -167 -172 -229q-36 -38 -69 -67l61 -25q55 -23 94 -35q47 -15 77.5 -19.5t69.5 5.5t75 42l4 4l9 -9q-125 -116 -286 -56q-40 15 -124 69l-5 3
l-3 -2l-5 -4q-99 -93 -218 -88q-45 3 -70.5 26.5t-9.5 65.5q19 50 77.5 67t110.5 6q40 -8 100 -32q62 64 204 278h-36l19 23h33l55 81l55 78t56.5 74.5l56 64.5t57.5 54.5t56 39t56.5 23.5t54 1.5t54 -20.5t51.5 -48zM-74 27q60 -25 125.5 5.5t116.5 79.5q-35 22 -67 31
q-29 9 -63.5 9.5t-70 -13t-52.5 -43.5q-26 -43 11 -69z" />
    <glyph glyph-name="section" unicode="&#xa7;" horiz-adv-x="683" 
d="M333 279q3 -103 -84 -215.5t-173 -134.5q-42 -13 -75 -9h-1q-15 2 -22 5q-20 5 -36 18q-41 30 -48.5 85t10 110t49.5 105q87 132 174 109q26 -7 38 -25.5t10.5 -42.5t-9.5 -48.5t-21 -47.5l-1 -1l-9 -15l-13 6q28 46 35 82.5t-5 54t-33 24t-49.5 -4t-53.5 -34.5
q-51 -48 -83 -124t-24 -138q2 -21 12 -44l1 -1q36 -66 130 -11q84 48 156 151q84 121 72 204q-4 26 -19 45q-1 2 -13.5 16.5t-14.5 17.5l-11.5 16.5t-10 19t-4 18t0 21.5t7.5 22t14.5 26t24.5 28q-2 68 39.5 146.5t102 134t115.5 70.5q42 13 75 9h1q15 -2 22 -5
q19 -6 37 -18q40 -30 47.5 -85.5t-10 -110.5t-49.5 -104q-35 -54 -80.5 -88.5t-93.5 -21.5q-26 7 -38 25.5t-10.5 42.5t9.5 48.5t21 47.5l1 2l9 15l13 -7q-28 -46 -35 -82t5 -53.5t33 -24t49.5 4t53.5 34.5q50 47 82.5 123t24.5 138q-2 22 -12 45v1q-36 66 -131 11
q-84 -48 -156 -151q-84 -121 -72 -204q4 -26 19 -45q3 -3 14 -16.5t14 -18l11.5 -16.5t9.5 -18.5t4.5 -18.5t0 -21.5l-8 -22.5t-14.5 -26t-24 -28zM256 544q-26 -30 -28 -58.5t11.5 -48.5t39.5 -42q42 -37 52 -92q65 76 -23 149q-43 37 -52 92z" />
    <glyph glyph-name="dieresis" unicode="&#xa8;" horiz-adv-x="347" 
d="M181 600q10 -5 12.5 -18.5t-5.5 -26.5q-7 -13 -19.5 -17.5t-22.5 1.5q-10 5 -12.5 18.5t5.5 26.5q7 13 19.5 17.5t22.5 -1.5zM292 600q10 -5 12.5 -18.5t-5.5 -26.5q-7 -13 -19.5 -17.5t-22.5 1.5q-10 5 -12.5 18.5t5.5 26.5q7 13 19.5 17.5t22.5 -1.5z" />
    <glyph glyph-name="logicalnot" unicode="&#xac;" horiz-adv-x="392" 
d="M114 247h225q-15 -15 -39 -47h-2l-26 -32h-52l27 32h-173z" />
    <glyph glyph-name="plusminus" unicode="&#xb1;" horiz-adv-x="414" 
d="M118 269l115 2l80 98h56l-80 -98l110 1l-39 -47l-110 -1l-78 -98h-14h-27.5h-14.5l78 98l-116 -2zM46 92h225q-15 -15 -39 -47h-226z" />
    <glyph glyph-name="acute" unicode="&#xb4;" horiz-adv-x="206" 
d="M47 607l61 62l54 1l-98 -63h-17z" />
    <glyph glyph-name="paragraph" unicode="&#xb6;" horiz-adv-x="481" 
d="M262 713l269 -1q-15 -15 -39 -47h-42q-73 -436 -137 -879h-50l114 879h-73q-73 -436 -137 -879h-50l87 667q-24 -12 -47 -8q-58 8 -59 74t49 129q51 65 115 65z" />
    <glyph glyph-name="cedilla" unicode="&#xb8;" horiz-adv-x="189" 
d="M132 154q6 -14 -1.5 -34.5t-24.5 -34.5q-16 -13 -33 -13t-24 13q-4 9 -2 23h7q0 -8 1 -11q3 -10 13 -9.5t21 11.5t16.5 27t3.5 25q0 1 -7.5 9t-6.5 18.5t15 27.5h13q-9 -9 -10.5 -16.5t2 -12t9.5 -11.5t8 -12z" />
    <glyph glyph-name="Agrave" unicode="&#xc0;" horiz-adv-x="1078" 
d="M1119 670q67 -1 94 -23q9 -8 11 -16q1 -9 -6 -16q-14 -15 -60 -21q-26 -2 -56 0q-44 -49 -87.5 -131t-73 -169.5t-45.5 -167.5t-8 -135.5t42 -63.5q-51 5 -71.5 53t-12 116.5t23 126t32.5 105.5h-176l-31.5 -45.5t-33 -47l-30.5 -43t-33 -45l-31 -39t-34 -40l-32 -33
t-35.5 -32l-34.5 -25.5q-51 -35 -121 -49.5t-149 4.5q-24 6 -48 18q-48 23 -94 78l6 6q10 -13 22 -25q16 -16 36 -31q18 -13 34 -21q42 -21 99 -27q122 0 255 154q51 60 172 235l6 8h-44l2 10h48l20 29q98 139 173 208q33 28 66 47q-13 3 -37 7.5t-32 6.5q-228 49 -340 54
q-217 9 -355 -131q-102 -104 -122 -242q-18 -130 46 -208q57 -68 161 -65q67 2 130 53.5t78 116.5l8 -2q-17 -69 -81 -120q-65 -53 -135 -56q-143 -5 -203 100q-54 95 -18 226q38 142 156 235q140 109 336 101q114 -5 341 -54l79 -16q94 48 193 42zM1059 597q-36 4 -86 14
q-69 -48 -142 -139q-49 -60 -99 -134h174q0 1 1 1q71 178 152 258zM983 617q60 -10 83 -13q54 51 111 51q-20 5 -59 7h-5q-7 0 -21 -2q-54 -9 -109 -43zM1109 601h2q32 0 46 1q41 4 55 18q6 6 4 10q0 5 -8 11q-9 7 -18 9l-4 2q-35 -7 -77 -51zM1190 752h-17l-58 63l54 -1z
" />
    <glyph glyph-name="Aacute" unicode="&#xc1;" horiz-adv-x="1078" 
d="M1119 670q67 -1 94 -23q9 -8 11 -16q1 -9 -6 -16q-14 -15 -60 -21q-26 -2 -56 0q-44 -49 -87.5 -131t-73 -169.5t-45.5 -167.5t-8 -135.5t42 -63.5q-51 5 -71.5 53t-12 116.5t23 126t32.5 105.5h-176l-31.5 -45.5t-33 -47l-30.5 -43t-33 -45l-31 -39t-34 -40l-32 -33
t-35.5 -32l-34.5 -25.5q-51 -35 -121 -49.5t-149 4.5q-24 6 -48 18q-48 23 -94 78l6 6q10 -13 22 -25q16 -16 36 -31q18 -13 34 -21q42 -21 99 -27q122 0 255 154q51 60 172 235l6 8h-44l2 10h48l20 29q98 139 173 208q33 28 66 47q-13 3 -37 7.5t-32 6.5q-228 49 -340 54
q-217 9 -355 -131q-102 -104 -122 -242q-18 -130 46 -208q57 -68 161 -65q67 2 130 53.5t78 116.5l8 -2q-17 -69 -81 -120q-65 -53 -135 -56q-143 -5 -203 100q-54 95 -18 226q38 142 156 235q140 109 336 101q114 -5 341 -54l79 -16q94 48 193 42zM1059 597q-36 4 -86 14
q-69 -48 -142 -139q-49 -60 -99 -134h174q0 1 1 1q71 178 152 258zM983 617q60 -10 83 -13q54 51 111 51q-20 5 -59 7h-5q-7 0 -21 -2q-54 -9 -109 -43zM1109 601h2q32 0 46 1q41 4 55 18q6 6 4 10q0 5 -8 11q-9 7 -18 9l-4 2q-35 -7 -77 -51zM1065 749l61 62l54 1l-98 -63
h-17z" />
    <glyph glyph-name="Acircumflex" unicode="&#xc2;" horiz-adv-x="1078" 
d="M1119 670q67 -1 94 -23q9 -8 11 -16q1 -9 -6 -16q-14 -15 -60 -21q-26 -2 -56 0q-44 -49 -87.5 -131t-73 -169.5t-45.5 -167.5t-8 -135.5t42 -63.5q-51 5 -71.5 53t-12 116.5t23 126t32.5 105.5h-176l-31.5 -45.5t-33 -47l-30.5 -43t-33 -45l-31 -39t-34 -40l-32 -33
t-35.5 -32l-34.5 -25.5q-51 -35 -121 -49.5t-149 4.5q-24 6 -48 18q-48 23 -94 78l6 6q10 -13 22 -25q16 -16 36 -31q18 -13 34 -21q42 -21 99 -27q122 0 255 154q51 60 172 235l6 8h-44l2 10h48l20 29q98 139 173 208q33 28 66 47q-13 3 -37 7.5t-32 6.5q-228 49 -340 54
q-217 9 -355 -131q-102 -104 -122 -242q-18 -130 46 -208q57 -68 161 -65q67 2 130 53.5t78 116.5l8 -2q-17 -69 -81 -120q-65 -53 -135 -56q-143 -5 -203 100q-54 95 -18 226q38 142 156 235q140 109 336 101q114 -5 341 -54l79 -16q94 48 193 42zM1059 597q-36 4 -86 14
q-69 -48 -142 -139q-49 -60 -99 -134h174q0 1 1 1q71 178 152 258zM983 617q60 -10 83 -13q54 51 111 51q-20 5 -59 7h-5q-7 0 -21 -2q-54 -9 -109 -43zM1109 601h2q32 0 46 1q41 4 55 18q6 6 4 10q0 5 -8 11q-9 7 -18 9l-4 2q-35 -7 -77 -51zM1120 814h17l-61 -62l-54 -1z
M1159 816h17l58 -63l-54 1z" />
    <glyph glyph-name="Atilde" unicode="&#xc3;" horiz-adv-x="1078" 
d="M1119 670q67 -1 94 -23q9 -8 11 -16q1 -9 -6 -16q-14 -15 -60 -21q-26 -2 -56 0q-44 -49 -87.5 -131t-73 -169.5t-45.5 -167.5t-8 -135.5t42 -63.5q-51 5 -71.5 53t-12 116.5t23 126t32.5 105.5h-176l-31.5 -45.5t-33 -47l-30.5 -43t-33 -45l-31 -39t-34 -40l-32 -33
t-35.5 -32l-34.5 -25.5q-51 -35 -121 -49.5t-149 4.5q-24 6 -48 18q-48 23 -94 78l6 6q10 -13 22 -25q16 -16 36 -31q18 -13 34 -21q42 -21 99 -27q122 0 255 154q51 60 172 235l6 8h-44l2 10h48l20 29q98 139 173 208q33 28 66 47q-13 3 -37 7.5t-32 6.5q-228 49 -340 54
q-217 9 -355 -131q-102 -104 -122 -242q-18 -130 46 -208q57 -68 161 -65q67 2 130 53.5t78 116.5l8 -2q-17 -69 -81 -120q-65 -53 -135 -56q-143 -5 -203 100q-54 95 -18 226q38 142 156 235q140 109 336 101q114 -5 341 -54l79 -16q94 48 193 42zM1059 597q-36 4 -86 14
q-69 -48 -142 -139q-49 -60 -99 -134h174q0 1 1 1q71 178 152 258zM983 617q60 -10 83 -13q54 51 111 51q-20 5 -59 7h-5q-7 0 -21 -2q-54 -9 -109 -43zM1109 601h2q32 0 46 1q41 4 55 18q6 6 4 10q0 5 -8 11q-9 7 -18 9l-4 2q-35 -7 -77 -51zM1230 816q2 -6 5 -13
q-13 -36 -33 -46.5t-41 -4t-42 15t-41.5 5t-34.5 -27.5l-6 12q14 36 35.5 47.5t43.5 5t43.5 -15t40.5 -5.5t30 27z" />
    <glyph glyph-name="Adieresis" unicode="&#xc4;" horiz-adv-x="1078" 
d="M1119 670q67 -1 94 -23q9 -8 11 -16q1 -9 -6 -16q-14 -15 -60 -21q-26 -2 -56 0q-44 -49 -87.5 -131t-73 -169.5t-45.5 -167.5t-8 -135.5t42 -63.5q-51 5 -71.5 53t-12 116.5t23 126t32.5 105.5h-176l-31.5 -45.5t-33 -47l-30.5 -43t-33 -45l-31 -39t-34 -40l-32 -33
t-35.5 -32l-34.5 -25.5q-51 -35 -121 -49.5t-149 4.5q-24 6 -48 18q-48 23 -94 78l6 6q10 -13 22 -25q16 -16 36 -31q18 -13 34 -21q42 -21 99 -27q122 0 255 154q51 60 172 235l6 8h-44l2 10h48l20 29q98 139 173 208q33 28 66 47q-13 3 -37 7.5t-32 6.5q-228 49 -340 54
q-217 9 -355 -131q-102 -104 -122 -242q-18 -130 46 -208q57 -68 161 -65q67 2 130 53.5t78 116.5l8 -2q-17 -69 -81 -120q-65 -53 -135 -56q-143 -5 -203 100q-54 95 -18 226q38 142 156 235q140 109 336 101q114 -5 341 -54l79 -16q94 48 193 42zM1059 597q-36 4 -86 14
q-69 -48 -142 -139q-49 -60 -99 -134h174q0 1 1 1q71 178 152 258zM983 617q60 -10 83 -13q54 51 111 51q-20 5 -59 7h-5q-7 0 -21 -2q-54 -9 -109 -43zM1109 601h2q32 0 46 1q41 4 55 18q6 6 4 10q0 5 -8 11q-9 7 -18 9l-4 2q-35 -7 -77 -51zM1123 813q10 -5 12.5 -18.5
t-5.5 -26.5q-7 -13 -19.5 -17.5t-22.5 1.5q-10 5 -12.5 18.5t5.5 26.5q7 13 19.5 17.5t22.5 -1.5zM1234 813q10 -5 12.5 -18.5t-5.5 -26.5q-7 -13 -19.5 -17.5t-22.5 1.5q-10 5 -12.5 18.5t5.5 26.5q7 13 19.5 17.5t22.5 -1.5z" />
    <glyph glyph-name="Aring" unicode="&#xc5;" horiz-adv-x="1078" 
d="M1119 670q67 -1 94 -23q9 -8 11 -16q1 -9 -6 -16q-14 -15 -60 -21q-26 -2 -56 0q-44 -49 -87.5 -131t-73 -169.5t-45.5 -167.5t-8 -135.5t42 -63.5q-51 5 -71.5 53t-12 116.5t23 126t32.5 105.5h-176l-31.5 -45.5t-33 -47l-30.5 -43t-33 -45l-31 -39t-34 -40l-32 -33
t-35.5 -32l-34.5 -25.5q-51 -35 -121 -49.5t-149 4.5q-24 6 -48 18q-48 23 -94 78l6 6q10 -13 22 -25q16 -16 36 -31q18 -13 34 -21q42 -21 99 -27q122 0 255 154q51 60 172 235l6 8h-44l2 10h48l20 29q98 139 173 208q33 28 66 47q-13 3 -37 7.5t-32 6.5q-228 49 -340 54
q-217 9 -355 -131q-102 -104 -122 -242q-18 -130 46 -208q57 -68 161 -65q67 2 130 53.5t78 116.5l8 -2q-17 -69 -81 -120q-65 -53 -135 -56q-143 -5 -203 100q-54 95 -18 226q38 142 156 235q140 109 336 101q114 -5 341 -54l79 -16q94 48 193 42zM1059 597q-36 4 -86 14
q-69 -48 -142 -139q-49 -60 -99 -134h174q0 1 1 1q71 178 152 258zM983 617q60 -10 83 -13q54 51 111 51q-20 5 -59 7h-5q-7 0 -21 -2q-54 -9 -109 -43zM1109 601h2q32 0 46 1q41 4 55 18q6 6 4 10q0 5 -8 11q-9 7 -18 9l-4 2q-35 -7 -77 -51zM1118 722q7 23 24 38.5
t34 14.5t24 -18t-1 -40q-7 -23 -24 -38.5t-34 -13.5q-16 0 -23 17t0 40zM1143 716q-4 -11 -0.5 -19.5t11.5 -8.5q20 0 29 26q7 27 -12 29q-19 0 -28 -27z" />
    <glyph glyph-name="AE" unicode="&#xc6;" horiz-adv-x="1474" 
d="M931 628q47 31 139 40t148 -22q52 33 115.5 35t97.5 -21q59 -34 36 -78q-20 -40 -84 -55q-23 -5 -46 -5q-64 0 -157 35q-14 -42 9 -75.5t79 -41.5l-1 -3q-114 6 -210.5 -74t-134.5 -188q-29 -81 -10.5 -149t73.5 -94q70 -33 172 34q44 28 77 67q42 51 55 98q13 46 -7 79
q-1 1 -1 2q-16 21 -41 28q-8 2 -24 4h-21q-41 -5 -79 -30l-7 -5q-31 -22 -57 -58q-25 -39 -40 -83l-8 2q17 49 42 86q25 36 58 60l8 4q53 35 103 32q49 -2 72 -36q1 0 1 -2q23 -34 9 -85q-12 -47 -57 -101q-37 -42 -79 -69q-24 -14 -38 -21q-39 -19 -80 -26q-27 -5 -69 1
q-83 15 -116.5 89.5t1.5 172.5q30 83 103 155l-231 -2l-31.5 -45.5t-33 -47l-30.5 -43t-33 -45l-31 -39t-34 -40l-32 -33t-35.5 -32l-34.5 -25.5q-51 -35 -121 -49.5t-149 4.5q-24 6 -48 18q-48 23 -94 78l6 6q10 -13 22 -25q16 -16 36 -31q18 -13 34 -21q42 -21 99 -27
q122 0 255 154q51 60 172 235l6 8h-44l2 10h48l20 29q98 139 173 208q33 28 66 47q-13 3 -37 7.5t-32 6.5q-228 49 -340 54q-217 9 -355 -131q-102 -104 -122 -242q-18 -130 46 -208q57 -68 161 -65q67 2 130 53.5t78 116.5l8 -2q-17 -69 -81 -120q-65 -53 -135 -56
q-143 -5 -203 100q-54 95 -18 226q38 142 156 235q140 109 336 101q114 -5 341 -54zM836 472q-49 -60 -99 -134l236 2q120 110 252 104q-64 7 -85.5 44.5t3.5 78.5q-115 32 -166 43q-69 -48 -141 -138zM1183 564q96 -34 154 -34q72 0 111 39q34 35 4 64q-10 10 -26 17
q-36 16 -85 14q-57 -3 -99 -31t-59 -69zM1147 574q25 40 64 68q-49 22 -119 11t-108 -37z" />
    <glyph glyph-name="Ccedilla" unicode="&#xc7;" horiz-adv-x="1051" 
d="M597 80q16 49 41 85q27 38 59 60q4 4 7 5q53 35 103 32q49 -2 72 -36l2 -2q22 -33 8 -85q-13 -50 -57 -101q-36 -43 -79 -69q-11 -8 -26 -15q-46 -26 -94 -32h-1q-33 -5 -65 1q-104 19 -90 143q13 124 130 286q98 135 219 224q-51 19 -64 25q-170 68 -256 77
q-211 20 -351 -116q-103 -100 -127 -240q-22 -129 37 -210q55 -73 159 -68q67 3 130 54q64 51 78 116l8 -2q-15 -67 -81 -121q-66 -52 -134 -55q-135 -5 -193 99q-53 95 -19 226q37 142 151 233q142 112 343 92q40 -4 90 -18t78.5 -25l89.5 -35l68 -27q101 72 190 90
q73 15 110 -3t34 -52q0 -3 -1 -4q-4 -41 -51 -66q-43 -23 -101 -20q-2 0 -6 0.5t-6 0.5q-57 6 -136 34q-68 -55 -131 -129.5t-107 -151t-68.5 -146t-19 -122t44.5 -71.5q63 -30 164 34q45 29 77 68l8 10q34 45 47 85v3q13 48 -7 79v1l-1 1q-13 17 -37 27l-18 4h-1
q-1 0 -4.5 0.5t-5.5 0.5h-7h-5q-3 0 -8 -0.5t-7 -0.5q-37 -7 -72 -29l-7 -5q-32 -22 -56 -58q-26 -37 -41 -83zM1159 617q0 31 -28.5 44.5t-86.5 -1.5q-83 -25 -170 -93q68 -25 129 -32q2 0 5.5 -0.5t5.5 -0.5q56 -3 97 19q44 23 48 61v3zM537 -97q6 -14 -1.5 -34.5
t-24.5 -34.5q-16 -14 -33 -14t-24 14q-4 9 -2 23h7q0 -8 1 -11q3 -10 13 -9.5t21 11.5t16.5 27t3.5 25q0 1 -7.5 9t-6.5 18.5t15 27.5h13q-9 -9 -10.5 -16.5t2 -12t9.5 -11.5t8 -12z" />
    <glyph glyph-name="Egrave" unicode="&#xc8;" horiz-adv-x="1154" 
d="M827 574q35 56 91 83t106.5 25.5t86.5 -22.5q57 -32 38 -79q-17 -41 -75 -58q-28 -9 -59 -7q-2 0 -6 0.5t-7 0.5q-61 7 -144 37q-13 -41 10 -73.5t80 -40.5l-1 -3q-114 6 -210.5 -74t-134.5 -188q-29 -81 -10.5 -149t73.5 -94q70 -33 172 34q44 28 77 67q42 51 55 98
q13 46 -7 79q-1 1 -1 2q-16 21 -41 28q-8 2 -24 4h-2h-7h-12q-41 -5 -79 -30l-7 -5q-31 -22 -57 -58q-25 -39 -40 -83l-8 2q17 49 42 86q25 36 58 60l8 4q53 35 103 32q49 -2 72 -36q1 0 1 -2q23 -34 9 -85q-12 -47 -57 -101q-37 -42 -79 -69q-24 -14 -38 -21
q-39 -19 -80 -26q-27 -5 -69 1q-83 15 -116.5 89.5t1.5 172.5q38 106 144.5 190.5t221.5 78.5q-64 7 -85.5 44.5t3.5 78.5q-6 2 -61 24q-170 68 -256 77q-205 22 -346 -112q-104 -98 -131 -237q-25 -132 34 -213q54 -75 161 -71q67 1 130 53q63 50 78 116l8 -2
q-15 -67 -81 -120q-65 -53 -134 -56q-135 -5 -193 99q-53 95 -19 226q37 142 151 233q142 112 343 92q40 -4 90 -18t78.5 -25l89.5 -35zM861 561q86 -30 142 -36q2 0 6 -0.5t6 -0.5q71 -4 111 37q34 35 11 66q-11 14 -31 23q-36 16 -85 14q-57 -3 -100 -32.5t-60 -70.5z
M1068 747h-17l-58 63l54 -1z" />
    <glyph glyph-name="Eacute" unicode="&#xc9;" horiz-adv-x="1154" 
d="M827 574q35 56 91 83t106.5 25.5t86.5 -22.5q57 -32 38 -79q-17 -41 -75 -58q-28 -9 -59 -7q-2 0 -6 0.5t-7 0.5q-61 7 -144 37q-13 -41 10 -73.5t80 -40.5l-1 -3q-114 6 -210.5 -74t-134.5 -188q-29 -81 -10.5 -149t73.5 -94q70 -33 172 34q44 28 77 67q42 51 55 98
q13 46 -7 79q-1 1 -1 2q-16 21 -41 28q-8 2 -24 4h-2h-7h-12q-41 -5 -79 -30l-7 -5q-31 -22 -57 -58q-25 -39 -40 -83l-8 2q17 49 42 86q25 36 58 60l8 4q53 35 103 32q49 -2 72 -36q1 0 1 -2q23 -34 9 -85q-12 -47 -57 -101q-37 -42 -79 -69q-24 -14 -38 -21
q-39 -19 -80 -26q-27 -5 -69 1q-83 15 -116.5 89.5t1.5 172.5q38 106 144.5 190.5t221.5 78.5q-64 7 -85.5 44.5t3.5 78.5q-6 2 -61 24q-170 68 -256 77q-205 22 -346 -112q-104 -98 -131 -237q-25 -132 34 -213q54 -75 161 -71q67 1 130 53q63 50 78 116l8 -2
q-15 -67 -81 -120q-65 -53 -134 -56q-135 -5 -193 99q-53 95 -19 226q37 142 151 233q142 112 343 92q40 -4 90 -18t78.5 -25l89.5 -35zM861 561q86 -30 142 -36q2 0 6 -0.5t6 -0.5q71 -4 111 37q34 35 11 66q-11 14 -31 23q-36 16 -85 14q-57 -3 -100 -32.5t-60 -70.5z
M1007 751l61 62l54 1l-98 -63h-17z" />
    <glyph glyph-name="Ecircumflex" unicode="&#xca;" horiz-adv-x="1154" 
d="M827 574q35 56 91 83t106.5 25.5t86.5 -22.5q57 -32 38 -79q-17 -41 -75 -58q-28 -9 -59 -7q-2 0 -6 0.5t-7 0.5q-61 7 -144 37q-13 -41 10 -73.5t80 -40.5l-1 -3q-114 6 -210.5 -74t-134.5 -188q-29 -81 -10.5 -149t73.5 -94q70 -33 172 34q44 28 77 67q42 51 55 98
q13 46 -7 79q-1 1 -1 2q-16 21 -41 28q-8 2 -24 4h-2h-7h-12q-41 -5 -79 -30l-7 -5q-31 -22 -57 -58q-25 -39 -40 -83l-8 2q17 49 42 86q25 36 58 60l8 4q53 35 103 32q49 -2 72 -36q1 0 1 -2q23 -34 9 -85q-12 -47 -57 -101q-37 -42 -79 -69q-24 -14 -38 -21
q-39 -19 -80 -26q-27 -5 -69 1q-83 15 -116.5 89.5t1.5 172.5q38 106 144.5 190.5t221.5 78.5q-64 7 -85.5 44.5t3.5 78.5q-6 2 -61 24q-170 68 -256 77q-205 22 -346 -112q-104 -98 -131 -237q-25 -132 34 -213q54 -75 161 -71q67 1 130 53q63 50 78 116l8 -2
q-15 -67 -81 -120q-65 -53 -134 -56q-135 -5 -193 99q-53 95 -19 226q37 142 151 233q142 112 343 92q40 -4 90 -18t78.5 -25l89.5 -35zM861 561q86 -30 142 -36q2 0 6 -0.5t6 -0.5q71 -4 111 37q34 35 11 66q-11 14 -31 23q-36 16 -85 14q-57 -3 -100 -32.5t-60 -70.5z
M1013 813h17l-61 -62l-54 -1zM1052 815h17l58 -63l-54 1z" />
    <glyph glyph-name="Edieresis" unicode="&#xcb;" horiz-adv-x="1154" 
d="M827 574q35 56 91 83t106.5 25.5t86.5 -22.5q57 -32 38 -79q-17 -41 -75 -58q-28 -9 -59 -7q-2 0 -6 0.5t-7 0.5q-61 7 -144 37q-13 -41 10 -73.5t80 -40.5l-1 -3q-114 6 -210.5 -74t-134.5 -188q-29 -81 -10.5 -149t73.5 -94q70 -33 172 34q44 28 77 67q42 51 55 98
q13 46 -7 79q-1 1 -1 2q-16 21 -41 28q-8 2 -24 4h-2h-7h-12q-41 -5 -79 -30l-7 -5q-31 -22 -57 -58q-25 -39 -40 -83l-8 2q17 49 42 86q25 36 58 60l8 4q53 35 103 32q49 -2 72 -36q1 0 1 -2q23 -34 9 -85q-12 -47 -57 -101q-37 -42 -79 -69q-24 -14 -38 -21
q-39 -19 -80 -26q-27 -5 -69 1q-83 15 -116.5 89.5t1.5 172.5q38 106 144.5 190.5t221.5 78.5q-64 7 -85.5 44.5t3.5 78.5q-6 2 -61 24q-170 68 -256 77q-205 22 -346 -112q-104 -98 -131 -237q-25 -132 34 -213q54 -75 161 -71q67 1 130 53q63 50 78 116l8 -2
q-15 -67 -81 -120q-65 -53 -134 -56q-135 -5 -193 99q-53 95 -19 226q37 142 151 233q142 112 343 92q40 -4 90 -18t78.5 -25l89.5 -35zM861 561q86 -30 142 -36q2 0 6 -0.5t6 -0.5q71 -4 111 37q34 35 11 66q-11 14 -31 23q-36 16 -85 14q-57 -3 -100 -32.5t-60 -70.5z
M1023 817q10 -5 12.5 -18.5t-5.5 -26.5q-7 -13 -19.5 -17.5t-22.5 1.5q-10 5 -12.5 18.5t5.5 26.5q7 13 19.5 17.5t22.5 -1.5zM1134 817q10 -5 12.5 -18.5t-5.5 -26.5q-7 -13 -19.5 -17.5t-22.5 1.5q-10 5 -12.5 18.5t5.5 26.5q7 13 19.5 17.5t22.5 -1.5z" />
    <glyph glyph-name="Igrave" unicode="&#xcc;" horiz-adv-x="877" 
d="M1115 671q18 -1 25.5 -12t-7.5 -25q-24 -20 -87 -13h-1q-24 1 -51 6q-59 -34 -120.5 -100.5t-114.5 -143l-105.5 -153t-111.5 -145.5t-114 -106q-46 -32 -112.5 -47.5t-130.5 -4.5q-43 8 -79 25q-48 23 -94 78l6 6q42 -52 92 -77q42 -21 98 -27q59 -1 118.5 32.5
t108 87.5t103 126t99.5 141t101 140.5t106 116.5q45 39 92 60l-64 10q-230 39 -370 45q-216 9 -354 -132q-102 -104 -122 -243q-17 -129 47 -207q56 -68 158 -64q67 3 130 54q63 50 78 116l8 -2q-17 -69 -81 -120q-63 -53 -135 -56q-137 -5 -197 99q-55 95 -22 226
q36 143 154 236q137 109 336 101q139 -6 372 -45l75 -12q91 36 166 29zM1006 633q14 -2 40 -4q4 -1 10 -1q52 -4 72 12q4 4 6 9q0 4 -1 6q-6 10 -45 6q-39 -6 -82 -28zM1100 748h-17l-58 63l54 -1z" />
    <glyph glyph-name="Iacute" unicode="&#xcd;" horiz-adv-x="877" 
d="M1115 671q18 -1 25.5 -12t-7.5 -25q-24 -20 -87 -13h-1q-24 1 -51 6q-59 -34 -120.5 -100.5t-114.5 -143l-105.5 -153t-111.5 -145.5t-114 -106q-46 -32 -112.5 -47.5t-130.5 -4.5q-43 8 -79 25q-48 23 -94 78l6 6q42 -52 92 -77q42 -21 98 -27q59 -1 118.5 32.5
t108 87.5t103 126t99.5 141t101 140.5t106 116.5q45 39 92 60l-64 10q-230 39 -370 45q-216 9 -354 -132q-102 -104 -122 -243q-17 -129 47 -207q56 -68 158 -64q67 3 130 54q63 50 78 116l8 -2q-17 -69 -81 -120q-63 -53 -135 -56q-137 -5 -197 99q-55 95 -22 226
q36 143 154 236q137 109 336 101q139 -6 372 -45l75 -12q91 36 166 29zM1006 633q14 -2 40 -4q4 -1 10 -1q52 -4 72 12q4 4 6 9q0 4 -1 6q-6 10 -45 6q-39 -6 -82 -28zM1051 750l61 62l54 1l-98 -63h-17z" />
    <glyph glyph-name="Icircumflex" unicode="&#xce;" horiz-adv-x="877" 
d="M1115 671q18 -1 25.5 -12t-7.5 -25q-24 -20 -87 -13h-1q-24 1 -51 6q-59 -34 -120.5 -100.5t-114.5 -143l-105.5 -153t-111.5 -145.5t-114 -106q-46 -32 -112.5 -47.5t-130.5 -4.5q-43 8 -79 25q-48 23 -94 78l6 6q42 -52 92 -77q42 -21 98 -27q59 -1 118.5 32.5
t108 87.5t103 126t99.5 141t101 140.5t106 116.5q45 39 92 60l-64 10q-230 39 -370 45q-216 9 -354 -132q-102 -104 -122 -243q-17 -129 47 -207q56 -68 158 -64q67 3 130 54q63 50 78 116l8 -2q-17 -69 -81 -120q-63 -53 -135 -56q-137 -5 -197 99q-55 95 -22 226
q36 143 154 236q137 109 336 101q139 -6 372 -45l75 -12q91 36 166 29zM1006 633q14 -2 40 -4q4 -1 10 -1q52 -4 72 12q4 4 6 9q0 4 -1 6q-6 10 -45 6q-39 -6 -82 -28zM1068 813h17l-61 -62l-54 -1zM1107 815h17l58 -63l-54 1z" />
    <glyph glyph-name="Idieresis" unicode="&#xcf;" horiz-adv-x="877" 
d="M1115 671q18 -1 25.5 -12t-7.5 -25q-24 -20 -87 -13h-1q-24 1 -51 6q-59 -34 -120.5 -100.5t-114.5 -143l-105.5 -153t-111.5 -145.5t-114 -106q-46 -32 -112.5 -47.5t-130.5 -4.5q-43 8 -79 25q-48 23 -94 78l6 6q42 -52 92 -77q42 -21 98 -27q59 -1 118.5 32.5
t108 87.5t103 126t99.5 141t101 140.5t106 116.5q45 39 92 60l-64 10q-230 39 -370 45q-216 9 -354 -132q-102 -104 -122 -243q-17 -129 47 -207q56 -68 158 -64q67 3 130 54q63 50 78 116l8 -2q-17 -69 -81 -120q-63 -53 -135 -56q-137 -5 -197 99q-55 95 -22 226
q36 143 154 236q137 109 336 101q139 -6 372 -45l75 -12q91 36 166 29zM1006 633q14 -2 40 -4q4 -1 10 -1q52 -4 72 12q4 4 6 9q0 4 -1 6q-6 10 -45 6q-39 -6 -82 -28zM1076 812q10 -5 12.5 -18.5t-5.5 -26.5q-7 -13 -19.5 -17.5t-22.5 1.5q-10 5 -12.5 18.5t5.5 26.5
q7 13 19.5 17.5t22.5 -1.5zM1187 812q10 -5 12.5 -18.5t-5.5 -26.5q-7 -13 -19.5 -17.5t-22.5 1.5q-10 5 -12.5 18.5t5.5 26.5q7 13 19.5 17.5t22.5 -1.5z" />
    <glyph glyph-name="Eth" unicode="&#xd0;" horiz-adv-x="1213" 
d="M474 200l40 47h72q11 15 41 59t44 63l41 56t45 59t42.5 48.5t46.5 46.5q7 7 23 19q-116 95 -291 95q-255 0 -414 -146q-113 -103 -136 -238q-21 -122 44 -196q56 -66 161 -64q69 3 129 53q64 53 79 117l7 -2q-15 -66 -81 -121q-63 -52 -134 -55q-141 -5 -201 95
q-54 90 -18 216q41 140 169 235q161 120 396 114q190 -3 314 -86q105 67 222 59h2q30 -2 57 -9q26 -8 39 -14l-2 -4l-1 -3q-22 9 -45 15q-31 6 -51 8q-91 -4 -182 -82q61 -54 90 -130.5t26 -153.5t-35 -151t-86 -126.5t-135 -76.5t-174 -5q-49 10 -78.5 14.5t-82.5 3.5
t-103 -15q-114 -38 -211 -2q-11 3 -31 13q-50 24 -95 78l3 3l3 2l17 -18q28 -30 61 -51l14 -7q43 -21 101 -27q88 1 167.5 70t169.5 194h-79zM396 -37q90 15 224 -13q69 -12 132 13.5t108.5 76.5t75.5 120t38.5 140t-8 141.5t-59.5 120.5q-16 -15 -33 -34l-30 -33t-33 -40.5
l-28.5 -37.5t-31.5 -43.5l-28 -40l-31.5 -45.5l-28.5 -41h76q-15 -15 -39 -47h-71q-113 -159 -200 -218q-13 -9 -33 -19z" />
    <glyph glyph-name="Ntilde" unicode="&#xd1;" horiz-adv-x="1272" 
d="M1115 670q18 -1 25.5 -12t-7.5 -25q-24 -20 -87 -13h-1q-24 2 -51 6q-59 -34 -120.5 -100.5t-114.5 -143l-105.5 -153t-111.5 -145.5t-114 -106q-53 -36 -124.5 -49.5t-151.5 6.5q-23 7 -42 16q-48 23 -94 78l6 6q42 -52 92 -77q42 -21 99 -27q70 0 138.5 47t129.5 124.5
t116.5 159.5t122.5 171.5t124 141.5q45 39 92 60l-64 10q-230 39 -370 45q-216 9 -354 -132q-102 -104 -122 -243q-17 -129 47 -207q56 -68 158 -64q67 3 130 54q63 50 78 116l8 -2q-15 -67 -81 -120q-63 -53 -135 -56q-137 -5 -197 99q-55 95 -22 226q36 143 154 236
q137 109 336 101q139 -6 372 -45l75 -12q91 36 166 29zM1546 670q34 -4 51 -8q23 -5 47 -15l-3 -8q-23 11 -46 15q-16 4 -50 8q-10 0 -30 -2q-74 -11 -147.5 -70.5t-136 -144l-121.5 -171.5t-127 -171t-129 -125q-43 -30 -104.5 -46t-122.5 -8h-5v1q-4 0 -14 2l1 6
q5 -1 14 -1q44 -4 91 16q31 13 56 33q42 31 71.5 77.5t48.5 112t27.5 108.5t20.5 120q10 63 16 95t18.5 69t28.5 53l6 -5q-16 -16 -28 -52t-17.5 -67.5t-15.5 -94.5q-9 -58 -14.5 -89t-18.5 -86t-27 -89.5t-37.5 -74t-52.5 -66.5q56 43 121 124t115.5 158t116 164t121.5 137
q57 51 131.5 75.5t144.5 19.5zM1006 632q14 -2 40 -4q4 -1 10 -1q52 -4 72 12q4 5 6 9q0 4 -1 6q-6 10 -45 6q-39 -6 -82 -28zM1411 813q1 -6 5 -13q-13 -36 -33 -46.5t-41 -4t-42 15t-41.5 5t-34.5 -27.5l-6 12q14 36 35.5 47.5t43.5 5t43.5 -15t40.5 -5.5t30 27z" />
    <glyph glyph-name="Ograve" unicode="&#xd2;" horiz-adv-x="1165" 
d="M441 212q-17 -69 -81 -120q-66 -53 -135 -56q-135 -5 -193 99q-53 95 -19 226q37 143 152 234q141 111 342 91q85 -9 258 -78l69 -27q101 72 190 90q71 15 108 -2.5t35 -51.5v-4q-4 -42 -51 -67l-8 -3q6 -21 6 -44q0 -81 -60 -196q-59 -111 -144 -204
q-184 -204 -342 -176q-30 5 -53 22q-37 28 -40 85t25 128t75 146.5t113.5 147.5t137.5 124l-64 25q-170 68 -255 77q-212 20 -352 -117q-103 -100 -127 -239q-22 -130 38 -210q54 -73 159 -67q67 1 130 53q63 51 78 116zM868 560q-139 -113 -238.5 -280.5t-88.5 -267.5
q11 -84 100 -81q115 12 263 173q90 99 143 203q59 110 59 192q0 19 -5 41q-37 -16 -87 -14q-4 1 -11 1h-1q-53 6 -134 33zM1099 547q-9 25 -27 41l5 6q19 -17 29 -44l6 3q28 15 39 36q8 14 8 28v1q3 26 -28 43t-87 0q-80 -25 -169 -95q71 -24 129 -31q2 0 5.5 -0.5t4.5 -0.5
q45 -3 85 13zM1099 751h-17l-58 63l54 -1z" />
    <glyph glyph-name="Oacute" unicode="&#xd3;" horiz-adv-x="1165" 
d="M441 212q-17 -69 -81 -120q-66 -53 -135 -56q-135 -5 -193 99q-53 95 -19 226q37 143 152 234q141 111 342 91q85 -9 258 -78l69 -27q101 72 190 90q71 15 108 -2.5t35 -51.5v-4q-4 -42 -51 -67l-8 -3q6 -21 6 -44q0 -81 -60 -196q-59 -111 -144 -204
q-184 -204 -342 -176q-30 5 -53 22q-37 28 -40 85t25 128t75 146.5t113.5 147.5t137.5 124l-64 25q-170 68 -255 77q-212 20 -352 -117q-103 -100 -127 -239q-22 -130 38 -210q54 -73 159 -67q67 1 130 53q63 51 78 116zM868 560q-139 -113 -238.5 -280.5t-88.5 -267.5
q11 -84 100 -81q115 12 263 173q90 99 143 203q59 110 59 192q0 19 -5 41q-37 -16 -87 -14q-4 1 -11 1h-1q-53 6 -134 33zM1099 547q-9 25 -27 41l5 6q19 -17 29 -44l6 3q28 15 39 36q8 14 8 28v1q3 26 -28 43t-87 0q-80 -25 -169 -95q71 -24 129 -31q2 0 5.5 -0.5t4.5 -0.5
q45 -3 85 13zM1018 750l61 62l54 1l-98 -63h-17z" />
    <glyph glyph-name="Ocircumflex" unicode="&#xd4;" horiz-adv-x="1165" 
d="M441 212q-17 -69 -81 -120q-66 -53 -135 -56q-135 -5 -193 99q-53 95 -19 226q37 143 152 234q141 111 342 91q85 -9 258 -78l69 -27q101 72 190 90q71 15 108 -2.5t35 -51.5v-4q-4 -42 -51 -67l-8 -3q6 -21 6 -44q0 -81 -60 -196q-59 -111 -144 -204
q-184 -204 -342 -176q-30 5 -53 22q-37 28 -40 85t25 128t75 146.5t113.5 147.5t137.5 124l-64 25q-170 68 -255 77q-212 20 -352 -117q-103 -100 -127 -239q-22 -130 38 -210q54 -73 159 -67q67 1 130 53q63 51 78 116zM868 560q-139 -113 -238.5 -280.5t-88.5 -267.5
q11 -84 100 -81q115 12 263 173q90 99 143 203q59 110 59 192q0 19 -5 41q-37 -16 -87 -14q-4 1 -11 1h-1q-53 6 -134 33zM1099 547q-9 25 -27 41l5 6q19 -17 29 -44l6 3q28 15 39 36q8 14 8 28v1q3 26 -28 43t-87 0q-80 -25 -169 -95q71 -24 129 -31q2 0 5.5 -0.5t4.5 -0.5
q45 -3 85 13zM1084 813h17l-61 -62l-54 -1zM1123 815h17l58 -63l-54 1z" />
    <glyph glyph-name="Otilde" unicode="&#xd5;" horiz-adv-x="1165" 
d="M441 212q-17 -69 -81 -120q-66 -53 -135 -56q-135 -5 -193 99q-53 95 -19 226q37 143 152 234q141 111 342 91q85 -9 258 -78l69 -27q101 72 190 90q71 15 108 -2.5t35 -51.5v-4q-4 -42 -51 -67l-8 -3q6 -21 6 -44q0 -81 -60 -196q-59 -111 -144 -204
q-184 -204 -342 -176q-30 5 -53 22q-37 28 -40 85t25 128t75 146.5t113.5 147.5t137.5 124l-64 25q-170 68 -255 77q-212 20 -352 -117q-103 -100 -127 -239q-22 -130 38 -210q54 -73 159 -67q67 1 130 53q63 51 78 116zM868 560q-139 -113 -238.5 -280.5t-88.5 -267.5
q11 -84 100 -81q115 12 263 173q90 99 143 203q59 110 59 192q0 19 -5 41q-37 -16 -87 -14q-4 1 -11 1h-1q-53 6 -134 33zM1099 547q-9 25 -27 41l5 6q19 -17 29 -44l6 3q28 15 39 36q8 14 8 28v1q3 26 -28 43t-87 0q-80 -25 -169 -95q71 -24 129 -31q2 0 5.5 -0.5t4.5 -0.5
q45 -3 85 13zM1190 812q2 -6 5 -13q-13 -36 -33 -46.5t-41 -4t-42 15t-41.5 5t-34.5 -27.5l-6 12q14 36 35.5 47.5t43.5 5t43.5 -15t40.5 -5.5t30 27z" />
    <glyph glyph-name="Odieresis" unicode="&#xd6;" horiz-adv-x="1165" 
d="M441 212q-17 -69 -81 -120q-66 -53 -135 -56q-135 -5 -193 99q-53 95 -19 226q37 143 152 234q141 111 342 91q85 -9 258 -78l69 -27q101 72 190 90q71 15 108 -2.5t35 -51.5v-4q-4 -42 -51 -67l-8 -3q6 -21 6 -44q0 -81 -60 -196q-59 -111 -144 -204
q-184 -204 -342 -176q-30 5 -53 22q-37 28 -40 85t25 128t75 146.5t113.5 147.5t137.5 124l-64 25q-170 68 -255 77q-212 20 -352 -117q-103 -100 -127 -239q-22 -130 38 -210q54 -73 159 -67q67 1 130 53q63 51 78 116zM868 560q-139 -113 -238.5 -280.5t-88.5 -267.5
q11 -84 100 -81q115 12 263 173q90 99 143 203q59 110 59 192q0 19 -5 41q-37 -16 -87 -14q-4 1 -11 1h-1q-53 6 -134 33zM1099 547q-9 25 -27 41l5 6q19 -17 29 -44l6 3q28 15 39 36q8 14 8 28v1q3 26 -28 43t-87 0q-80 -25 -169 -95q71 -24 129 -31q2 0 5.5 -0.5t4.5 -0.5
q45 -3 85 13zM1078 820q10 -5 12.5 -18.5t-5.5 -26.5q-7 -13 -19.5 -17.5t-22.5 1.5q-10 5 -12.5 18.5t5.5 26.5q7 13 19.5 17.5t22.5 -1.5zM1189 820q10 -5 12.5 -18.5t-5.5 -26.5q-7 -13 -19.5 -17.5t-22.5 1.5q-10 5 -12.5 18.5t5.5 26.5q7 13 19.5 17.5t22.5 -1.5z" />
    <glyph glyph-name="multiply" unicode="&#xd7;" horiz-adv-x="399" 
d="M93 444h74l20 -95l115 95l74 -1l-179 -139l34 -154l-50 1q-19 66 -35 115l-147 -114l-50 -1l185 153q-18 56 -41 140z" />
    <glyph glyph-name="Ugrave" unicode="&#xd9;" horiz-adv-x="1145" 
d="M1373 662q88 7 156 -23l-3 -7q-79 35 -152 16q-79 -19 -151 -87.5t-154 -181.5l-28 -38.5l-36.5 -50l-38.5 -55t-38 -61l-31.5 -60.5t-22 -60t-6 -53t12 -46.5t36.5 -33.5l-1 -3q-58 -3 -87 18t-29 61t17.5 88t50.5 107q-114 -143 -193 -209t-152 -61q-27 2 -41.5 15.5
t-15 37t3.5 49t16.5 58t22.5 55.5t24 51t17 36l7 16q67 159 63 267q-2 70 -36.5 115t-86.5 60t-112 10t-116 -29q-126 -54 -196 -193q-64 -129 -47 -254q17 -122 106 -163q39 -18 89 -16q68 3 129 53q62 51 79 116l3 -1h4q-15 -66 -81 -121q-63 -52 -134 -55
q-134 -5 -191 105q-51 100 -16 239q36 148 145 239q48 40 105 62q61 23 123.5 26.5t118.5 -13.5t99.5 -60.5t62.5 -108.5q13 -47 14.5 -89.5t-12.5 -90.5t-25.5 -77.5t-41 -92.5l-43.5 -94q-52 -121 6 -130q30 -4 71.5 22t91 79t92.5 106l97 124q61 94 145 195q32 41 48 56
l40 41q94 85 222 95zM1101 748h-17l-58 63l54 -1z" />
    <glyph glyph-name="Uacute" unicode="&#xda;" horiz-adv-x="1145" 
d="M1373 662q88 7 156 -23l-3 -7q-79 35 -152 16q-79 -19 -151 -87.5t-154 -181.5l-28 -38.5l-36.5 -50l-38.5 -55t-38 -61l-31.5 -60.5t-22 -60t-6 -53t12 -46.5t36.5 -33.5l-1 -3q-58 -3 -87 18t-29 61t17.5 88t50.5 107q-114 -143 -193 -209t-152 -61q-27 2 -41.5 15.5
t-15 37t3.5 49t16.5 58t22.5 55.5t24 51t17 36l7 16q67 159 63 267q-2 70 -36.5 115t-86.5 60t-112 10t-116 -29q-126 -54 -196 -193q-64 -129 -47 -254q17 -122 106 -163q39 -18 89 -16q68 3 129 53q62 51 79 116l3 -1h4q-15 -66 -81 -121q-63 -52 -134 -55
q-134 -5 -191 105q-51 100 -16 239q36 148 145 239q48 40 105 62q61 23 123.5 26.5t118.5 -13.5t99.5 -60.5t62.5 -108.5q13 -47 14.5 -89.5t-12.5 -90.5t-25.5 -77.5t-41 -92.5l-43.5 -94q-52 -121 6 -130q30 -4 71.5 22t91 79t92.5 106l97 124q61 94 145 195q32 41 48 56
l40 41q94 85 222 95zM855 750l61 62l54 1l-98 -63h-17z" />
    <glyph glyph-name="Ucircumflex" unicode="&#xdb;" horiz-adv-x="1145" 
d="M1373 662q88 7 156 -23l-3 -7q-79 35 -152 16q-79 -19 -151 -87.5t-154 -181.5l-28 -38.5l-36.5 -50l-38.5 -55t-38 -61l-31.5 -60.5t-22 -60t-6 -53t12 -46.5t36.5 -33.5l-1 -3q-58 -3 -87 18t-29 61t17.5 88t50.5 107q-114 -143 -193 -209t-152 -61q-27 2 -41.5 15.5
t-15 37t3.5 49t16.5 58t22.5 55.5t24 51t17 36l7 16q67 159 63 267q-2 70 -36.5 115t-86.5 60t-112 10t-116 -29q-126 -54 -196 -193q-64 -129 -47 -254q17 -122 106 -163q39 -18 89 -16q68 3 129 53q62 51 79 116l3 -1h4q-15 -66 -81 -121q-63 -52 -134 -55
q-134 -5 -191 105q-51 100 -16 239q36 148 145 239q48 40 105 62q61 23 123.5 26.5t118.5 -13.5t99.5 -60.5t62.5 -108.5q13 -47 14.5 -89.5t-12.5 -90.5t-25.5 -77.5t-41 -92.5l-43.5 -94q-52 -121 6 -130q30 -4 71.5 22t91 79t92.5 106l97 124q61 94 145 195q32 41 48 56
l40 41q94 85 222 95zM924 813h17l-61 -62l-54 -1zM963 815h17l58 -63l-54 1z" />
    <glyph glyph-name="Udieresis" unicode="&#xdc;" horiz-adv-x="1145" 
d="M1373 662q88 7 156 -23l-3 -7q-79 35 -152 16q-79 -19 -151 -87.5t-154 -181.5l-28 -38.5l-36.5 -50l-38.5 -55t-38 -61l-31.5 -60.5t-22 -60t-6 -53t12 -46.5t36.5 -33.5l-1 -3q-58 -3 -87 18t-29 61t17.5 88t50.5 107q-114 -143 -193 -209t-152 -61q-27 2 -41.5 15.5
t-15 37t3.5 49t16.5 58t22.5 55.5t24 51t17 36l7 16q67 159 63 267q-2 70 -36.5 115t-86.5 60t-112 10t-116 -29q-126 -54 -196 -193q-64 -129 -47 -254q17 -122 106 -163q39 -18 89 -16q68 3 129 53q62 51 79 116l3 -1h4q-15 -66 -81 -121q-63 -52 -134 -55
q-134 -5 -191 105q-51 100 -16 239q36 148 145 239q48 40 105 62q61 23 123.5 26.5t118.5 -13.5t99.5 -60.5t62.5 -108.5q13 -47 14.5 -89.5t-12.5 -90.5t-25.5 -77.5t-41 -92.5l-43.5 -94q-52 -121 6 -130q30 -4 71.5 22t91 79t92.5 106l97 124q61 94 145 195q32 41 48 56
l40 41q94 85 222 95zM936 813q10 -5 12.5 -18.5t-5.5 -26.5q-7 -13 -19.5 -17.5t-22.5 1.5q-10 5 -12.5 18.5t5.5 26.5q7 13 19.5 17.5t22.5 -1.5zM1047 813q10 -5 12.5 -18.5t-5.5 -26.5q-7 -13 -19.5 -17.5t-22.5 1.5q-10 5 -12.5 18.5t5.5 26.5q7 13 19.5 17.5t22.5 -1.5
z" />
    <glyph glyph-name="Yacute" unicode="&#xdd;" horiz-adv-x="1172" 
d="M1423 662v1q18 -2 52 -8q25 -6 46 -16l-3 -7q-21 9 -45 15q-17 4 -51 8q-14 0 -28 -3q-89 -13 -169 -88t-171 -205l-229 -326q-135 -194 -228 -257t-210 -56q-64 6 -109 28q-49 25 -94 79l6 5q43 -51 92 -76q35 -19 93 -27q49 -1 96.5 19.5t93 62.5t82.5 86.5t84 109.5
l95 137q-99 -123 -166.5 -174.5t-136.5 -47.5q-27 2 -41.5 16t-15.5 37.5t3.5 48.5t17 57.5t23 56l23.5 51.5t17 36q74 169 70 283q-2 68 -35.5 112.5t-84.5 60t-109.5 11.5t-114.5 -26q-128 -52 -199 -191q-66 -128 -50 -255q15 -124 102 -166q40 -19 91 -17q69 3 130 53
q63 52 78 117l8 -2q-15 -66 -81 -121q-63 -52 -134 -55q-134 -5 -190 105q-52 100 -17 239q36 146 145 238q52 44 114 66q61 22 122 24t115.5 -15t97 -60t60.5 -108q49 -139 -52 -334q-64 -124 -76 -167q-17 -67 26 -73q95 -13 349 327l66 94q101 142 169 202
q56 51 129.5 75.5t143.5 19.5zM895 749l61 62l54 1l-98 -63h-17z" />
    <glyph glyph-name="germandbls" unicode="&#xdf;" horiz-adv-x="367" 
d="M-341 -173l416 582q84 102 145 94q32 -4 38 -34q6 -36 -30 -60l-4 -2q-5 -6 -27.5 -20t-31.5 -24q-1 -21 9 -70t8 -80q39 9 79 23q73 27 108 64l4 -4l2 -1q-35 -39 -112 -66q-38 -15 -82 -24q-11 -72 -53.5 -110t-97.5 -40q-28 1 -41 20q-7 12 -6 27q0 15 11 31
q33 49 131 68q4 35 5.5 82t5 69.5t15.5 31.5q54 44 63 81q4 17 -7 16q-19 -2 -56 -56l-424 -598h-68zM125 193q-95 -19 -124 -64q-9 -14 -11 -27q0 -10 3 -16q16 -19 43.5 -7.5t55.5 46.5t33 68z" />
    <glyph glyph-name="agrave" unicode="&#xe0;" 
d="M284 411l66 -1q-90 -123 -124 -179q-59 -97 -47 -138q11 -39 68 0q23 15 45 33.5t45.5 43l38 40l42 47l37.5 42.5l6 -5q-141 -172 -232 -223q-55 -32 -90 -7.5t-17 88.5q-38 -41 -67 -62q-50 -36 -92 -30q-63 9 -49.5 88t83.5 161q81 93 159 95q12 0 23 -2q29 -5 37 -38
q5 -15 3 -34q0 -6 -1 -9zM204 301q7 17 7 29v13q-1 25 -10 33.5t-34 2.5q-34 -9 -74 -44t-70 -84q-55 -93 -50 -152q4 -55 78 -3q34 25 78 76q11 29 29 59zM313 503h-17l-58 63l54 -1z" />
    <glyph glyph-name="aacute" unicode="&#xe1;" 
d="M284 411l66 -1q-90 -123 -124 -179q-59 -97 -47 -138q11 -39 68 0q23 15 45 33.5t45.5 43l38 40l42 47l37.5 42.5l6 -5q-141 -172 -232 -223q-55 -32 -90 -7.5t-17 88.5q-38 -41 -67 -62q-50 -36 -92 -30q-63 9 -49.5 88t83.5 161q81 93 159 95q12 0 23 -2q29 -5 37 -38
q5 -15 3 -34q0 -6 -1 -9zM204 301q7 17 7 29v13q-1 25 -10 33.5t-34 2.5q-34 -9 -74 -44t-70 -84q-55 -93 -50 -152q4 -55 78 -3q34 25 78 76q11 29 29 59zM211 504l61 62l54 1l-98 -63h-17z" />
    <glyph glyph-name="acircumflex" unicode="&#xe2;" 
d="M284 411l66 -1q-90 -123 -124 -179q-59 -97 -47 -138q11 -39 68 0q23 15 45 33.5t45.5 43l38 40l42 47l37.5 42.5l6 -5q-141 -172 -232 -223q-55 -32 -90 -7.5t-17 88.5q-38 -41 -67 -62q-50 -36 -92 -30q-63 9 -49.5 88t83.5 161q81 93 159 95q12 0 23 -2q29 -5 37 -38
q5 -15 3 -34q0 -6 -1 -9zM204 301q7 17 7 29v13q-1 25 -10 33.5t-34 2.5q-34 -9 -74 -44t-70 -84q-55 -93 -50 -152q4 -55 78 -3q34 25 78 76q11 29 29 59zM266 562h17l-61 -62l-54 -1zM305 564h17l58 -63l-54 1z" />
    <glyph glyph-name="atilde" unicode="&#xe3;" 
d="M284 411l66 -1q-90 -123 -124 -179q-59 -97 -47 -138q11 -39 68 0q23 15 45 33.5t45.5 43l38 40l42 47l37.5 42.5l6 -5q-141 -172 -232 -223q-55 -32 -90 -7.5t-17 88.5q-38 -41 -67 -62q-50 -36 -92 -30q-63 9 -49.5 88t83.5 161q81 93 159 95q12 0 23 -2q29 -5 37 -38
q5 -15 3 -34q0 -6 -1 -9zM204 301q7 17 7 29v13q-1 25 -10 33.5t-34 2.5q-34 -9 -74 -44t-70 -84q-55 -93 -50 -152q4 -55 78 -3q34 25 78 76q11 29 29 59zM391 567q1 -6 5 -13q-13 -36 -33 -46.5t-41 -4t-42 15t-41.5 5t-34.5 -27.5l-6 12q14 36 35.5 47.5t43.5 5t43.5 -15
t40.5 -5.5t30 27z" />
    <glyph glyph-name="adieresis" unicode="&#xe4;" 
d="M284 411l66 -1q-90 -123 -124 -179q-59 -97 -47 -138q11 -39 68 0q23 15 45 33.5t45.5 43l38 40l42 47l37.5 42.5l6 -5q-141 -172 -232 -223q-55 -32 -90 -7.5t-17 88.5q-38 -41 -67 -62q-50 -36 -92 -30q-63 9 -49.5 88t83.5 161q81 93 159 95q12 0 23 -2q29 -5 37 -38
q5 -15 3 -34q0 -6 -1 -9zM204 301q7 17 7 29v13q-1 25 -10 33.5t-34 2.5q-34 -9 -74 -44t-70 -84q-55 -93 -50 -152q4 -55 78 -3q34 25 78 76q11 29 29 59zM276 566q10 -5 12.5 -18.5t-5.5 -26.5q-7 -13 -19.5 -17.5t-22.5 1.5q-10 5 -12.5 18.5t5.5 26.5q7 13 19.5 17.5
t22.5 -1.5zM387 566q10 -5 12.5 -18.5t-5.5 -26.5q-7 -13 -19.5 -17.5t-22.5 1.5q-10 5 -12.5 18.5t5.5 26.5q7 13 19.5 17.5t22.5 -1.5z" />
    <glyph glyph-name="aring" unicode="&#xe5;" 
d="M284 411l66 -1q-90 -123 -124 -179q-59 -97 -47 -138q11 -39 68 0q23 15 45 33.5t45.5 43l38 40l42 47l37.5 42.5l6 -5q-141 -172 -232 -223q-55 -32 -90 -7.5t-17 88.5q-38 -41 -67 -62q-50 -36 -92 -30q-63 9 -49.5 88t83.5 161q81 93 159 95q12 0 23 -2q29 -5 37 -38
q5 -15 3 -34q0 -6 -1 -9zM204 301q7 17 7 29v13q-1 25 -10 33.5t-34 2.5q-34 -9 -74 -44t-70 -84q-55 -93 -50 -152q4 -55 78 -3q34 25 78 76q11 29 29 59zM277 559q7 23 24 38.5t34 14.5t24 -18t-1 -40q-7 -23 -24 -38.5t-34 -13.5q-16 0 -23 17t0 40zM302 553
q-4 -11 -0.5 -19.5t11.5 -8.5q20 0 29 26q7 27 -12 29q-19 0 -28 -27z" />
    <glyph glyph-name="ccedilla" unicode="&#xe7;" horiz-adv-x="366" 
d="M222 318q-4 -11 -13.5 -20t-18.5 -4q-7 6 -4.5 18t12 22t16.5 6q6 -3 5 -14q10 36 -18 48q-41 16 -104 -39q-32 -28 -64 -71q-44 -61 -44.5 -114.5t40.5 -68.5q116 -43 337 218l8 -4q-28 -35 -62 -70.5t-79.5 -75.5t-94 -65t-88.5 -25q-51 0 -82.5 31t-32 76.5t28.5 97.5
q62 99 153 131q68 24 100 -5q26 -24 5 -72zM0 39q6 -14 -1.5 -34.5t-24.5 -34.5q-16 -14 -33 -14t-24 14q-4 9 -2 23h7q0 -8 1 -11q3 -10 13 -9.5t21 11.5t16.5 27t3.5 25q0 1 -7.5 9t-6.5 18.5t15 27.5h13q-9 -9 -10.5 -16.5t2 -12t9.5 -11.5t8 -12z" />
    <glyph glyph-name="egrave" unicode="&#xe8;" horiz-adv-x="366" 
d="M229 365q14 -68 -77 -108q-51 -22 -120 -27q-4 0 -11 -0.5t-10 -1.5q-27 -51 -22 -92t40 -55q16 -6 34 -6.5t36 5t36.5 13.5t38 21.5t36.5 26.5t36 31l34 32.5t32.5 33.5t28.5 32l25 29l8 -4q-198 -240 -324 -236q-78 -4 -105.5 63t19.5 142q63 99 154 131q67 22 98 -7
q10 -9 13 -23zM15 236q3 1 7 1h9q71 7 118 27q86 40 69 96q-8 26 -50 15q-66 -18 -134 -111q-6 -7 -14 -21zM278 505h-17l-58 63l54 -1z" />
    <glyph glyph-name="eacute" unicode="&#xe9;" horiz-adv-x="366" 
d="M229 365q14 -68 -77 -108q-51 -22 -120 -27q-4 0 -11 -0.5t-10 -1.5q-27 -51 -22 -92t40 -55q16 -6 34 -6.5t36 5t36.5 13.5t38 21.5t36.5 26.5t36 31l34 32.5t32.5 33.5t28.5 32l25 29l8 -4q-198 -240 -324 -236q-78 -4 -105.5 63t19.5 142q63 99 154 131q67 22 98 -7
q10 -9 13 -23zM15 236q3 1 7 1h9q71 7 118 27q86 40 69 96q-8 26 -50 15q-66 -18 -134 -111q-6 -7 -14 -21zM123 500l61 62l54 1l-98 -63h-17z" />
    <glyph glyph-name="ecircumflex" unicode="&#xea;" horiz-adv-x="366" 
d="M229 365q14 -68 -77 -108q-51 -22 -120 -27q-4 0 -11 -0.5t-10 -1.5q-27 -51 -22 -92t40 -55q16 -6 34 -6.5t36 5t36.5 13.5t38 21.5t36.5 26.5t36 31l34 32.5t32.5 33.5t28.5 32l25 29l8 -4q-198 -240 -324 -236q-78 -4 -105.5 63t19.5 142q63 99 154 131q67 22 98 -7
q10 -9 13 -23zM15 236q3 1 7 1h9q71 7 118 27q86 40 69 96q-8 26 -50 15q-66 -18 -134 -111q-6 -7 -14 -21zM188 565h17l-61 -62l-54 -1zM227 567h17l58 -63l-54 1z" />
    <glyph glyph-name="edieresis" unicode="&#xeb;" horiz-adv-x="366" 
d="M229 365q14 -68 -77 -108q-51 -22 -120 -27q-4 0 -11 -0.5t-10 -1.5q-27 -51 -22 -92t40 -55q16 -6 34 -6.5t36 5t36.5 13.5t38 21.5t36.5 26.5t36 31l34 32.5t32.5 33.5t28.5 32l25 29l8 -4q-198 -240 -324 -236q-78 -4 -105.5 63t19.5 142q63 99 154 131q67 22 98 -7
q10 -9 13 -23zM15 236q3 1 7 1h9q71 7 118 27q86 40 69 96q-8 26 -50 15q-66 -18 -134 -111q-6 -7 -14 -21zM197 567q10 -5 12.5 -18.5t-5.5 -26.5q-7 -13 -19.5 -17.5t-22.5 1.5q-10 5 -12.5 18.5t5.5 26.5q7 13 19.5 17.5t22.5 -1.5zM308 567q10 -5 12.5 -18.5t-5.5 -26.5
q-7 -13 -19.5 -17.5t-22.5 1.5q-10 5 -12.5 18.5t5.5 26.5q7 13 19.5 17.5t22.5 -1.5z" />
    <glyph glyph-name="igrave" unicode="&#xec;" horiz-adv-x="241" 
d="M25 412l112 -2q-87 -118 -124 -180q-58 -94 -47 -137q11 -39 69 -2q33 22 72.5 62t111.5 120l25 27l2 -3l3 -2q-12 -15 -24 -27q-85 -94 -133 -140q-42 -39 -76 -57q-47 -24 -79.5 -12t-33 55t41.5 116q42 67 91 133l-51 2zM154 502h-17l-58 63l54 -1z" />
    <glyph glyph-name="iacute" unicode="&#xed;" horiz-adv-x="241" 
d="M25 412l112 -2q-87 -118 -124 -180q-58 -94 -47 -137q11 -39 69 -2q33 22 72.5 62t111.5 120l25 27l2 -3l3 -2q-12 -15 -24 -27q-85 -94 -133 -140q-42 -39 -76 -57q-47 -24 -79.5 -12t-33 55t41.5 116q42 67 91 133l-51 2zM87 500l61 62l54 1l-98 -63h-17z" />
    <glyph glyph-name="icircumflex" unicode="&#xee;" horiz-adv-x="241" 
d="M25 412l112 -2q-87 -118 -124 -180q-58 -94 -47 -137q11 -39 69 -2q33 22 72.5 62t111.5 120l25 27l2 -3l3 -2q-12 -15 -24 -27q-85 -94 -133 -140q-42 -39 -76 -57q-47 -24 -79.5 -12t-33 55t41.5 116q42 67 91 133l-51 2zM109 571h17l-61 -62l-54 -1zM148 573h17
l58 -63l-54 1z" />
    <glyph glyph-name="idieresis" unicode="&#xef;" horiz-adv-x="241" 
d="M25 412l112 -2q-87 -118 -124 -180q-58 -94 -47 -137q11 -39 69 -2q33 22 72.5 62t111.5 120l25 27l2 -3l3 -2q-12 -15 -24 -27q-85 -94 -133 -140q-42 -39 -76 -57q-47 -24 -79.5 -12t-33 55t41.5 116q42 67 91 133l-51 2zM89 562q10 -5 12.5 -18.5t-5.5 -26.5
q-7 -13 -19.5 -17.5t-22.5 1.5q-10 5 -12.5 18.5t5.5 26.5q7 13 19.5 17.5t22.5 -1.5zM200 562q10 -5 12.5 -18.5t-5.5 -26.5q-7 -13 -19.5 -17.5t-22.5 1.5q-10 5 -12.5 18.5t5.5 26.5q7 13 19.5 17.5t22.5 -1.5z" />
    <glyph glyph-name="ntilde" unicode="&#xf1;" horiz-adv-x="453" 
d="M72 413l67 -1l-167 -230q180 219 254 227q25 3 45 -6.5t26 -32.5t-18 -61l-49 -76l-39.5 -57t-26 -38t-15.5 -28t-2 -17q5 -17 23 -19.5t35.5 4t30.5 15.5q83 55 217 206l7 -5q-145 -169 -242 -223q-34 -19 -71 -16.5t-52.5 27.5t11.5 77q9 15 118 177q10 16 3 30t-21 16
q-22 3 -71 -40t-92 -92l-90.5 -106.5t-50.5 -60.5l-11 -13l-11 -14h-68zM345 567q1 -6 5 -13q-13 -36 -33 -46.5t-41 -4t-42 15t-41.5 5t-34.5 -27.5l-6 12q14 36 35.5 47.5t43.5 5t43.5 -15t40.5 -5.5t30 27z" />
    <glyph glyph-name="ograve" unicode="&#xf2;" horiz-adv-x="395" 
d="M143 173q22 -6 44 -5.5t39.5 4t38.5 15t33 19t31.5 25.5l25.5 23.5t23 25.5l18 19l4 -2l3 -2l-11 -13l-16 -17.5l-19 -20t-23.5 -22l-26 -20.5t-30 -19.5t-32 -14t-35 -10t-36.5 -1.5t-39 7h-1q-31 -40 -79 -77q-48 -35 -92 -28q-63 10 -50 89q14 79 84 161q81 93 159 95
q12 0 23 -2q10 -1 18 -8q6 -4 9 -12q9 -15 9 -37q0 -15 -3 -31q-13 -65 -61 -127l-10 -14q1 -1 2 0zM145 192q50 72 59 124q2 16 3 32t-9 26t-31 4q-34 -9 -74 -43.5t-70 -83.5q-55 -92 -50 -152q1 -16 9.5 -22t21 -3t24.5 8.5t23 13.5q1 0 10.5 7.5l17.5 14t21.5 20
t26.5 29.5l-1 1q-14 5 -11 14q3 11 18 0q1 -2 3 -3zM240 503h-17l-58 63l54 -1z" />
    <glyph glyph-name="oacute" unicode="&#xf3;" horiz-adv-x="395" 
d="M143 173q22 -6 44 -5.5t39.5 4t38.5 15t33 19t31.5 25.5l25.5 23.5t23 25.5l18 19l4 -2l3 -2l-11 -13l-16 -17.5l-19 -20t-23.5 -22l-26 -20.5t-30 -19.5t-32 -14t-35 -10t-36.5 -1.5t-39 7h-1q-31 -40 -79 -77q-48 -35 -92 -28q-63 10 -50 89q14 79 84 161q81 93 159 95
q12 0 23 -2q10 -1 18 -8q6 -4 9 -12q9 -15 9 -37q0 -15 -3 -31q-13 -65 -61 -127l-10 -14q1 -1 2 0zM145 192q50 72 59 124q2 16 3 32t-9 26t-31 4q-34 -9 -74 -43.5t-70 -83.5q-55 -92 -50 -152q1 -16 9.5 -22t21 -3t24.5 8.5t23 13.5q1 0 10.5 7.5l17.5 14t21.5 20
t26.5 29.5l-1 1q-14 5 -11 14q3 11 18 0q1 -2 3 -3zM174 507l61 62l54 1l-98 -63h-17z" />
    <glyph glyph-name="ocircumflex" unicode="&#xf4;" horiz-adv-x="395" 
d="M143 173q22 -6 44 -5.5t39.5 4t38.5 15t33 19t31.5 25.5l25.5 23.5t23 25.5l18 19l4 -2l3 -2l-11 -13l-16 -17.5l-19 -20t-23.5 -22l-26 -20.5t-30 -19.5t-32 -14t-35 -10t-36.5 -1.5t-39 7h-1q-31 -40 -79 -77q-48 -35 -92 -28q-63 10 -50 89q14 79 84 161q81 93 159 95
q12 0 23 -2q10 -1 18 -8q6 -4 9 -12q9 -15 9 -37q0 -15 -3 -31q-13 -65 -61 -127l-10 -14q1 -1 2 0zM145 192q50 72 59 124q2 16 3 32t-9 26t-31 4q-34 -9 -74 -43.5t-70 -83.5q-55 -92 -50 -152q1 -16 9.5 -22t21 -3t24.5 8.5t23 13.5q1 0 10.5 7.5l17.5 14t21.5 20
t26.5 29.5l-1 1q-14 5 -11 14q3 11 18 0q1 -2 3 -3zM197 562h17l-61 -62l-54 -1zM236 564h17l58 -63l-54 1z" />
    <glyph glyph-name="otilde" unicode="&#xf5;" horiz-adv-x="395" 
d="M143 173q22 -6 44 -5.5t39.5 4t38.5 15t33 19t31.5 25.5l25.5 23.5t23 25.5l18 19l4 -2l3 -2l-11 -13l-16 -17.5l-19 -20t-23.5 -22l-26 -20.5t-30 -19.5t-32 -14t-35 -10t-36.5 -1.5t-39 7h-1q-31 -40 -79 -77q-48 -35 -92 -28q-63 10 -50 89q14 79 84 161q81 93 159 95
q12 0 23 -2q10 -1 18 -8q6 -4 9 -12q9 -15 9 -37q0 -15 -3 -31q-13 -65 -61 -127l-10 -14q1 -1 2 0zM145 192q50 72 59 124q2 16 3 32t-9 26t-31 4q-34 -9 -74 -43.5t-70 -83.5q-55 -92 -50 -152q1 -16 9.5 -22t21 -3t24.5 8.5t23 13.5q1 0 10.5 7.5l17.5 14t21.5 20
t26.5 29.5l-1 1q-14 5 -11 14q3 11 18 0q1 -2 3 -3zM287 567q1 -6 5 -13q-13 -36 -33 -46.5t-41 -4t-42 15t-41.5 5t-34.5 -27.5l-6 12q14 36 35.5 47.5t43.5 5t43.5 -15t40.5 -5.5t30 27z" />
    <glyph glyph-name="odieresis" unicode="&#xf6;" horiz-adv-x="395" 
d="M143 173q22 -6 44 -5.5t39.5 4t38.5 15t33 19t31.5 25.5l25.5 23.5t23 25.5l18 19l4 -2l3 -2l-11 -13l-16 -17.5l-19 -20t-23.5 -22l-26 -20.5t-30 -19.5t-32 -14t-35 -10t-36.5 -1.5t-39 7h-1q-31 -40 -79 -77q-48 -35 -92 -28q-63 10 -50 89q14 79 84 161q81 93 159 95
q12 0 23 -2q10 -1 18 -8q6 -4 9 -12q9 -15 9 -37q0 -15 -3 -31q-13 -65 -61 -127l-10 -14q1 -1 2 0zM145 192q50 72 59 124q2 16 3 32t-9 26t-31 4q-34 -9 -74 -43.5t-70 -83.5q-55 -92 -50 -152q1 -16 9.5 -22t21 -3t24.5 8.5t23 13.5q1 0 10.5 7.5l17.5 14t21.5 20
t26.5 29.5l-1 1q-14 5 -11 14q3 11 18 0q1 -2 3 -3zM177 564q10 -5 12.5 -18.5t-5.5 -26.5q-7 -13 -19.5 -17.5t-22.5 1.5q-10 5 -12.5 18.5t5.5 26.5q7 13 19.5 17.5t22.5 -1.5zM288 564q10 -5 12.5 -18.5t-5.5 -26.5q-7 -13 -19.5 -17.5t-22.5 1.5q-10 5 -12.5 18.5
t5.5 26.5q7 13 19.5 17.5t22.5 -1.5z" />
    <glyph glyph-name="divide" unicode="&#xf7;" horiz-adv-x="223" 
d="M52 138q10 -5 12.5 -18.5t-5.5 -26.5q-7 -13 -19.5 -17.5t-22.5 1.5q-10 5 -12.5 18.5t5.5 26.5q7 13 19.5 17.5t22.5 -1.5zM202 374q10 -5 12.5 -18.5t-5.5 -26.5q-7 -13 -19.5 -17.5t-22.5 1.5q-10 5 -12.5 18.5t5.5 26.5q7 13 19.5 17.5t22.5 -1.5zM30 248h225
q-15 -15 -39 -47h-226z" />
    <glyph glyph-name="ugrave" unicode="&#xf9;" horiz-adv-x="483" 
d="M313 411l66 -1q-85 -115 -124 -179q-59 -97 -47 -138q12 -40 69 -1q23 15 54.5 44.5t54.5 54.5l75 82l24 27l3 -3l3 -2l-24 -27q-96 -105 -133 -139q-39 -38 -76 -58q-47 -23 -79 -12t-33.5 52.5t37.5 112.5q-52 -58 -92 -95q-41 -39 -76 -58q-47 -24 -79.5 -12t-33 55
t41.5 117q34 56 126 180l66 -1q-90 -123 -124 -179q-58 -95 -47 -138q12 -40 69 -1q22 14 51 41t51.5 51l68.5 75q26 41 108 152zM339 500h-17l-58 63l54 -1z" />
    <glyph glyph-name="uacute" unicode="&#xfa;" horiz-adv-x="483" 
d="M313 411l66 -1q-85 -115 -124 -179q-59 -97 -47 -138q12 -40 69 -1q23 15 54.5 44.5t54.5 54.5l75 82l24 27l3 -3l3 -2l-24 -27q-96 -105 -133 -139q-39 -38 -76 -58q-47 -23 -79 -12t-33.5 52.5t37.5 112.5q-52 -58 -92 -95q-41 -39 -76 -58q-47 -24 -79.5 -12t-33 55
t41.5 117q34 56 126 180l66 -1q-90 -123 -124 -179q-58 -95 -47 -138q12 -40 69 -1q22 14 51 41t51.5 51l68.5 75q26 41 108 152zM179 501l61 62l54 1l-98 -63h-17z" />
    <glyph glyph-name="ucircumflex" unicode="&#xfb;" horiz-adv-x="483" 
d="M313 411l66 -1q-85 -115 -124 -179q-59 -97 -47 -138q12 -40 69 -1q23 15 54.5 44.5t54.5 54.5l75 82l24 27l3 -3l3 -2l-24 -27q-96 -105 -133 -139q-39 -38 -76 -58q-47 -23 -79 -12t-33.5 52.5t37.5 112.5q-52 -58 -92 -95q-41 -39 -76 -58q-47 -24 -79.5 -12t-33 55
t41.5 117q34 56 126 180l66 -1q-90 -123 -124 -179q-58 -95 -47 -138q12 -40 69 -1q22 14 51 41t51.5 51l68.5 75q26 41 108 152zM254 565h17l-61 -62l-54 -1zM293 567h17l58 -63l-54 1z" />
    <glyph glyph-name="udieresis" unicode="&#xfc;" horiz-adv-x="483" 
d="M313 411l66 -1q-85 -115 -124 -179q-59 -97 -47 -138q12 -40 69 -1q23 15 54.5 44.5t54.5 54.5l75 82l24 27l3 -3l3 -2l-24 -27q-96 -105 -133 -139q-39 -38 -76 -58q-47 -23 -79 -12t-33.5 52.5t37.5 112.5q-52 -58 -92 -95q-41 -39 -76 -58q-47 -24 -79.5 -12t-33 55
t41.5 117q34 56 126 180l66 -1q-90 -123 -124 -179q-58 -95 -47 -138q12 -40 69 -1q22 14 51 41t51.5 51l68.5 75q26 41 108 152zM244 562q10 -5 12.5 -18.5t-5.5 -26.5q-7 -13 -19.5 -17.5t-22.5 1.5q-10 5 -12.5 18.5t5.5 26.5q7 13 19.5 17.5t22.5 -1.5zM355 562
q10 -5 12.5 -18.5t-5.5 -26.5q-7 -13 -19.5 -17.5t-22.5 1.5q-10 5 -12.5 18.5t5.5 26.5q7 13 19.5 17.5t22.5 -1.5z" />
    <glyph glyph-name="yacute" unicode="&#xfd;" horiz-adv-x="464" 
d="M110 19q-33 -56 -87.5 -119t-126.5 -116.5t-128 -57.5q-46 -3 -67 21q-22 25 -1 65q21 41 93.5 91.5t185.5 94.5l54 20l24 36h1l113 155q-58 -60 -79 -80q-40 -37 -76 -57q-47 -24 -79.5 -12.5t-33 54.5t41.5 117q29 47 125 180h67q-96 -132 -125 -180q-58 -97 -46 -138
q11 -41 69 -1q50 34 175 172l106 147h67l-241 -346q66 31 112 59q122 72 211 176l7 -5q-87 -103 -214 -178q-58 -34 -125 -64zM-293 -248q34 -36 132.5 50.5t184.5 204.5l-42 -17q-112 -43 -183.5 -93t-91.5 -89q-18 -35 0 -56zM218 501l61 62l54 1l-98 -63h-17z" />
    <glyph glyph-name="thorn" unicode="&#xfe;" horiz-adv-x="369" 
d="M313 674h66l-233 -320q11 10 25 19q49 38 92 31q31 -5 43.5 -28.5t7 -56.5t-23.5 -71.5t-45 -74.5q22 -6 44 -5.5t39.5 4t38.5 15t33 19t31.5 25.5l25.5 23.5t23 25.5l18 19l4 -2l3 -2l-11 -13l-16 -17.5l-19 -20t-23.5 -22l-26 -20.5t-30 -19.5t-32 -14t-35 -10
t-36.5 -1.5t-39 7q-43 -53 -93.5 -82.5t-96.5 -20.5q-27 5 -37 38q-5 15 -3 34q1 19 23 61l-292 -394h-68zM182 191q-14 6 -9 17q5 12 20 1l3 -3l2 -2l5 8q55 92 50 152q-4 55 -78 3q-29 -22 -60 -56l-58 -79h1q-4 -8 -16.5 -31t-19 -38.5t-7.5 -29.5v-13q2 -25 11 -33
t33 -2q29 7 64 35t64 68z" />
    <glyph glyph-name="ydieresis" unicode="&#xff;" horiz-adv-x="464" 
d="M110 19q-33 -56 -87.5 -119t-126.5 -116.5t-128 -57.5q-46 -3 -67 21q-22 25 -1 65q21 41 93.5 91.5t185.5 94.5l54 20l24 36h1l113 155q-58 -60 -79 -80q-40 -37 -76 -57q-47 -24 -79.5 -12.5t-33 54.5t41.5 117q29 47 125 180h67q-96 -132 -125 -180q-58 -97 -46 -138
q11 -41 69 -1q50 34 175 172l106 147h67l-241 -346q66 31 112 59q122 72 211 176l7 -5q-87 -103 -214 -178q-58 -34 -125 -64zM-293 -248q34 -36 132.5 50.5t184.5 204.5l-42 -17q-112 -43 -183.5 -93t-91.5 -89q-18 -35 0 -56zM227 562q10 -5 12.5 -18.5t-5.5 -26.5
q-7 -13 -19.5 -17.5t-22.5 1.5q-10 5 -12.5 18.5t5.5 26.5q7 13 19.5 17.5t22.5 -1.5zM338 562q10 -5 12.5 -18.5t-5.5 -26.5q-7 -13 -19.5 -17.5t-22.5 1.5q-10 5 -12.5 18.5t5.5 26.5q7 13 19.5 17.5t22.5 -1.5z" />
    <glyph glyph-name="dotlessi" unicode="&#x131;" horiz-adv-x="241" 
d="M25 412l112 -2q-87 -118 -124 -180q-58 -94 -47 -137q11 -39 69 -2q33 22 72.5 62t111.5 120l25 27l2 -3l3 -2q-12 -15 -24 -27q-85 -94 -133 -140q-42 -39 -76 -57q-47 -24 -79.5 -12t-33 55t41.5 116q42 67 91 133l-51 2z" />
    <glyph glyph-name="OE" unicode="&#x152;" horiz-adv-x="1408" 
d="M879 637q173 95 263 3q54 38 120.5 41.5t102.5 -21.5q57 -32 38 -79q-17 -41 -75 -58q-28 -9 -59 -7q-2 0 -6 0.5t-7 0.5q-61 7 -144 37q-13 -41 10 -73.5t80 -40.5l-1 -3q-114 6 -210.5 -74t-134.5 -188q-29 -81 -10.5 -149t73.5 -94q70 -33 172 34q44 28 77 67
q42 51 55 98q13 46 -7 79q-1 1 -1 2q-16 21 -41 28q-8 2 -24 4h-21q-41 -5 -79 -30l-7 -5q-31 -22 -57 -58q-25 -39 -40 -83l-8 2q17 49 42 86q25 36 58 60l8 4q53 35 103 32q49 -2 72 -36q1 0 1 -2q23 -34 9 -85q-12 -47 -57 -101q-37 -42 -79 -69q-24 -14 -38 -21
q-39 -19 -80 -26q-27 -5 -69 1q-89 17 -121 100q-182 -143 -275 -108q-68 26 -60 136q9 138 125 308q27 40 59 79q106 129 233 203q-248 77 -351 83q-203 22 -346 -118q-107 -105 -139 -254q-29 -140 27 -229q52 -82 161 -78q67 1 130 53q63 50 78 116l8 -2
q-15 -67 -81 -120q-65 -53 -134 -56q-134 -5 -190 103q-52 100 -15 241q38 152 155 250q144 122 347 102q133 -14 360 -85zM674 384q-177 -238 -176 -369q1 -79 67 -88q81 -12 205 85q7 5 14 11q-21 72 9 152q38 106 144.5 190.5t221.5 78.5q-64 7 -85.5 44.5t3.5 78.5
q-18 5 -42.5 12.5l-60 19t-59.5 18.5q-65 -41 -130.5 -105.5t-110.5 -127.5zM1115 561q86 -30 142 -36q2 0 6 -0.5t6 -0.5q71 -4 111 37q34 35 11 66q-11 14 -31 23q-36 16 -85 14q-57 -3 -100 -32.5t-60 -70.5zM1081 574q19 31 50 57q-72 72 -207 -8q114 -37 157 -49z" />
    <glyph glyph-name="Scaron" unicode="&#x160;" horiz-adv-x="1004" 
d="M938 547q-20 -50 -46.5 -165t-42.5 -163q-50 -144 -137.5 -216t-170.5 -67q-34 3 -61 18q-60 35 -64 107q0 47 26 96q48 91 146.5 138.5t195.5 20.5l-2 -8q-95 27 -190.5 -19.5t-140.5 -136.5q-22 -44 -24 -83t23.5 -66t77.5 -28q67 6 136 68t112 176q12 33 35.5 106.5
t45 131t46.5 100.5q-42 13 -141 52q-170 68 -255 77q-212 20 -352 -117q-103 -100 -127 -239q-22 -130 38 -210q54 -73 159 -67q67 1 130 53q63 51 78 116l7 -2q-16 -68 -80 -120q-66 -53 -135 -56q-135 -5 -193 99q-53 95 -19 226q37 143 152 234q141 111 342 91
q85 -9 258 -78q99 -39 142 -52q27 44 75 78t99.5 42.5t94.5 -21.5q17 -13 24 -35q6 -17 -1 -39q-10 -31 -42 -50q-60 -35 -219 8zM942 554q155 -40 211 -8q29 18 39 45q5 21 0 35q-5 18 -20 30q-56 37 -129 0.5t-101 -102.5zM1025 753h-17l61 62l54 1zM986 751h-17l-58 63
l54 -1z" />
    <glyph glyph-name="scaron" unicode="&#x161;" horiz-adv-x="271" 
d="M-66 55q-28 1 -41 20q-7 12 -6 27q0 15 11 31q33 49 131 68q5 22 5.5 65.5t4.5 62.5l-44 -49l-6 6l45 51l8 9q1 3 6.5 32t14.5 48.5t26 31.5q12 9 23 7q12 -2 15 -14q4 -17 -17 -40q-12 -16 -41 -48q-1 -21 9 -70t8 -80q39 9 79 23q73 27 108 64l4 -4l2 -1
q-35 -39 -112 -66q-38 -15 -82 -24q-11 -72 -53.5 -110t-97.5 -40zM29 193q-95 -19 -124 -64q-9 -14 -11 -27q0 -10 3 -16q16 -19 43.5 -7.5t55.5 46.5t33 68zM156 504h-17l61 62l54 1zM117 502h-17l-58 63l54 -1z" />
    <glyph glyph-name="Ydieresis" unicode="&#x178;" horiz-adv-x="1172" 
d="M1423 662v1q18 -2 52 -8q25 -6 46 -16l-3 -7q-21 9 -45 15q-17 4 -51 8q-14 0 -28 -3q-89 -13 -169 -88t-171 -205l-229 -326q-135 -194 -228 -257t-210 -56q-64 6 -109 28q-49 25 -94 79l6 5q43 -51 92 -76q35 -19 93 -27q49 -1 96.5 19.5t93 62.5t82.5 86.5t84 109.5
l95 137q-99 -123 -166.5 -174.5t-136.5 -47.5q-27 2 -41.5 16t-15.5 37.5t3.5 48.5t17 57.5t23 56l23.5 51.5t17 36q74 169 70 283q-2 68 -35.5 112.5t-84.5 60t-109.5 11.5t-114.5 -26q-128 -52 -199 -191q-66 -128 -50 -255q15 -124 102 -166q40 -19 91 -17q69 3 130 53
q63 52 78 117l8 -2q-15 -66 -81 -121q-63 -52 -134 -55q-134 -5 -190 105q-52 100 -17 239q36 146 145 238q52 44 114 66q61 22 122 24t115.5 -15t97 -60t60.5 -108q49 -139 -52 -334q-64 -124 -76 -167q-17 -67 26 -73q95 -13 349 327l66 94q101 142 169 202
q56 51 129.5 75.5t143.5 19.5zM910 810q10 -5 12.5 -18.5t-5.5 -26.5q-7 -13 -19.5 -17.5t-22.5 1.5q-10 5 -12.5 18.5t5.5 26.5q7 13 19.5 17.5t22.5 -1.5zM1021 810q10 -5 12.5 -18.5t-5.5 -26.5q-7 -13 -19.5 -17.5t-22.5 1.5q-10 5 -12.5 18.5t5.5 26.5q7 13 19.5 17.5
t22.5 -1.5z" />
    <glyph glyph-name="Zcaron" unicode="&#x17d;" horiz-adv-x="957" 
d="M490 -237v-1q-39 -19 -77 -26q-31 -7 -75 -9q-78 -1 -131 38q-30 23 -45 56q-14 34 -7 62q6 31 33 50l4 -6q-24 -18 -30 -45q-7 -29 7 -58q16 -37 49.5 -56.5t70.5 -20t77 6.5l12 3h1q149 41 250 201q85 132 95 271q9 126 -53 168q-32 22 -79 14l3 12q83 10 170 90
q109 101 147 125l-39 6q-233 39 -371 45q-216 9 -354 -131q-101 -104 -121 -243q-18 -129 45 -207q56 -69 159 -65q67 3 130 54q64 51 78 116l5 -1l3 -1q-15 -67 -81 -120q-63 -53 -134 -56q-138 -5 -198 99q-55 95 -22 226q36 143 154 236q138 109 337 101q138 -6 371 -45
l48 -8q51 30 108 37.5t76 -2.5q9 -3 16.5 -6t14.5 -11t5 -17q-1 -6 -8 -13q-26 -20 -88 -13q-40 4 -60 7q-21 -13 -80 -64.5t-118 -91.5q-52 -37 -122 -50q58 -16 85.5 -76.5t19 -142.5t-40.5 -167t-96 -160t-144 -111zM997 633q2 -1 6 -1q27 -4 44 -5q59 -7 81 11q6 4 6 9
q3 29 -100 -1q-28 -8 -37 -13zM829 748h-17l61 62l54 1zM790 746h-17l-58 63l54 -1z" />
    <glyph glyph-name="zcaron" unicode="&#x17e;" horiz-adv-x="395" 
d="M90 411l201 -1q-8 -8 -55 -50l-80 -74t-66 -77t-39 -79q-4 -25 1.5 -34.5t14.5 -7.5t26.5 6.5t28.5 4.5q17 0 35.5 -6t29.5 -11l11 -4q89 89 197 221l8 -4q-123 -149 -213 -239l-10 4q-10 5 -29 9.5t-37 4.5q-15 0 -38 -6.5t-37 -9.5t-27 4t-18 30q-22 99 221 310h-122
q-12 -14 -44.5 -56.5t-51.5 -63.5l-6 6q18 21 52 64.5l46 58.5h1zM283 499h-17l61 62l54 1zM244 497h-17l-58 63l54 -1z" />
    <glyph glyph-name="circumflex" unicode="&#x2c6;" horiz-adv-x="343" 
d="M156 641h17l-61 -62l-54 -1zM195 643h17l58 -63l-54 1z" />
    <glyph glyph-name="caron" unicode="&#x2c7;" horiz-adv-x="325" 
d="M190 580h-17l61 62l54 1zM151 578h-17l-58 63l54 -1z" />
    <glyph glyph-name="ring" unicode="&#x2da;" horiz-adv-x="177" 
d="M31 565q7 23 24 38.5t34 14.5t24 -18t-1 -40q-7 -23 -24 -38.5t-34 -13.5q-16 0 -23 17t0 40zM56 559q-4 -11 -0.5 -19.5t11.5 -8.5q20 0 29 26q7 27 -12 29q-19 0 -28 -27z" />
    <glyph glyph-name="tilde" unicode="&#x2dc;" horiz-adv-x="286" 
d="M234 612q2 -6 5 -13q-13 -36 -33 -46.5t-41 -4t-42 15t-41.5 5t-34.5 -27.5l-6 12q14 36 35.5 47.5t43.5 5t43.5 -15t40.5 -5.5t30 27z" />
    <glyph glyph-name="hungarumlaut" unicode="&#x2dd;" horiz-adv-x="289" 
d="M24 584l61 62l54 1l-98 -63h-17zM128 584l61 62l54 1l-98 -63h-17z" />
    <glyph glyph-name="endash" unicode="&#x2013;" horiz-adv-x="503" 
d="M114 247h345q-15 -15 -39 -47h-346z" />
    <glyph glyph-name="emdash" unicode="&#x2014;" horiz-adv-x="605" 
d="M114 247h403q-15 -15 -39 -47h-404z" />
    <glyph glyph-name="quoteleft" unicode="&#x2018;" horiz-adv-x="154" 
d="M72 461q-13 0 -20.5 9t-5.5 22q3 13 12 20l42 42h17l-22 -33q19 -9 14 -29q-2 -13 -13 -22t-24 -9z" />
    <glyph glyph-name="quoteright" unicode="&#x2019;" horiz-adv-x="179" 
d="M90 554q13 0 20.5 -9t5.5 -22q-3 -13 -12 -20l-42 -42h-17l22 33q-19 9 -14 29q2 13 13 22t24 9z" />
    <glyph glyph-name="quotesinglbase" unicode="&#x201a;" horiz-adv-x="190" 
d="M90 149q13 0 20.5 -9t5.5 -22q-3 -13 -12 -20l-42 -42h-17l22 33q-19 9 -14 29q2 13 13 22t24 9z" />
    <glyph glyph-name="quotedblleft" unicode="&#x201c;" horiz-adv-x="269" 
d="M107 461q-13 0 -20.5 9t-5.5 22q3 13 12 20l42 42h17l-22 -33q19 -9 14 -29q-2 -13 -13 -22t-24 -9zM188 461q-13 0 -20.5 9t-5.5 22q3 13 12 20l42 42h17l-22 -33q19 -9 14 -29q-2 -13 -13 -22t-24 -9z" />
    <glyph glyph-name="quotedblright" unicode="&#x201d;" horiz-adv-x="224" 
d="M171 554q13 0 20.5 -9t5.5 -22q-3 -13 -12 -20l-42 -42h-17l22 33q-19 9 -14 29q2 13 13 22t24 9zM90 554q13 0 20.5 -9t5.5 -22q-3 -13 -12 -20l-42 -42h-17l22 33q-19 9 -14 29q2 13 13 22t24 9z" />
    <glyph glyph-name="quotedblbase" unicode="&#x201e;" horiz-adv-x="257" 
d="M90 149q13 0 20.5 -9t5.5 -22q-3 -13 -12 -20l-42 -42h-17l22 33q-19 9 -14 29q2 13 13 22t24 9zM174 149q13 0 20.5 -9t5.5 -22q-3 -13 -12 -20l-42 -42h-17l22 33q-19 9 -14 29q2 13 13 22t24 9z" />
    <glyph glyph-name="bullet" unicode="&#x2022;" horiz-adv-x="347" 
d="M109 251q17 50 52 84t67 31q32 -4 42.5 -42t-6.5 -88q-18 -51 -53 -84t-67 -29q-32 3 -42.5 40.5t7.5 87.5z" />
    <glyph glyph-name="ellipsis" unicode="&#x2026;" horiz-adv-x="366" 
d="M77 92q10 -5 12.5 -18.5t-5.5 -26.5q-7 -13 -19.5 -17.5t-22.5 1.5q-10 5 -12.5 18.5t5.5 26.5q7 13 19.5 17.5t22.5 -1.5zM321 92q10 -5 12.5 -18.5t-5.5 -26.5q-7 -13 -19.5 -17.5t-22.5 1.5q-10 5 -12.5 18.5t5.5 26.5q7 13 19.5 17.5t22.5 -1.5zM199 92
q10 -5 12.5 -18.5t-5.5 -26.5q-7 -13 -19.5 -17.5t-22.5 1.5q-10 5 -12.5 18.5t5.5 26.5q7 13 19.5 17.5t22.5 -1.5z" />
    <glyph glyph-name="guilsinglleft" unicode="&#x2039;" horiz-adv-x="367" 
d="M37 140l33 177l298 180l-15 -78l-233 -141l-18 -99l182 -141l-15 -79z" />
    <glyph glyph-name="guilsinglright" unicode="&#x203a;" horiz-adv-x="436" 
d="M371 319l-33 -177l-298 -180l15 78l233 141l18 99l-182 141l15 79z" />
    <glyph glyph-name="fraction" unicode="&#x2044;" horiz-adv-x="310" 
d="M384 690h74l-529 -800l-50 -1z" />
    <glyph glyph-name="Euro" unicode="&#x20ac;" horiz-adv-x="347" 
d="M452 726q82 -33 87 -159l-19 9q-8 96 -83 125q-43 17 -113.5 -38t-148.5 -152h71q-6 -8 -10 -12h-71q-58 -84 -100 -186h79l-9 -13h-74q-33 -92 -26.5 -169t43.5 -90q65 -22 156 37l26 -12q-41 -28 -71.5 -42.5t-66.5 -19t-67 10.5q-56 21 -76 96t10 189h-80q0 1 4 5.5
t6 7.5h74q44 126 91 186h-73l10 12h73q90 123 187.5 183t170.5 32z" />
    <glyph glyph-name="minus" unicode="&#x2212;" horiz-adv-x="833" 
d="M114 247h225q-15 -15 -39 -47h-226z" />
    <glyph glyph-name="A_0.001" unicode="&#xe000;" horiz-adv-x="1078" 
d="M1118 668q67 -1 94 -23q9 -7 11 -15q2 -9 -6 -17q-16 -16 -60 -20q-23 -3 -56 -1q-44 -49 -87 -130.5t-72.5 -168.5t-45.5 -167t-8 -135.5t42 -63.5q-35 4 -55.5 28t-25.5 61t-2.5 79t13 87.5t21 80.5t21.5 64h-176l-39.5 -57t-43 -61.5l-38 -52t-44 -56l-39.5 -43.5
t-46 -46t-43 -33q-88 -60 -201 -56q-150 7 -247 110q-60 64 -84 149q-25 87 -10 179q26 161 155 281q54 51 114.5 86.5t116.5 56t125 28.5t124 8t130 -10t127 -20t130 -27q224 -50 307 -60q235 -27 387 67q48 30 91 73l6 -6q-37 -36 -78 -63.5t-78.5 -45.5t-86 -28
t-85.5 -15t-91.5 -2t-90 6t-96 14t-93.5 18.5l-97 21.5q-66 15 -100 22t-97.5 18.5t-101 15t-96 6.5t-99 -3t-93 -17t-94.5 -30.5t-88 -49.5t-88 -69q-128 -120 -152 -277q-15 -91 10 -176q25 -86 82 -146q40 -42 105.5 -74t137.5 -31q26 0 51.5 7t51.5 23.5l47 31
t47.5 43.5l43.5 48.5t45 57.5l42.5 58l44.5 64l43 62h-44l2 10h47l20 29q104 145 173 207q28 25 67 48q-23 4 -69 14q-240 49 -339 53q-216 9 -354 -130q-102 -103 -122 -241q-19 -129 45 -207q57 -69 161 -66q67 3 129.5 54t77.5 116l8 -2q-15 -66 -81 -121
q-66 -52 -134 -55q-142 -5 -202 99q-54 94 -19 226q38 142 157 235q138 108 334 100q100 -4 340 -53l78 -17q94 48 193 42zM1058 596q-23 3 -85 13q-66 -45 -142 -138q-37 -46 -99 -134h174l1 1q71 178 151 258zM983 615q42 -7 83 -12q55 50 111 50q-28 7 -59 7v1
q-4 0 -6 -1q-8 0 -20 -2q-53 -7 -109 -43zM1108 600h3q26 -2 45 1q42 4 56 18q4 5 3 9q0 5 -8 11q-5 5 -18 10l-1 1h-3q-36 -7 -77 -50z" />
    <glyph glyph-name="B_0.001" unicode="&#xe001;" horiz-adv-x="1185" 
d="M1158 669l2 -1h2q26 -7 46 -15l-1 -4l-2 -3q-23 10 -45 14q-27 7 -50 8q-82 -3 -167 -68q26 -21 40 -40q30 -39 33 -81q2 -42 -25 -79q-47 -65 -172 -92q54 -3 96 -19q81 -32 86 -113q5 -79 -61 -150q-83 -88 -216 -90q-13 0 -26 1q-40 2 -116 14q-154 22 -215 4
q-67 -26 -138 -25q-68 1 -133 30t-112 79q-60 64 -84 149q-25 87 -10 179q26 161 155 281q63 59 131.5 98.5t143 56.5t141.5 23t152 -4t146.5 -21t152.5 -31q224 -50 307 -60q235 -27 387 67q48 30 91 73l6 -6q-37 -36 -78 -63.5t-78.5 -45.5t-85.5 -28t-85.5 -15t-91.5 -2
t-90.5 6.5t-95.5 14t-93 18l-97 21.5l-100.5 22t-97.5 18.5t-101.5 15t-96 6.5t-98.5 -3t-93 -17t-95 -30.5t-88 -49.5t-88 -69q-128 -120 -152 -277q-15 -91 10 -176q25 -86 82 -146q47 -47 114 -77.5t125 -26.5q67 5 133 54t125 125.5t113.5 157t119.5 167t121 137.5
q18 16 34 27q-96 81 -325 81q-247 -1 -398 -147q-107 -104 -126 -237q-17 -121 48 -193q57 -63 159 -60q66 3 129 54q63 50 78 116l8 -2q-15 -67 -81 -121q-66 -53 -134 -54q-140 -5 -200 94q-54 89 -17 215q41 139 170 233q149 109 364 112q221 2 354 -73q99 58 207 50h5
q14 -1 42 -7zM399 -30q58 7 184 -12q62 -9 113 -5q50 4 98.5 30t81.5 64t51.5 79t11.5 79.5t-40 61.5q-56 39 -195 25l5 7q7 1 29.5 6l31.5 7t30.5 8t31.5 10.5l28 13t27 17t21 21t17.5 26.5t9.5 32.5t4 39.5q-3 51 -30 91q-47 -43 -99 -109.5t-97 -132.5l-91 -131.5
t-97.5 -122.5t-99.5 -89q-8 -6 -26 -16z" />
    <glyph glyph-name="C_0.001" unicode="&#xe002;" horiz-adv-x="1051" 
d="M477 79q-42 -54 -90 -89q-95 -67 -202 -55q-34 5 -58 14q-46 14 -91 44q-2 2 -3 2q-32 24 -51 45q-60 63 -84 148q-25 87 -10 180q27 161 155 281q54 51 114.5 86.5t116.5 56t125 28.5t124.5 8t130 -10t127 -20.5t129.5 -27.5l41 -9l118 -25.5t111 -19.5t114 -11.5
t104.5 4.5t106.5 21.5t95.5 46.5t94.5 73l6 -5q-37 -36 -78 -63.5t-78.5 -45.5t-86 -28t-85 -15.5t-91.5 -2.5t-90 6.5t-96 14.5t-93 18l-97 21l-100.5 22t-97.5 18.5t-101.5 15t-96 6.5t-98.5 -3t-93 -17t-95 -30.5t-88 -49.5t-88 -69q-128 -120 -152 -277q-15 -90 10 -176
q25 -85 82 -145q21 -24 52 -45q39 -25 74 -38l16 -6q25 -8 50 -12q1 0 3 -0.5t3 -0.5q104 -12 196 54q56 39 98 101q24 113 121.5 249.5t221.5 226.5l-30 11.5l-34 13.5q-171 69 -255 77q-211 20 -350 -115q-103 -99 -127 -238q-22 -130 37 -210q54 -73 159 -68q67 1 130 53
q63 51 78 116l7 -2q-16 -68 -80 -120q-63 -52 -135 -55q-135 -5 -193 99q-52 95 -17 227q38 142 153 232q140 109 339 89q84 -8 257 -77l22 -8.5l25.5 -10l21.5 -8.5q96 69 189 90q72 15 109 -3t34 -52v-5q-6 -40 -52 -65q-42 -23 -101 -20q-2 0 -5.5 0.5t-5.5 0.5
q-57 6 -136 34q-68 -55 -131 -129.5t-106.5 -150.5t-68 -145.5t-19 -121.5t44.5 -71q60 -31 164 34q40 26 76 67l8 10q32 41 47 85v3q13 48 -7 79q-1 1 -1 2q-14 18 -37 27q-11 3 -34 5h-2q-3 0 -9.5 -0.5t-9.5 -0.5q-39 -7 -72 -29l-7 -5q-34 -23 -57 -58q-25 -39 -40 -83
l-7 2q16 49 41 85q25 38 58 60l7 5q51 34 103 32q49 -2 72 -36l2 -2q22 -34 8 -85q-13 -50 -57 -101q-33 -39 -78 -69l-27 -15q-44 -24 -93 -32h-1q-35 -3 -65 2q-110 20 -88 155zM1155 616q0 31 -28.5 44t-86.5 -1q-82 -24 -169 -94q71 -24 129 -31q2 0 5.5 -0.5t5.5 -0.5
q54 -3 97 19q43 23 47 61v3z" />
    <glyph glyph-name="D_0.001" unicode="&#xe003;" horiz-adv-x="1213" 
d="M448 217q-15 -67 -81 -120q-63 -52 -134 -55q-140 -5 -200 94q-54 90 -18 216q40 139 168 234q161 120 396 114q190 -3 312 -86q104 67 222 60q1 0 1 -0.5t1 -0.5q30 -1 57 -9q26 -8 39 -14l-2 -3l-2 -4q-21 9 -45 15q-27 6 -50 8q-91 -4 -182 -82q61 -54 90 -130
t26 -153t-35 -150t-85.5 -126t-134.5 -76.5t-173 -4.5q-51 10 -79 14t-81.5 3t-103.5 -15q-42 -14 -110 -19q-72 -4 -143 26.5t-117 83.5q-60 64 -84 149q-25 87 -10 179q26 160 155 282q54 51 114.5 86.5t116.5 56t125 28.5t124.5 8t130 -10t127 -20.5t129.5 -27.5
q226 -50 312 -60q235 -26 387 71q45 29 86 69l6 -6q-159 -157 -407 -154q-123 1 -361 54h-1h-1l-1 1h-1h-1h-1h-1l-1 1h-1h-1h-1l-1 1h-1h-1h-1h-1l-1 1h-1h-1h-1l-1 1h-1h-1h-1l-1 1h-2l-100.5 22t-97.5 18.5t-101.5 15t-96 6.5t-98.5 -3t-93 -17t-95 -30.5t-88 -49.5
t-88 -69q-128 -120 -152 -277q-15 -91 10 -176q25 -87 82 -145q37 -43 112 -78.5t144 -25.5q65 9 129.5 59.5t122 126.5t111 155t117 163.5t118.5 134.5q19 17 24 20q-118 94 -291 94q-255 0 -414 -146q-112 -104 -134 -238q-21 -122 44 -196q57 -64 160 -62q68 2 129 53
q63 50 78 116zM396 -36q89 15 223 -13q68 -12 131.5 13.5t108.5 76t75 119.5t38.5 140.5t-8 141.5t-59.5 120q-55 -52 -121.5 -141.5t-116.5 -166t-115 -154.5t-123 -117q-13 -9 -33 -19z" />
    <glyph glyph-name="E_0.001" unicode="&#xe004;" horiz-adv-x="1154" 
d="M825 574q35 56 91 83t106.5 25t86.5 -22q57 -32 38 -79q-17 -41 -75 -58q-28 -9 -59 -7q-4 1 -12 1q-66 8 -144 37q-13 -41 10 -73.5t80 -40.5l-1 -2q-77 4 -149.5 -35t-122 -98.5t-73.5 -127.5q-28 -81 -10 -149t73 -94q67 -33 171 33q42 27 77 68q42 49 55 97t-7 79
q0 1 -0.5 1t-0.5 1q-16 21 -41 28q-8 2 -24 4h-1h-8h-12q-41 -5 -78 -30l-8 -5q-32 -22 -56 -58q-24 -35 -40 -83l-4 2l-4 1q18 48 42 85q25 36 58 60l7 4q53 35 103 32q49 -2 72 -36l2 -2q22 -33 8 -85q-13 -49 -57 -100q-32 -41 -78 -69q-17 -11 -38 -21q-41 -20 -80 -26
q-27 -5 -69 1q-68 13 -104 67.5t-26 131.5q-46 -76 -120 -125q-100 -66 -211 -51q-54 6 -111 34t-97 70q-60 64 -84 149q-25 87 -10 179q26 160 155 282q54 51 114.5 86.5t117 55.5t124.5 28t124 8t130 -9.5t127 -20t130 -27.5q224 -50 307 -60q235 -27 387 67q48 30 91 73
l6 -6q-159 -157 -407 -154q-123 1 -361 54h-1h-1l-1 1h-1h-1h-1h-1l-1 1h-1h-1h-1l-1 1h-1h-1h-1h-1l-1 1h-1h-1h-1l-1 1h-1h-1h-1l-1 1h-2l-100.5 22t-97.5 18.5t-101.5 15t-96 6.5t-98.5 -3t-93 -17t-95 -30.5t-88 -49.5t-88 -69q-128 -120 -152 -277q-15 -91 10 -176
q25 -87 82 -145q26 -28 50 -43q34 -23 76 -40q35 -13 77 -20q107 -14 205 51q86 57 129 142q3 15 11 39q25 67 79 129t131.5 102t154.5 36q-43 5 -67.5 24t-26 44.5t11.5 54.5l-60 24q-170 68 -255 77q-205 22 -345 -110q-103 -98 -131 -237q-26 -130 32 -212
q54 -77 163 -73q68 3 129 53q63 51 78 116l8 -2q-17 -67 -81 -120q-63 -52 -134 -55q-136 -5 -193 100q-53 94 -18 226q38 141 152 231q141 110 340 90q40 -4 90 -17.5t78.5 -24.5l89.5 -35zM860 561q84 -30 141 -36q9 0 13 -1q70 -4 110 37q34 35 11 66q-11 14 -31 23
q-39 16 -85 14q-57 -3 -99.5 -32.5t-59.5 -70.5zM907 244h-3h3z" />
    <glyph glyph-name="F_0.001" unicode="&#xe005;" horiz-adv-x="991" 
d="M455 215q-15 -67 -81 -120q-63 -52 -134 -55q-146 -5 -208 100q-54 93 -19 223q38 140 157 233q171 133 422 95q94 -15 194 -54l57 -23l18.5 -7.5t21.5 -8.5q52 39 115.5 58t124.5 16q80 -4 121 -34h1q24 -19 31 -37q8 -20 2 -38q-6 -19 -24 -32q-26 -20 -69 -24
q-63 -7 -224 52l-32 12q-39 -35 -84 -90q-44 -53 -107 -144q14 -3 40.5 -8t41 -8t36 -6t34.5 -3t28 1.5t24.5 7.5t15.5 15l9 -2q-8 -25 -27.5 -39.5t-42 -18.5t-58 0t-61 10l-65.5 16l-91 -130t-84 -102t-98 -89q-28 -19 -71 -35q-103 -38 -208.5 -12.5t-178.5 101.5
q-60 64 -84 149q-25 87 -10 179q26 160 155 282q54 51 114.5 86.5t117 55.5t124.5 28t124 8t130 -9.5t127 -20t130 -27.5q224 -50 307 -60q235 -27 387 67q48 30 91 73l6 -6q-159 -157 -407 -154q-123 1 -361 54h-1h-1l-1 1h-1h-1h-1h-1l-1 1h-1h-1h-1l-1 1h-1h-1h-1h-1
l-1 1h-1h-1h-1l-1 1h-1h-1h-1l-1 1h-2l-100.5 22t-97.5 18.5t-101.5 15t-96 6.5t-98.5 -3t-93 -17t-95 -30.5t-88 -49.5t-88 -69q-128 -120 -152 -277q-15 -91 10 -176q25 -87 82 -145q20 -22 55.5 -45t85 -43t110.5 -16t115 38q37 24 74 59t79.5 90t66 88.5l73.5 105.5
q-83 16 -116 -3l-3 4q44 37 140 28q6 10 20 28q98 138 168 201q1 1 19 16l-35 15l-57 22q-297 119 -515 11q-137 -69 -205 -207q-60 -125 -33 -236q26 -107 123 -138q39 -13 87 -11q68 2 129 53q64 51 79 116l3 -1zM936 577l33 -12q155 -57 216 -50q40 4 64 22q16 12 21 29
q5 16 -1 32q-8 18 -29 33v1q-44 28 -118 32q-2 -1 -8 -1q-89 -8 -178 -86z" />
    <glyph glyph-name="G_0.001" unicode="&#xe006;" horiz-adv-x="1179" 
d="M1705 847q-37 -36 -78 -63.5t-78.5 -45.5t-86 -28t-85 -15.5t-92 -2.5t-90 6.5t-96 14.5t-93.5 18l-97 21q-241 54 -363 61q-272 15 -455 -134q-20 -16 -39 -34q-128 -120 -152 -276q-15 -91 10 -176q25 -86 82 -146q77 -82 196 -101v-1v-25q7 -83 65 -128
q49 -37 107.5 -42t111 16t98.5 61q51 46 112 123l78 110l15 21q-73 -18 -131 -8q-120 22 -111 125q9 109 148 256q47 49 104 97q21 18 42 33l-30 11.5l-34 13.5q-167 68 -255 77q-210 21 -349 -115q-102 -99 -126 -239q-22 -130 37 -210q54 -72 157 -68q67 3 130 53
q63 53 78 116l8 -1q-17 -68 -81 -121q-66 -52 -134 -55q-135 -5 -193 99q-53 95 -19 227q37 141 153 232q140 110 340 90q91 -9 257 -78l69 -27q96 71 189 90q72 15 109 -2.5t34 -51.5v-3q-4 -42 -51 -67q-43 -23 -102 -20q-7 0 -11 1q-50 5 -117 27l-50 -42
q-163 -144 -218 -271q-50 -116 23 -154q27 -14 69 -15q30 -1 71 10l25 36l27 37.5t32.5 43.5l31.5 38.5t35 38.5l32.5 29t34.5 23.5t30 8.5q33 4 45 -21q15 -34 -43.5 -95.5t-148.5 -107.5l-58 -79l-66 -93q-83 -106 -153 -154q-79 -55 -181.5 -59.5t-174.5 49.5
q-62 47 -69 133v20q-116 20 -194 103q-60 63 -84 149q-25 87 -10 179q27 161 155 281q54 51 114.5 86.5t116.5 56t125 28.5t124 8t130 -10t127 -20t130 -27q224 -50 307 -60q235 -27 387 67q48 30 91 73zM1160 626q0 25 -23 37q-29 16 -93 -5.5t-150 -88.5q66 -21 110 -25
q4 -1 11 -1q54 -3 97 19q43 23 47 61v3h1zM892 136q37 21 65 42q52 38 85 79t28 61q-5 12 -14.5 10t-19.5 -11q-38 -33 -144 -181z" />
    <glyph glyph-name="H_0.001" unicode="&#xe007;" horiz-adv-x="1185" 
d="M613 337h38q117 168 193 236q40 37 91 60q-11 2 -33 5.5t-30 5.5q-225 38 -370 44q-215 9 -353 -131q-101 -103 -121 -242q-18 -128 45 -206q56 -69 159 -65q67 3 130 54q63 50 78 116l8 -2q-17 -68 -81 -121q-66 -53 -134 -54q-137 -5 -197 98q-55 94 -22 225
q35 142 153 235q137 109 336 101q148 -6 370 -44q26 -5 76 -13q86 37 165 29q18 -1 25.5 -11.5t-7.5 -24.5q-23 -21 -87 -14h-1l-50 6q-67 -37 -128.5 -107.5t-137.5 -179.5h253q117 168 193 236q56 50 128 75t142 20h5q24 -2 41 -7q3 0 5 -1q23 -4 46 -15l-3 -7
q-21 9 -45 15q-32 6 -50 8q-25 -3 -26 -3q-74 -11 -146.5 -70t-135 -143.5l-121.5 -171.5t-127 -170.5t-129 -124.5q-46 -31 -112 -47t-130 -4l2 6q49 -6 97 11.5t87.5 47.5t84 81.5t78 98l79.5 112.5l28 41h-253l-39.5 -57t-43 -61.5l-37.5 -51.5t-43 -55.5l-38.5 -43.5
t-46 -45.5t-43.5 -32.5q-76 -53 -180 -56q-155 -3 -264 110q-60 64 -84 149q-25 87 -10 179q26 161 155 281q54 51 114.5 86.5t116.5 56t125 28.5t124 8t130 -10t127 -20t130 -27q224 -50 307 -60q235 -27 387 67q48 30 91 73l6 -6q-37 -36 -78 -63.5t-78.5 -45.5t-86 -28
t-85.5 -15t-91.5 -2t-90 6t-96 14t-93.5 18.5l-97 21.5q-66 15 -100 22t-97.5 18.5t-101 15t-96 6.5t-99 -3t-93 -17t-94.5 -30.5t-88 -49.5t-88 -69q-128 -120 -152 -277q-15 -91 10 -176q25 -86 82 -146q112 -118 257 -103q28 3 56.5 15t51.5 26t52 43l47 48.5t49 60.5
t45 61.5l48 69.5l46 67h-34zM1005 631q29 -4 40 -5q2 0 5.5 -0.5t4.5 -0.5q54 -3 72 13q5 5 6 8q0 5 -1 7q-7 12 -45 5q-41 -6 -82 -27z" />
    <glyph glyph-name="I_0.001" unicode="&#xe008;" horiz-adv-x="877" 
d="M1705 842q-37 -36 -78 -63.5t-78.5 -45.5t-86 -28t-85 -15.5t-92 -2.5t-90 6.5t-96 14.5t-93.5 18l-97 21q-83 19 -129 28.5t-124.5 21.5t-129.5 12.5t-121.5 -5.5t-124.5 -25t-114.5 -53.5t-113.5 -84.5q-128 -122 -152 -277q-15 -91 10 -176q25 -86 82 -146
q17 -19 42 -38t67 -38t86.5 -24.5t100 12t106.5 61.5q66 57 145 167l159 223t147 173q41 37 92 60q-21 3 -63 11q-225 38 -370 44q-215 9 -353 -131q-101 -103 -121 -242q-18 -128 45 -206q56 -69 159 -65q67 3 129 53q64 52 79 116l7 -1q-15 -66 -81 -121q-63 -52 -134 -55
q-136 -5 -196 99q-55 94 -23 225q36 143 154 236q137 108 335 100q154 -6 371 -45l75 -12q86 37 165 29q18 -1 25.5 -11.5t-6.5 -24.5q-24 -21 -87 -14h-1l-51 6q-59 -33 -120.5 -99.5t-114.5 -142.5l-105.5 -152t-111.5 -145.5t-113 -106.5q-115 -74 -236 -56t-208 110
q-60 63 -84 149q-25 87 -10 179q27 161 155 281q54 51 114.5 86.5t116.5 56t125 28.5t124 8t130 -10t127 -20t130 -27q224 -50 307 -60q235 -27 387 67q48 30 91 73zM1125 652q-2 10 -51 0t-69 -17q7 -1 24.5 -2.5t41 -2t40 5t14.5 16.5z" />
    <glyph glyph-name="J_0.001" unicode="&#xe009;" horiz-adv-x="835" 
d="M1115 671q18 -1 25 -11.5t-7 -24.5q-24 -21 -87 -14h-1l-51 6q-67 -38 -129.5 -109.5t-139.5 -182.5l-199 -282q-67 -96 -122 -161.5t-112 -104.5q-60 -42 -121 -58.5t-106 -9.5t-76.5 30t-39.5 57q-5 25 4 47q8 24 29 44q57 51 161 43q-94 26 -158 95q-60 63 -84 149
q-25 87 -10 179q27 161 155 281q54 51 114.5 86.5t116.5 56t125 28.5t124 8t130 -10t127 -20t130 -27q224 -50 307 -60q235 -27 387 67q48 30 91 73l6 -6q-37 -36 -78 -63.5t-78.5 -45.5t-86 -28t-85 -15.5t-91.5 -2.5t-90 6.5t-96 14.5t-93 18l-97 21q-84 19 -129.5 28.5
t-124.5 21.5t-130 12.5t-121.5 -5.5t-124.5 -25t-114.5 -53.5t-113.5 -84.5q-128 -122 -152 -277q-15 -91 10 -176q25 -86 82 -146q77 -82 196 -101l-2 -8v-4q-133 23 -197 -35q-20 -19 -28 -41q-7 -22 -3 -43q7 -28 31.5 -48t61.5 -27t91.5 13t111.5 70q83 71 216 265
l208 296q98 136 168 199q40 37 91 60l-63 11q-225 38 -370 44q-215 9 -353 -131q-101 -103 -121 -242q-18 -128 45 -206q56 -69 159 -65q67 3 130 53q63 53 78 116l4 -1h3q-15 -67 -80 -121q-63 -52 -135 -55q-136 -5 -196 99q-55 94 -23 225q36 143 154 236
q137 108 335 100q154 -6 371 -45l75 -12q87 37 166 29zM1006 634q29 -4 40 -5q2 0 5.5 -0.5t4.5 -0.5q51 -4 72 13q4 3 6 8q0 4 -1 6q-8 13 -45 6q-39 -6 -82 -27z" />
    <glyph glyph-name="K_0.001" unicode="&#xe00a;" horiz-adv-x="1166" 
d="M1461 672q74 -3 138 -33q29 -15 41 -25l-5 -6q-15 11 -39 24q-38 18 -69 20q-83 9 -172 -36t-197 -133l-158 -133q-127 -101 -216 -133q-58 -20 -127 -17q22 -9 56.5 -46.5t67 -77.5t83.5 -79.5t104 -53.5q80 -21 164 23l4 -7q-82 -42 -171 -42q-60 0 -105.5 18t-71 45
t-47 61t-34.5 65t-31 58t-39 38h-3q-117 -164 -204 -223q-114 -73 -235.5 -55.5t-208.5 109.5q-60 64 -84 149q-25 87 -10 179q26 161 155 281q63 59 131.5 98.5t143 56.5t141.5 23t152 -4t146.5 -21t152.5 -31q224 -50 307 -60q235 -27 387 67q48 30 91 73l6 -6
q-37 -36 -78 -63.5t-78.5 -45.5t-85.5 -28t-85.5 -15t-92 -2t-90.5 6.5t-95.5 14t-93.5 18l-97 21.5q-66 15 -100 22t-97.5 18.5t-101 15t-96 6.5t-99 -3t-93 -17t-94.5 -30.5t-88 -49.5t-88 -69q-128 -120 -152 -277q-15 -91 10 -176q25 -86 82 -146q90 -92 202 -98.5
t210 80.5q64 58 141.5 167l155.5 218.5t144 168.5q41 37 92 60l-63 11q-225 38 -370 44q-215 9 -353 -131q-101 -103 -121 -242q-18 -128 45 -206q56 -69 159 -65q68 3 129 54q63 50 78 116l8 -2q-15 -67 -81 -121q-66 -53 -134 -54q-137 -5 -197 98q-55 94 -22 225
q35 142 153 235q137 109 336 101q146 -6 371 -44l75 -13q86 37 165 29q18 -1 25.5 -11.5t-7.5 -24.5q-23 -21 -87 -14l-51 6q-31 -18 -64 -46.5t-58 -55t-60 -71.5t-54 -71.5l-57 -81.5l-54 -77q67 8 140 51.5t164 117.5l138 117q103 84 180 124q86 45 191 40zM1007 632
q25 -4 40 -5q1 0 5 -0.5t5 -0.5q53 -3 71 13q4 3 6 8q1 3 -1 7q-7 12 -44 5q-43 -6 -82 -27z" />
    <glyph glyph-name="L_0.001" unicode="&#xe00b;" horiz-adv-x="837" 
d="M698 -2q43 -16 48 -57q5 -25 -10 -44q-14 -19 -35 -29.5t-43 -13.5t-52.5 1.5t-53 10.5t-56.5 19t-51.5 20.5t-48 22t-37.5 17.5q-50 -18 -117.5 -19.5t-101.5 10.5q-96 29 -159 97q-60 63 -84 149q-25 87 -10 179q27 161 155 281q54 51 114.5 86.5t116.5 56t125 28.5
t124 8t130 -10t127 -20t130 -27q225 -50 309 -60q235 -27 387 68q47 29 89 71l6 -5q-37 -36 -78 -63.5t-78.5 -45.5t-86 -28t-85 -15.5t-92 -2.5t-90 6.5t-96 14.5t-93.5 18l-97 21q-66 15 -100 22t-97.5 18.5t-101 15t-96 6.5t-99 -3t-93 -17t-94.5 -30.5t-88 -49.5
t-88 -69q-127 -120 -152 -276q-15 -91 10 -176q25 -86 82 -146q60 -65 154 -94q27 -11 87 -7.5t93 25.5q-63 28 -102 39l19 7q44 -12 104 -33q61 39 129.5 120.5t121 162t121.5 172.5t127 144q40 37 91 60l-63 11q-225 38 -370 44q-215 9 -353 -131q-101 -103 -121 -242
q-18 -128 45 -206q56 -69 159 -65q69 3 130 53q63 53 78 116l4 -1h3q-15 -67 -80 -121q-63 -52 -134 -55q-137 -5 -198 100q-54 94 -21 225q36 142 153 235q137 108 335 100q138 -6 371 -45l75 -12q21 9 58.5 18t80 13t52.5 -14q8 -12 -7 -24q-24 -21 -87 -14h-1l-51 6
q-59 -33 -120 -99.5t-114 -142.5l-105.5 -152.5t-111.5 -145.5t-114 -106q-17 -12 -36 -21l2 -1q176 -65 235 -75q82 -15 103 19q11 19 10 39q-7 38 -44 50l1 4zM1002 632q29 -4 40 -5q4 -1 10 -1q51 -4 72 13q4 3 6 8q0 4 -1 6q-8 13 -45 6q-39 -6 -82 -27z" />
    <glyph glyph-name="M_0.001" unicode="&#xe00c;" horiz-adv-x="1339" 
d="M947 641q26 11 67 21.5t82 11t44 -21.5q0 -10 -10 -18q-24 -21 -87 -14h-1l-50 6q-59 -33 -120.5 -99.5t-114.5 -142.5l-105.5 -152.5t-111.5 -145.5t-114 -106q-104 -69 -231.5 -52.5t-213.5 106.5q-60 64 -84 149q-25 87 -10 179q26 161 155 281q54 51 114.5 86.5
t116.5 56t125 28.5t124 8t130 -10t127 -20t130 -27q224 -50 307 -60q235 -27 387 67q48 30 91 73l6 -6q-37 -36 -78 -63.5t-78.5 -45.5t-86 -28t-85.5 -15t-91.5 -2t-90 6t-96 14t-93.5 18.5l-97 21.5q-66 15 -100 22t-97.5 18.5t-101 15t-96 6.5t-99 -3t-93 -17
t-94.5 -30.5t-88 -49.5t-88 -69q-128 -120 -152 -277q-15 -91 10 -176q25 -86 82 -146q12 -13 34 -30.5t64.5 -38t87.5 -28.5t103 7t112 60q67 57 146.5 167.5l160 224.5t147.5 174q40 37 91 60q-11 2 -33 5.5t-30 5.5q-225 38 -370 44q-215 9 -353 -131
q-101 -103 -121 -242q-18 -128 45 -206q56 -69 159 -65q67 3 130 53q63 53 78 117l8 -2q-17 -68 -81 -121q-66 -53 -134 -54q-137 -5 -197 98q-55 94 -22 225q35 142 152 235q138 109 337 101q148 -6 370 -44q26 -5 76 -13zM1687 661q26 -8 38 -14l-3 -7q-21 9 -45 15
q-32 6 -50 8l-24 -3q-63 -9 -125.5 -53.5t-112.5 -106t-105.5 -138l-102.5 -146.5t-104 -135.5t-109 -100.5q-47 -32 -114 -48t-131 -3l1 7q63 -9 125 21t112.5 82.5t106.5 126t102 144t104 145t109 120.5q16 14 24 20q-104 -56 -227.5 -149.5t-222.5 -187.5
q-48 -45 -79 -80q-18 -70 -35 -100q-15 -29 -34 -19q-5 2 -7 7q-9 21 35 76q13 18 34 40q19 78 25 107q22 93 33.5 138t34.5 106t45 84l6 -6q-22 -22 -44 -80.5t-34.5 -107t-32.5 -135.5q-5 -24 -22 -94q10 11 69 70q144 135 318.5 255.5t278.5 141.5q53 12 104 9v1
q1 -1 4 -1q28 -1 55 -9zM1003 633q29 -4 40 -5q2 0 5.5 -0.5t4.5 -0.5q54 -3 72 13q5 5 6 8q0 5 -1 7q-7 12 -45 5q-37 -5 -82 -27zM842 165l-23 -28q-40 -49 -34 -68l4 -4q12 -6 23 17q13 21 30 83zM1385 596q-1 0 -1 -0.5t-1 -0.5z" />
    <glyph glyph-name="N_0.001" unicode="&#xe00d;" horiz-adv-x="1272" 
d="M1707 839q-37 -36 -78 -63.5t-78.5 -45.5t-85.5 -28t-85.5 -15t-91.5 -2t-90.5 6.5t-95.5 14t-93 18l-97 21.5l-100.5 22t-97.5 18.5t-101.5 15t-96 6.5t-98.5 -3t-93 -17t-95 -30.5t-88 -49.5t-88 -69q-128 -120 -152 -277q-15 -91 10 -176q25 -87 82 -145
q21 -24 52.5 -47t91 -43t119.5 -12q64 8 127.5 58.5t120.5 126.5t109.5 155t115 163.5t117.5 133.5q40 36 92 61q-42 6 -63 10q-233 39 -370 44q-216 9 -353 -131q-101 -103 -121 -242q-18 -129 46 -206q56 -68 158 -64q68 2 129 53q64 51 79 116l3 -1l4 -1
q-15 -67 -81 -120q-65 -54 -134 -55q-136 -5 -197 98q-54 94 -21 226q35 142 153 235q137 108 335 100q146 -6 371 -44l75 -13q86 37 165 29q18 0 25.5 -11t-6.5 -25q-25 -19 -87 -14h-1q-31 4 -51 7q-59 -34 -120.5 -100.5t-114.5 -142.5l-105 -152t-111.5 -145.5
t-113.5 -106.5q-72 -48 -176 -56q-155 -9 -268 110q-60 64 -84 149q-25 87 -10 179q26 160 155 282q54 51 114.5 86.5t117 55.5t124.5 28t124 8t130 -9.5t127 -20t130 -27.5q224 -50 307 -60q235 -27 387 67q48 30 91 73zM1547 670v1q20 -2 51 -8q26 -6 47 -16l-3 -7
q-22 9 -45 15q-17 4 -51 8q-15 0 -30 -3q-74 -11 -146.5 -70t-135 -143.5l-121.5 -171.5t-127 -170.5t-129 -124.5q-43 -29 -104.5 -45t-121.5 -8h-5l-14 3l1 6l14 -2v1q44 -4 91 16q19 8 56 32q28 21 50.5 49.5t39.5 65.5t28.5 68.5t21.5 80t14.5 76l12.5 77.5q10 63 16 95
t18.5 69t28.5 53l6 -6q-16 -15 -28 -52t-17.5 -65.5t-15.5 -94.5q-9 -58 -14.5 -89t-18.5 -86t-27 -89.5t-37.5 -74t-52.5 -66.5q56 43 121 124t115.5 157.5t116 163t121.5 136.5q57 51 130.5 76t143.5 19zM1009 633l40 -5q7 0 10 -1q53 -3 72 13q5 5 5 8q2 4 -1 7
q-7 12 -44 5q-43 -6 -82 -27z" />
    <glyph glyph-name="O_0.001" unicode="&#xe00e;" horiz-adv-x="1165" 
d="M439 211q-15 -67 -81 -120q-65 -53 -134 -56q-135 -5 -193 99q-52 95 -18 227q37 142 153 232q140 110 340 90q85 -9 257 -77q39 -17 68 -27q99 70 189 89q71 15 108.5 -2t35.5 -51q0 -3 -1 -4q-4 -43 -51 -67l-7 -4q5 -16 5 -44q1 -79 -59 -195q-56 -105 -144 -203
q-184 -204 -341 -175q-29 4 -53 21q-37 28 -40 85t25 127.5t75 146t113 147t137 123.5l-63 25q-59 24 -88.5 35t-78.5 24.5t-88 17.5q-210 20 -350 -115q-103 -100 -127 -240q-23 -129 36 -209q55 -73 160 -68q66 3 129 54q63 50 78 116zM865 558q-140 -113 -238.5 -280
t-86.5 -267q9 -78 88 -81h10q117 12 263 173q89 99 143 202q59 113 59 191q0 23 -6 41q-33 -13 -70 -13h-16q-8 0 -11 1h-2q-60 7 -133 33zM1701 836q-37 -36 -78 -63.5t-78.5 -45.5t-86 -28t-85.5 -15t-91.5 -2t-90 6t-95.5 14t-93 18.5l-97 21.5l-100.5 22t-97.5 18.5
t-101.5 15t-96 6.5t-98.5 -3t-93 -17t-95 -30.5t-88 -49.5t-88 -69q-128 -120 -152 -277q-15 -91 10 -176q32 -111 121.5 -179.5t200 -65.5t194.5 88l6 -8q-68 -63 -152 -80.5t-158 7t-134.5 87t-85.5 149.5t-10 179q26 161 155 281q54 51 114.5 86.5t116.5 56t125 28.5
t124 8t130 -10t127 -20t130 -27q224 -50 307 -60q235 -27 387 67q48 30 91 73zM1095 545q-7 23 -26 40l-1 1l6 6q18 -17 28 -44l6 3q27 14 39 35q8 15 9 29q2 27 -28.5 44t-86.5 -1q-82 -26 -169 -94q76 -26 128 -31q4 -1 11 -1q11 -2 22 0q36 2 62 13z" />
    <glyph glyph-name="P_0.001" unicode="&#xe00f;" horiz-adv-x="1158" 
d="M1233 639q-16 7 -35 12q0 -1 1 -1q-5 2 -14.5 4t-10.5 2q-6 2 -22 4q-106 11 -211 -74q38 -31 62 -70q38 -60 45 -133q3 -38 -10 -78q-22 -63 -75 -108q-62 -52 -148 -60q-84 -8 -184 26l2 7q64 -24 127 -21t113 25.5t82.5 77t36.5 133.5q6 98 -76 180q-57 -52 -124 -142
t-118 -168t-117.5 -157.5t-124.5 -119.5q-92 -60 -217 -54q-64 3 -124 32t-105 77q-60 63 -84 148q-25 88 -10 180q27 161 155 281q54 51 114.5 86.5t116.5 56t125 28.5t124 8t130 -10t127 -20t130 -27q225 -50 309 -60q235 -27 387 68q47 29 89 71l6 -5q-37 -36 -78 -63.5
t-78.5 -45.5t-86 -28t-85 -15.5t-91.5 -2.5t-90 6.5t-96 14.5t-93 18l-97 21l-100.5 22t-97.5 18.5t-101.5 15t-96 6.5t-98.5 -3t-93 -17t-95 -30.5t-88 -49.5t-88 -69q-128 -120 -152 -277q-15 -89 10 -175t82 -146q42 -44 107.5 -75.5t116.5 -29.5q59 0 118 34t107 87.5
t102 125.5t98.5 139.5t100.5 139t105 115.5q26 21 31 24q-115 87 -286 91q-113 3 -213 -23q-194 -54 -290 -203q-76 -118 -60 -240q14 -109 96 -154q48 -27 111 -24q69 3 129 53q63 51 78 116l8 -2q-15 -65 -81 -120q-63 -52 -134 -55q-129 -4 -193 91q-59 90 -31 213
q32 142 160 238q87 65 206 95q206 53 402 -6q65 -19 121 -52l1 -1q56 32 98 41q105 24 190 5q25 -6 47 -15zM1204 649q-1 0 -3 1h-2q1 -1 5 -1z" />
    <glyph glyph-name="Q_0.001" unicode="&#xe010;" horiz-adv-x="1098" 
d="M655 35q56 43 110.5 101t97.5 118.5t75.5 123.5t48 117t12.5 97t-29 65q-23 20 -54 21t-63 -13.5t-58 -31t-50 -37.5q1 0 3 -2q17 -18 37 -49q35 -62 31 -132q-3 -61 -37 -118q-58 -98 -124 -103q-30 -3 -55 20q-23 21 -29 62q-10 60 23 136q33 77 102 151q20 20 38 36
q-27 25 -55 42q-75 43 -170 49q-212 11 -352 -127q-103 -102 -126 -238q-21 -128 39 -204q55 -68 158 -63q66 3 129 53q63 51 78 116l4 -1h4q-17 -68 -81 -121q-66 -52 -134 -55q-137 -5 -195 97q-52 93 -16 223q38 140 156 231q139 108 336 97q99 -6 174 -51q29 -16 57 -43
q119 103 232 83q104 -19 91 -142q-13 -124 -130 -285q-109 -152 -245 -242l11 -7q107 -67 151 -85q48 -19 89 -18q49 1 68.5 29t-6.5 66l6 4q23 -30 15 -64q-5 -24 -23 -37q-21 -16 -54 -16q-41 0 -84 14.5t-69.5 31l-71.5 46.5q-9 6 -13 9q-2 1 -13.5 9.5t-15.5 10.5
q-61 -39 -115 -57q-20 -8 -45 -13q-103 -22 -136 20q-9 13 -9 31q1 15 11 33q26 40 78 52q44 11 86 4q45 -8 107 -44zM778 541q-16 26 -36 47l-3 3q-24 -21 -37 -36q-54 -57 -88 -121q-47 -89 -35 -159q6 -37 26 -57q22 -21 49 -18q63 5 118 99q33 57 36 115q4 66 -30 127z
M1704 849q-37 -36 -78 -63.5t-78.5 -45.5t-86 -28t-85 -15.5t-91.5 -2.5t-90 6.5t-96 14.5t-93 18l-97 21q-84 19 -129.5 28.5t-124.5 21.5t-130 12.5t-121.5 -5.5t-124.5 -25t-114.5 -53.5t-113.5 -84.5q-128 -122 -152 -277q-15 -91 10 -176q27 -96 94.5 -162.5t155.5 -83
t185 32.5l6 -6q-99 -54 -189.5 -37t-161 86.5t-98.5 167.5q-25 87 -10 179q27 161 155 281q54 51 114.5 86.5t116.5 56t125 28.5t124 8t130 -10t127 -20t130 -27q224 -50 307 -60q235 -27 387 67q48 30 91 73zM498 -50q70 21 149 79q-57 34 -100 42q-23 3 -40 2
q-23 0 -44 -6q-45 -10 -69 -45l-3 -4q-8 -12 -10 -28q0 -15 8 -26q30 -40 109 -14z" />
    <glyph glyph-name="R_0.001" unicode="&#xe011;" horiz-adv-x="1152" 
d="M900 614q132 79 274 46q25 -5 47 -15l-3 -7q-23 9 -46 15q-27 5 -50 8q-92 -1 -183 -75q36 -30 62 -71q38 -60 45 -133q3 -29 -9 -64q-23 -69 -88 -121q-74 -60 -174 -70q-70 -7 -144 13q20 -13 59.5 -51.5l73 -69t89 -56.5t115.5 -28q53 -2 109 24l2 -2
q-72 -41 -165 -41q-69 0 -118 19t-76 49t-45.5 61l-37.5 61t-40 43l-1 1q-90 -121 -166 -172q-41 -28 -99 -44t-117 -11q-140 13 -230 109q-60 64 -84 149q-25 87 -10 179q26 161 155 281q63 59 131.5 98.5t143 56.5t141.5 23t152 -4t146.5 -21t152.5 -31q224 -50 307 -60
q235 -27 387 67q48 30 91 73l6 -6q-37 -36 -78 -63.5t-78.5 -45.5t-85.5 -28t-85.5 -15t-92 -2t-90.5 6.5t-95.5 14t-93.5 18l-97 21.5q-66 15 -100 22t-97.5 18.5t-101 15t-96 6.5t-99 -3t-93 -17t-94.5 -30.5t-88 -49.5t-88 -69q-128 -120 -152 -277q-15 -91 10 -176
q25 -86 82 -146q39 -41 103 -73t122 -33q59 -1 118 33t107 87.5t101.5 125.5t98 140.5t100.5 140t105 115.5l28 23q-59 45 -140 69t-163 24q-103 0 -192 -23q-193 -51 -288 -200q-76 -118 -61 -240q15 -111 97 -157q47 -27 108 -25q68 3 129 54q64 51 78 116l8 -2
q-15 -67 -81 -121q-66 -53 -134 -54q-129 -5 -192 90q-59 89 -32 212q31 141 158 237q88 67 208 97q206 53 402 -5q71 -23 121 -53zM602 156q52 -16 105 -17t102 14t87.5 44t62.5 77t26 108q4 101 -73 180q-50 -46 -100.5 -112t-115.5 -160.5t-94 -133.5z" />
    <glyph glyph-name="S_0.001" unicode="&#xe012;" horiz-adv-x="1004" 
d="M1702 846q-37 -36 -78 -63.5t-78.5 -45.5t-86 -28t-85 -15.5t-92 -2.5t-90 6.5t-96 14.5t-93.5 18l-97 21q-66 15 -100 22t-97.5 18.5t-101 15t-96 6.5t-99 -3t-93 -17t-94.5 -30.5t-88 -49.5t-88 -69q-128 -120 -152 -277q-15 -89 10 -176q25 -85 82 -145q19 -21 45 -40
l1 1q31 -24 66 -39q39 -16 84 -24l-1 -1q68 -11 145 0q61 10 121 35q-34 35 -34 84q-2 47 25 95q38 72 107 116q41 30 78 38q45 9 69 -15q15 -16 16 -40q7 -73 -73 -159q-65 -70 -156 -113q19 -8 45 -8q67 6 136 68t111 175q12 32 35.5 106t45 131t46.5 100q-46 14 -140 52
q-170 68 -256 77q-210 20 -349 -115q-103 -100 -127 -240q-23 -130 37 -210q54 -72 158 -67q69 3 130 53q63 51 78 116l8 -2q-17 -67 -81 -120q-63 -52 -134 -55q-136 -5 -194 100q-52 94 -17 226q37 141 152 231q140 110 340 90q40 -4 89.5 -17.5t79 -24.5t88.5 -35
q99 -39 142 -52q27 44 74.5 78t99.5 42t95 -22q16 -12 23 -34q7 -19 -1 -39q-10 -31 -42 -50q-59 -35 -218 8q-20 -50 -46.5 -164.5t-42.5 -162.5q-50 -143 -137 -215t-170 -67q-31 1 -61 18q-9 5 -23 17q-65 -27 -126 -36q-129 -21 -233 25q-68 29 -114 80q-60 63 -84 148
q-25 87 -10 180q27 161 155 281q54 51 114.5 86.5t116.5 56t125 28.5t124.5 8t130 -10t127 -20.5t129.5 -27.5l41 -9l118 -25.5t111 -19.5t114 -11.5t104.5 4.5t106.5 21.5t95.5 46.5t94.5 73zM472 -12q91 42 160 114q77 83 72 153q-3 23 -15 35q-11 13 -34 16q-13 0 -28 -3
q-42 -14 -75 -37q-22 -15 -47 -38q-33 -33 -55 -75q-27 -49 -22.5 -97.5t44.5 -67.5zM939 553q155 -41 211 -8q29 18 39 45q6 17 1 35q-7 19 -21 30q-56 37 -128.5 0.5t-101.5 -102.5z" />
    <glyph glyph-name="T_0.001" unicode="&#xe013;" horiz-adv-x="850" 
d="M457 214q-17 -68 -81 -121q-66 -53 -134 -54q-145 -5 -207 99q-56 92 -21 223q38 140 157 233q170 133 419 96q96 -15 198 -55l56 -22l40 -16q110 81 240 73q81 -3 122 -33q23 -17 31 -38q8 -19 2 -37q-6 -19 -24 -32q-26 -19 -68 -25q-67 -7 -256 65q-57 -52 -125 -142
t-119.5 -168.5t-118.5 -159t-126 -120.5q-84 -57 -196 -56q-161 2 -263 110q-60 64 -84 149q-25 87 -10 179q26 161 155 281q63 59 131.5 98.5t143 56.5t141.5 23t152 -4t146.5 -21t152.5 -31q224 -50 307 -60q235 -27 387 67q48 30 91 73l6 -6q-37 -36 -78 -63.5
t-78.5 -45.5t-85.5 -28t-85.5 -15t-92 -2t-90.5 6.5t-95.5 14t-93.5 18l-97 21.5q-66 15 -100 22t-97.5 18.5t-101 15t-96 6.5t-99 -3t-93 -17t-94.5 -30.5t-88 -49.5t-88 -69q-128 -120 -152 -277q-15 -91 10 -176q25 -86 82 -146q47 -50 124 -80t135 -25q66 7 132 56.5
t125 126t113 156t118.5 166t120.5 136.5l20 16q-24 10 -36 14l-56 23q-297 119 -515 10q-137 -68 -204 -206q-62 -125 -34 -236q25 -106 122 -138q39 -13 87 -11q67 1 130 53q63 50 78 116zM938 576q180 -70 248 -63q38 4 64 23q15 11 22 28q4 16 -2 32q-8 20 -29 34
q-36 29 -117 32q-93 -4 -186 -86z" />
    <glyph glyph-name="U_0.001" unicode="&#xe014;" horiz-adv-x="1145" 
d="M1704 828q-159 -157 -407 -154q-123 1 -361 54h-1h-1h-1l-1 1h-1h-1h-1l-1 1h-1h-1h-1h-1l-1 1h-1h-1h-1l-1 1h-1h-1h-1h-1l-1 1h-1h-1h-2l-1 1h-1q-66 15 -100 22t-97.5 18.5t-101 15t-96 6.5t-99 -3t-93 -17t-94.5 -30.5t-88 -49.5t-88 -69q-128 -120 -152 -277
q-15 -91 10 -176q31 -109 109 -171.5t191 -63.5q62 -2 144.5 32.5t129.5 96.5q9 28 22.5 58.5l27.5 59.5l18 37q3 5 7 15q67 159 63 267q-2 69 -36.5 114.5t-86.5 60t-111.5 9.5t-115.5 -29q-126 -54 -195 -192q-65 -129 -48 -254q17 -122 106 -162q39 -18 88 -16
q67 1 130 53q63 50 78 116l8 -2q-17 -69 -81 -120q-63 -52 -134 -55q-134 -5 -190 105q-51 100 -16 240q36 146 145 236q48 40 104 62q61 23 123.5 26.5t118.5 -13.5t99 -60.5t62 -108.5q13 -47 14 -89t-13 -90t-25 -77t-41 -92.5t-43 -93.5q-52 -121 6 -130q95 -13 351 330
q59 91 144 195q35 43 49 56q22 25 40 41q93 84 220 94q89 7 156 -23l-3 -7q-79 34 -151 16q-79 -19 -151.5 -87.5t-152.5 -180.5l-28 -38.5l-36.5 -50l-38.5 -55t-38 -60.5t-31 -60t-21.5 -59.5t-6 -52.5t11.5 -46.5t36 -33.5l-1 -4q-58 -3 -86.5 18t-28.5 61t17 88t50 107
q-113 -143 -192 -209t-151 -61q-83 6 -48 127q-47 -56 -126 -87.5t-141 -30.5q-115 1 -196 65.5t-113 176.5q-25 87 -10 179q26 160 155 282q54 51 114.5 86.5t116.5 56t125 28.5t124.5 8t130 -10t127 -20.5t129.5 -27.5q226 -50 312 -60q235 -26 387 71q45 29 86 69z" />
    <glyph glyph-name="V_0.001" unicode="&#xe015;" horiz-adv-x="1017" 
d="M384 20q-44 -10 -94.5 -10.5t-104.5 9t-107 36t-93 66.5q-59 60 -84 149q-25 87 -10 179q26 161 155 281q54 51 114.5 86.5t116.5 56t125 28.5t124 8t130 -10t127 -20t130 -27q224 -50 307 -60q235 -27 387 67q48 30 91 73l6 -6q-37 -36 -78 -63.5t-78.5 -45.5t-86 -28
t-85.5 -15t-91.5 -2t-90 6t-95.5 14t-93 18.5l-97 21.5l-100.5 22t-97.5 18.5t-101.5 15t-96 6.5t-98.5 -3t-93 -17t-95 -30.5t-88 -49.5t-88 -69q-128 -120 -152 -277q-15 -91 10 -176q25 -86 82 -146q46 -49 129 -79.5t166 -27.5q143 4 221 128q75 118 112.5 277.5
t3.5 247.5q-19 51 -61.5 78.5t-94 30.5t-103 -7.5t-96.5 -31.5q-129 -62 -197 -202q-62 -129 -40 -248q22 -113 112 -147q36 -14 81 -12q67 3 130 53q63 52 78 117l8 -2q-17 -68 -81 -121q-66 -53 -134 -54q-136 -5 -192 102q-52 98 -15 234q38 144 151 235q46 37 99 59
q67 28 139 34t142 -19.5t110 -85.5q50 -70 44.5 -170t-43 -197t-99.5 -176t-124 -106q-1 0 -2.5 -0.5t-2.5 -1.5l-4 -2q-13 -5 -36 -10q36 -6 69 0q74 11 146.5 70t135 143.5l121.5 171.5t127 170.5t129 124.5q39 27 89.5 43.5t113.5 16t113 -27.5l-3 -7q-49 22 -97 22.5
t-90 -19.5t-82.5 -53t-79.5 -79t-75 -95.5l-74.5 -105.5l-74 -106.5t-77 -100t-79.5 -83.5q-67 -60 -155.5 -83.5t-164.5 -3.5z" />
    <glyph glyph-name="W_0.001" unicode="&#xe016;" horiz-adv-x="1252" 
d="M436 207q-17 -68 -81 -121q-66 -53 -134 -54q-134 -5 -190 105q-51 99 -17 238q36 146 145 237q90 75 207 86q194 17 268 -104q37 -58 38.5 -143.5t-26 -170.5t-80.5 -164.5t-119 -129.5q80 46 173 126t170 165q40 46 56 67q25 106 40 134q14 25 30 16q6 -4 8 -9
q12 -23 -27 -83q-12 -21 -43 -61q-2 -4 -4 -16q-16 -70 -27.5 -113.5t-32.5 -105t-47.5 -103.5t-58.5 -64q67 23 134 86.5t125.5 144.5l114 163t119.5 159t122 116q67 45 154.5 55t159.5 -23l-3 -7l-14 5q-43 18 -84.5 18t-78.5 -15t-74 -43t-70 -64t-68 -80.5t-66 -90.5
l-66 -95.5l-66.5 -93.5t-68 -87t-70.5 -74q-61 -55 -140.5 -79t-152.5 -14l1 5q26 0 50 4l12 3q30 11 57 43.5t44.5 67t36 93t27.5 93.5t23 97l-46 -54q-100 -110 -217 -204t-203 -123l-6 -3q-41 -16 -77 -19q-178 -20 -310 104q-60 64 -84 149q-25 87 -10 179
q26 161 155 281q54 51 114.5 86.5t116.5 56t125 28.5t124 8t130 -10t127 -20t130 -27q224 -50 307 -60q235 -27 387 67q48 30 91 73l6 -6q-37 -36 -78 -63.5t-78.5 -45.5t-86 -28t-85.5 -15t-91.5 -2t-90 6t-95.5 14t-93 18.5l-97 21.5l-100.5 22t-97.5 18.5t-101.5 15
t-96 6.5t-98.5 -3t-93 -17t-95 -30.5t-88 -49.5t-88 -69q-128 -120 -152 -277q-15 -91 10 -176q25 -86 82 -146q51 -55 137 -80q24 -7 57 -9t74 3.5t85 27.5t79 59q83 89 128 193q103 235 54 358q-26 67 -90 90.5t-143 14.5q-158 -17 -259 -156q-83 -115 -88 -254
q-4 -133 68 -198q51 -45 129 -42q67 3 130 53q63 53 78 117zM858 359q18 23 32 47q36 55 27 75q-1 1 -5 6q-9 5 -19 -13q-14 -25 -35 -115z" />
    <glyph glyph-name="X_0.001" unicode="&#xe017;" horiz-adv-x="908" 
d="M-107 297h108q7 118 77 225t186 152q60 24 124 27t120.5 -13.5t99.5 -60t59 -108.5q5 -22 9 -210q3 4 9 11t7 8l70.5 78.5l69 73t70.5 69t69 56.5t71.5 47.5t69.5 29.5t73 14t71.5 -9t74.5 -31l-4 -7q-32 19 -64.5 29t-65.5 8.5t-62.5 -6.5t-64 -23.5l-61.5 -34t-63 -47
l-61 -54t-63 -63l-61 -65.5l-63 -70q-4 -5 -12.5 -14.5t-9.5 -10.5q1 -30 2 -54t3.5 -52t5.5 -50t8 -45.5t11.5 -40.5t15.5 -33t20.5 -26t25.5 -16t31.5 -5.5t37.5 7.5l1 -10q-43 -19 -77.5 -21t-57.5 13.5t-39.5 40t-25.5 63t-13.5 77t-6.5 87.5q-179 -195 -298 -249
q-56 -26 -111.5 -27t-91.5 11t-70.5 35.5t-45 34t-18.5 20.5q-60 63 -84 149q-25 87 -10 179q27 161 155 281q54 51 114.5 86.5t116.5 56t125 28.5t124 8t130 -10t127 -20t130 -27q224 -50 307 -60q235 -27 387 67q48 30 91 73l6 -6q-37 -36 -78 -63.5t-78.5 -45.5t-86 -28
t-85 -15.5t-92 -2.5t-90 6.5t-96 14.5t-93.5 18l-97 21q-241 54 -363 61q-272 15 -455 -134q-20 -16 -39 -34q-128 -120 -152 -276q-15 -91 10 -176q25 -86 82 -146q69 -73 152 -92t174 20q122 55 303 254q-1 56 1.5 158t-0.5 105q-8 68 -43 113t-85.5 60.5t-108 11
t-113.5 -28.5q-126 -54 -195 -192q-65 -129 -48 -254q17 -122 106 -162q39 -18 88 -16q67 1 130 53q63 51 78 116l4 -1l3 -1q-16 -68 -80 -120q-65 -54 -134 -55q-113 -4 -169.5 71.5t-50.5 191.5h-108v2z" />
    <glyph glyph-name="Y_0.001" unicode="&#xe018;" horiz-adv-x="1172" 
d="M1428 665q25 -1 52 -8q23 -4 46 -15l-3 -7q-21 9 -45 15q-30 6 -50 8q-14 0 -29 -3q-89 -14 -168.5 -89t-170.5 -203l-228 -325q-65 -94 -118.5 -156.5t-109.5 -100.5q-39 -27 -95.5 -43t-113.5 -12v-1q-64 6 -108 29q-37 19 -65 63t-35 109q-117 21 -195 103
q-60 64 -84 149q-25 87 -10 179q26 161 155 281q63 59 131.5 98.5t143 56.5t141.5 23t152 -4t146.5 -21t152.5 -31q224 -50 307 -60q235 -27 387 67q48 30 91 73l6 -6q-37 -36 -78 -63.5t-78.5 -45.5t-85.5 -28t-85.5 -15t-92 -2t-90.5 6.5t-95.5 14t-93.5 18l-97 21.5
q-66 15 -100 22t-97.5 18.5t-101 15t-96 6.5t-99 -3t-93 -17t-94.5 -30.5t-88 -49.5t-88 -69q-128 -120 -152 -277q-15 -91 10 -176q25 -86 82 -146q79 -82 196 -101v-2q16 -138 123 -181q25 -10 66 -15q93 -3 176 69t179 208l95 136q-99 -123 -166 -174t-136 -47
q-27 2 -41.5 15.5t-15 37t3.5 48.5t16.5 57.5t22.5 55.5t24 51t17 36q74 170 70 283q-3 68 -36.5 112.5t-84 60t-109 11.5t-113.5 -27q-128 -52 -200 -191q-65 -128 -49 -254q15 -123 102 -165q40 -19 91 -17q68 3 129 54q64 51 78 116l8 -2q-15 -66 -81 -121
q-66 -53 -134 -54q-133 -5 -189 104q-52 99 -18 238q36 146 145 237q52 44 114 66q61 22 122 24t115.5 -14.5t96.5 -60t60 -107.5q49 -138 -51 -332q-62 -121 -74 -161q-21 -72 24 -79q55 -8 144.5 83t202.5 243l66 93q95 136 169 202q57 51 130 75.5t142 19.5z" />
    <glyph glyph-name="Z_0.001" unicode="&#xe019;" horiz-adv-x="957" 
d="M491 -237q-33 -16 -77 -27q-42 -8 -75 -8q-76 -3 -130 37q-32 24 -46 56q-13 31 -7 63q7 26 26 43q-117 19 -198 103q-60 64 -84 149q-25 87 -10 179q26 160 155 282q54 51 114.5 86.5t116.5 56t125 28.5t124.5 8t130 -10t127 -20.5t129.5 -27.5q226 -50 312 -60
q235 -26 387 71q45 29 86 69l6 -6q-159 -157 -407 -154q-123 1 -361 54h-1h-1l-1 1h-1h-1h-1h-1l-1 1h-1h-1h-1l-1 1h-1h-1h-1h-1l-1 1h-1h-1h-1l-1 1h-1h-1h-1l-1 1h-2l-100.5 22t-97.5 18.5t-101.5 15t-96 6.5t-98.5 -3t-93 -17t-95 -30.5t-88 -49.5t-88 -69
q-128 -120 -152 -277q-15 -91 10 -176q25 -87 82 -145q77 -82 192 -101q1 0 4 -1h4l4 -7q-24 -18 -30 -45q-6 -28 6 -58q17 -37 50.5 -56.5t70.5 -20t77 6.5l11 3h1q44 14 72 30q131 69 210 228q70 140 62 262q-7 109 -77 131q-24 7 -55 2l4 11q83 10 168 90q9 9 36 33
l39.5 35.5t33.5 28t39 28.5l-39 6q-233 39 -370 45q-215 9 -352 -131q-102 -103 -121 -242q-19 -128 44 -206q56 -69 159 -65q68 2 129 53q63 50 78 116l8 -2q-15 -67 -81 -120q-63 -52 -134 -55q-136 -5 -197 98q-55 94 -22 226q36 142 153 235q138 109 336 101
q138 -6 371 -45l48 -8q51 30 107.5 37.5t75.5 -2.5q9 -3 16.5 -6.5t14.5 -11t5 -17.5q-1 -5 -8 -12q-26 -20 -88 -13q-42 4 -60 7q-22 -13 -80.5 -64.5t-116.5 -91.5q-50 -35 -121 -49q42 -11 68 -46.5t33 -85.5t1 -109t-30 -121t-57.5 -118t-83.5 -103t-107 -73zM997 630h5
l44 -6q60 -5 81 12q6 4 6 8q3 28 -93 1q-33 -9 -43 -15z" />
    <glyph glyph-name="A_0" unicode="&#xe01a;" horiz-adv-x="1078" 
d="M1119 670q67 -1 94 -23q9 -8 11 -16q1 -9 -6 -16q-14 -15 -60 -21q-26 -2 -56 0q-44 -49 -87.5 -131t-73 -169.5t-45.5 -167.5t-8 -135.5t42 -63.5q-51 5 -71.5 53t-12 116.5t23 126t32.5 105.5h-176l-31.5 -45.5t-33 -47l-30.5 -43t-33 -45l-31 -39t-34 -40l-32 -33
t-35.5 -32l-34.5 -25.5q-51 -35 -121 -49.5t-149 4.5q-24 6 -48 18q-48 23 -94 78l6 6q10 -13 22 -25q16 -16 36 -31q18 -13 34 -21q42 -21 99 -27q122 0 255 154q51 60 172 235l6 8h-44l2 10h48l20 29q98 139 173 208q33 28 66 47q-13 3 -37 7.5t-32 6.5q-228 49 -340 54
q-217 9 -355 -131q-102 -104 -122 -242q-18 -130 46 -208q57 -68 161 -65q84 3 152.5 74t99.5 167q17 57 13 104q-5 51 -33 82q-23 27 -62 39q-41 14 -88.5 -6.5t-85.5 -61.5t-68.5 -92t-37.5 -99.5t8 -82.5q10 -19 30 -29q37 -18 90.5 31.5t80.5 113.5t0 82q-10 6 -22 5
q-33 -5 -70 -52q-10 -14 -28 -42q-9 -14 -25 -42l-7 4q16 28 25 42t29 42q38 51 76 56q15 2 26 -6q19 -15 19.5 -47.5t-20.5 -71t-48 -71.5t-63 -48.5t-66 -2.5q-22 10 -34 33q-17 31 -15 73.5t19.5 85.5t46.5 84.5t66.5 69t79.5 41t85 -0.5q40 -13 65 -41q30 -35 35 -87
q4 -48 -13 -107q-28 -92 -98.5 -167.5t-161.5 -79.5q-143 -5 -203 100q-54 95 -18 226q38 142 156 235q140 109 336 101q114 -5 341 -54l79 -16q94 48 193 42zM1059 597q-36 4 -86 14q-69 -48 -142 -139q-49 -60 -99 -134h174q0 1 1 1q71 178 152 258zM983 617
q60 -10 83 -13q54 51 111 51q-20 5 -59 7h-5q-7 0 -21 -2q-54 -9 -109 -43zM1109 601h2q32 0 46 1q41 4 55 18q6 6 4 10q0 5 -8 11q-9 7 -18 9l-4 2q-35 -7 -77 -51z" />
    <glyph glyph-name="B_0" unicode="&#xe01b;" horiz-adv-x="1185" 
d="M905 628q74 39 149.5 47.5t155.5 -21.5l-1 -3l-2 -4q-125 53 -263 -46q22 -17 41 -40q29 -40 32 -81q3 -42 -24 -80q-50 -65 -173 -92q54 -2 96 -19q80 -32 86 -113q5 -79 -60 -150q-83 -89 -217 -91q-13 0 -27 1q-51 4 -116 14q-56 8 -80.5 11t-65.5 2.5t-69 -8.5
q-74 -34 -173 -23q-107 13 -188 105l3 3l3 2q47 -49 91.5 -73t100.5 -30q71 -2 140 43.5t131 123.5t118 160.5t123.5 173t125.5 142.5q18 16 34 27q-99 83 -325 81q-248 -1 -399 -148q-108 -104 -127 -238q-17 -121 49 -194q57 -62 158 -58q84 4 150.5 71.5t95.5 161.5
q17 57 13 104q-5 51 -33 82q-23 27 -62 39q-41 14 -88.5 -6.5t-85.5 -61.5t-68.5 -92t-37.5 -99.5t8 -82.5q10 -19 30 -29q37 -18 90.5 31.5t80.5 113.5t0 82q-10 6 -22 5q-33 -5 -70 -52q-10 -14 -28 -42q-9 -14 -25 -42l-7 4q16 28 25 42t29 42q38 51 76 56q15 2 26 -6
q19 -15 19.5 -47.5t-20.5 -71t-48 -71.5t-63 -48.5t-66 -2.5q-22 10 -34 33q-17 31 -15 73.5t19.5 85.5t46.5 84.5t66.5 69t79.5 41t85 -0.5q40 -13 65 -41q30 -35 35 -87q4 -48 -13 -107q-29 -94 -95.5 -164.5t-158.5 -74.5q-140 -5 -200 93q-54 90 -17 216q40 139 168 233
q151 111 368 114q89 2 186 -15t168 -57zM399 -31q51 7 184 -11q63 -9 114 -5q50 4 98.5 30t81.5 64t51.5 79t11.5 79.5t-40 61.5q-59 41 -195 25l5 7q7 2 32.5 7.5t35.5 8t33.5 9t34.5 13t29.5 16.5t27.5 22t19 27.5t14 35.5t4 43q-3 51 -30 91q-57 -52 -124 -142
t-118.5 -168t-117.5 -157.5t-125 -119.5z" />
    <glyph glyph-name="C_0" unicode="&#xe01c;" horiz-adv-x="1051" 
d="M597 80q16 49 41 85q27 38 59 60q4 4 7 5q53 35 103 32q49 -2 72 -36l2 -2q22 -33 8 -85q-13 -50 -57 -101q-36 -43 -79 -69q-11 -8 -26 -15q-46 -26 -94 -32h-1q-33 -5 -65 1q-104 19 -90 143q13 124 130 286q98 135 219 224q-51 19 -64 25q-170 68 -256 77
q-211 20 -351 -116q-103 -100 -127 -240q-22 -129 37 -210q55 -73 159 -68q87 4 155 74t97 167q17 57 13 104q-5 51 -33 82q-23 27 -62 39q-41 14 -88.5 -6.5t-85.5 -61.5t-68.5 -92t-37.5 -99.5t8 -82.5q10 -19 30 -29q37 -18 90.5 31.5t80.5 113.5t0 82q-10 6 -22 5
q-33 -5 -70 -52q-10 -14 -28 -42q-9 -14 -25 -42l-7 4q16 28 25 42t29 42q38 51 76 56q15 2 26 -6q19 -15 19.5 -47.5t-20.5 -71t-48 -71.5t-63 -48.5t-66 -2.5q-22 10 -34 33q-17 31 -15 73.5t19.5 85.5t46.5 84.5t66.5 69t79.5 41t85 -0.5q40 -13 65 -41q30 -35 35 -87
q4 -48 -13 -107q-18 -59 -52 -111.5t-89 -92.5t-118 -43q-135 -5 -193 99q-53 95 -19 226q37 142 151 233q142 112 343 92q40 -4 90 -18t78.5 -25l89.5 -35l68 -27q101 72 190 90q73 15 110 -3t34 -52q0 -3 -1 -4q-4 -41 -51 -66q-43 -23 -101 -20q-2 0 -6 0.5t-6 0.5
q-57 6 -136 34q-68 -55 -131 -129.5t-107 -151t-68.5 -146t-19 -122t44.5 -71.5q63 -30 164 34q45 29 77 68l8 10q34 45 47 85v3q13 48 -7 79v1l-1 1q-13 17 -37 27q-18 4 -29 5h-7q-13 0 -20 -1q-37 -7 -72 -29l-7 -5q-32 -22 -56 -58q-26 -37 -41 -83zM1159 617
q0 31 -28.5 44.5t-86.5 -1.5q-83 -25 -170 -93q68 -25 129 -32q2 0 5.5 -0.5t5.5 -0.5q56 -3 97 19q44 23 48 61v3z" />
    <glyph glyph-name="D_0" unicode="&#xe01d;" horiz-adv-x="1213" 
d="M488 283q-29 -94 -96 -166t-159 -76q-141 -5 -201 95q-54 90 -18 216q41 140 169 235q161 120 396 114q190 -3 314 -86q105 67 222 59h2q30 -2 57 -9q26 -8 39 -14l-2 -4l-1 -3q-22 9 -45 15q-31 6 -51 8q-91 -4 -182 -82q61 -54 90 -130.5t26 -153.5t-35 -151
t-86 -126.5t-135 -76.5t-174 -5q-49 10 -78.5 14.5t-82.5 3.5t-103 -15q-114 -38 -211 -2q-11 3 -31 13q-50 24 -95 78l3 3l3 2l17 -18q28 -30 61 -51l14 -7q43 -21 101 -27q70 1 138 48t129 124.5t116.5 159t122.5 170.5t124 141q7 7 23 19q-116 95 -291 95
q-255 0 -414 -146q-113 -103 -136 -238q-21 -122 44 -196q56 -66 161 -64q89 6 154 74t93 162q17 57 13 104q-5 51 -33 82q-23 27 -62 39q-41 14 -88.5 -6.5t-85.5 -61.5t-68.5 -92t-37.5 -99.5t8 -82.5q10 -19 30 -29q37 -18 90.5 31.5t80.5 113.5t0 82q-10 6 -22 5
q-33 -5 -70 -52q-10 -14 -28 -42q-9 -14 -25 -42l-7 4q16 28 25 42t29 42q38 51 76 56q15 2 26 -6q19 -15 19.5 -47.5t-20.5 -71t-48 -71.5t-63 -48.5t-66 -2.5q-22 10 -34 33q-17 31 -15 73.5t19.5 85.5t46.5 84.5t66.5 69t79.5 41t85 -0.5q40 -13 65 -41q30 -35 35 -87
q4 -48 -13 -107zM396 -37q90 15 224 -13q69 -12 132 13.5t108.5 76.5t75.5 120t38.5 140t-8 141.5t-59.5 120.5q-55 -52 -122 -141.5t-117 -166.5t-115.5 -155t-123.5 -117q-13 -9 -33 -19z" />
    <glyph glyph-name="E_0" unicode="&#xe01e;" horiz-adv-x="1154" 
d="M827 574q35 56 91 83t106.5 25.5t86.5 -22.5q57 -32 38 -79q-17 -41 -75 -58q-28 -9 -59 -7q-2 0 -6 0.5t-7 0.5q-61 7 -144 37q-13 -41 10 -73.5t80 -40.5l-1 -3q-114 6 -210.5 -74t-134.5 -188q-29 -81 -10.5 -149t73.5 -94q70 -33 172 34q44 28 77 67q42 51 55 98
q13 46 -7 79q-1 1 -1 2q-16 21 -41 28q-13 4 -33 4h-12q-41 -5 -79 -30l-7 -5q-31 -22 -57 -58q-25 -39 -40 -83l-8 2q17 49 42 86q25 36 58 60l8 4q53 35 103 32q49 -2 72 -36q1 0 1 -2q23 -34 9 -85q-12 -47 -57 -101q-37 -42 -79 -69q-24 -14 -38 -21q-39 -19 -80 -26
q-27 -5 -69 1q-83 15 -116.5 89.5t1.5 172.5q38 106 144.5 190.5t221.5 78.5q-64 7 -85.5 44.5t3.5 78.5q-6 2 -61 24q-170 68 -256 77q-205 22 -346 -112q-104 -98 -131 -237q-25 -132 34 -213q54 -75 161 -71q42 1 81 20.5t67.5 47.5t52.5 62.5t38 64t22 55.5
q17 57 13 104q-5 51 -33 82q-23 27 -62 39q-41 14 -88.5 -6.5t-85.5 -61.5t-68.5 -92t-37.5 -99.5t8 -82.5q10 -19 30 -29q37 -18 90.5 31.5t80.5 113.5t0 82q-10 6 -22 5q-33 -5 -70 -52q-10 -14 -28 -42q-9 -14 -25 -42l-7 4q16 28 25 42t29 42q38 51 76 56q15 2 26 -6
q19 -15 19.5 -47.5t-20.5 -71t-48 -71.5t-63 -48.5t-66 -2.5q-22 10 -34 33q-17 31 -15 73.5t19.5 85.5t46.5 84.5t66.5 69t79.5 41t85 -0.5q40 -13 65 -41q30 -35 35 -87q4 -48 -13 -107q-19 -60 -54.5 -115.5t-93 -97t-120.5 -44.5q-135 -5 -193 99q-53 95 -19 226
q37 142 151 233q142 112 343 92q40 -4 90 -18t78.5 -25l89.5 -35zM861 561q86 -30 142 -36q2 0 6 -0.5t6 -0.5q71 -4 111 37q34 35 11 66q-11 14 -31 23q-36 16 -85 14q-57 -3 -100 -32.5t-60 -70.5z" />
    <glyph glyph-name="F_0" unicode="&#xe01f;" horiz-adv-x="991" 
d="M241 48q85 3 152 73.5t97 163.5q17 57 13 104q-5 51 -33 82q-23 27 -62 39q-41 14 -88.5 -6.5t-85.5 -61.5t-68.5 -92t-37.5 -99.5t8 -82.5q10 -19 30 -29q37 -18 90.5 31.5t80.5 113.5t0 82q-10 6 -22 5q-33 -5 -70 -52q-10 -14 -28 -42q-9 -14 -25 -42l-7 4
q16 28 25 42t29 42q38 51 76 56q15 2 26 -6q19 -15 19.5 -47.5t-20.5 -71t-48 -71.5t-63 -48.5t-66 -2.5q-22 10 -34 33q-17 31 -15 73.5t19.5 85.5t46.5 84.5t66.5 69t79.5 41t85 -0.5q40 -13 65 -41q30 -35 35 -87q4 -48 -13 -107q-30 -96 -97.5 -166.5t-159.5 -76.5
q-146 -5 -208 100q-55 93 -19 224q38 141 158 234q172 133 423 94q94 -15 194 -54q4 -2 24.5 -10l32.5 -13l40 -16q110 82 241 74q78 -3 121 -34h1q23 -17 31 -37t2 -38q-6 -19 -24 -32q-26 -20 -69 -24q-65 -8 -225 53q-7 2 -32 11q-44 -39 -84 -90q-43 -51 -108 -144
q14 -3 40.5 -8t41 -8t36.5 -6t35 -3t28 1.5t25 7.5t16 15l5 -4q-21 -74 -136 -57q-34 5 -116 26l-68.5 -98.5l-61.5 -81.5t-74 -84.5t-69 -56.5q-50 -35 -117.5 -49t-143.5 2q-28 5 -59 20q-50 26 -94 78l6 6q42 -52 92 -77q41 -21 101 -27q122 0 255 156q51 59 168 228
q-81 17 -117 -2l-4 3q41 37 141 29l20 28q99 139 169 201l19 17l-17 6.5t-18 7.5l-57 23q-296 119 -515 11q-137 -68 -205 -205q-63 -126 -36 -238q26 -107 122 -140q40 -13 89 -11zM939 578l33 -12q156 -57 216 -50q41 4 65 22q17 16 21 29q5 16 -1 32q-7 17 -29 34
q-46 29 -118 32h-8q-91 -8 -179 -87z" />
    <glyph glyph-name="G_0" unicode="&#xe020;" horiz-adv-x="1179" 
d="M475 283q-28 -91 -95.5 -163t-154.5 -74q-135 -3 -193 101q-53 95 -19 227q37 141 152 232q141 110 342 90q85 -9 258 -78l69 -27q101 72 190 90q72 15 109 -2.5t34 -51.5v-4q-4 -42 -51 -67q-43 -23 -102 -20q-4 1 -11 1q-51 5 -118 27q-8 -6 -50 -41
q-164 -145 -219 -272q-50 -117 24 -155q27 -14 69 -15q29 -1 71 10l54.5 77.5t60.5 77t72 72.5t61 29q35 4 45 -21q15 -35 -43.5 -96.5t-148.5 -106.5l-58 -80l-66 -93q-82 -107 -154 -155q-54 -37 -129 -50.5t-157 11.5q-16 5 -29 12q-51 26 -95 79l6 5q45 -53 92 -77
q41 -21 106 -27q74 3 142 55.5t141 146.5l78 110q8 9 15 21q-73 -18 -131 -7q-120 22 -111 126q9 109 150 257q47 49 103 96l42 33l-64 25q-170 68 -255 77q-211 21 -351 -114q-102 -99 -126 -238q-23 -130 36 -211q55 -74 159 -70q82 3 148 71.5t94 158.5q17 57 13 104
q-5 51 -33 82q-23 27 -62 39q-41 14 -88.5 -6.5t-85.5 -61.5t-68.5 -92t-37.5 -99.5t8 -82.5q10 -19 30 -29q37 -18 90.5 31.5t80.5 113.5t0 82q-10 6 -22 5q-33 -5 -70 -52q-10 -14 -28 -42q-9 -14 -25 -42l-7 4q16 28 25 42t29 42q38 51 76 56q15 2 26 -6
q19 -15 19.5 -47.5t-20.5 -71t-48 -71.5t-63 -48.5t-66 -2.5q-22 10 -34 33q-17 31 -15 73.5t19.5 85.5t46.5 84.5t66.5 69t79.5 41t85 -0.5q40 -13 65 -41q30 -35 35 -87q4 -48 -13 -107zM1159 628q0 24 -22 37q-30 16 -93.5 -5.5t-150.5 -89.5q60 -20 111 -25
q2 0 5.5 -0.5t4.5 -0.5q55 -3 98 19q43 23 47 61v4zM891 137q32 17 66 41q52 39 85 80t28 61q-5 12 -15 10t-19 -11q-41 -36 -145 -181z" />
    <glyph glyph-name="H_0" unicode="&#xe021;" horiz-adv-x="1185" 
d="M613 337h38q117 167 193 237q45 39 92 60l-63 10q-233 39 -371 45q-216 9 -354 -132q-102 -104 -122 -243q-17 -129 47 -207q56 -68 158 -64q86 4 154.5 76t97.5 166q17 57 13 104q-5 51 -33 82q-23 27 -62 39q-41 14 -88.5 -6.5t-85.5 -61.5t-68.5 -92t-37.5 -99.5
t8 -82.5q10 -19 30 -29q37 -18 90.5 31.5t80.5 113.5t0 82q-10 6 -22 5q-33 -5 -70 -52q-10 -14 -28 -42q-9 -14 -25 -42l-7 4q16 28 25 42t29 42q38 51 76 56q15 2 26 -6q19 -15 19.5 -47.5t-20.5 -71t-48 -71.5t-63 -48.5t-66 -2.5q-22 10 -34 33q-17 31 -15 73.5
t19.5 85.5t46.5 84.5t66.5 69t79.5 41t85 -0.5q40 -13 65 -41q30 -35 35 -87q4 -48 -13 -107q-31 -96 -99 -169.5t-161 -78.5q-137 -5 -197 99q-55 95 -22 226q36 143 154 236q137 109 336 101q139 -6 372 -45l75 -12q91 36 166 29q18 -1 25.5 -12t-7.5 -25q-24 -20 -87 -13
q-25 1 -52 6q-67 -38 -128.5 -108.5t-137.5 -179.5h254q117 167 193 237q56 50 129 75t142 20h5q28 -4 41 -7q1 0 2.5 -0.5t2.5 -0.5q25 -6 47 -15l-3 -8q-23 11 -46 15q-18 4 -50 8q-8 0 -26 -2q-74 -11 -147 -70.5t-135.5 -144l-121.5 -171.5t-127 -171t-129 -125
q-46 -32 -112.5 -47.5t-130.5 -4.5l1 7q127 -16 259 128q58 63 177 235l20 29h-254l-35 -50.5l-36.5 -53l-34 -47t-37 -49l-34.5 -42t-38 -42t-36.5 -33t-39.5 -30.5q-34 -23 -79 -38t-98.5 -18.5t-103.5 14.5q-18 6 -36 15q-50 24 -95 78l6 6q45 -53 92 -77q42 -21 99 -27
q121 1 250 150q50 58 169 229q5 8 10 15h-34zM1006 631q14 -2 40 -4q4 -1 10 -1q52 -4 72 12q4 4 6 9q1 2 -1 6q-6 10 -45 6q-39 -6 -82 -28z" />
    <glyph glyph-name="I_0" unicode="&#xe022;" horiz-adv-x="877" 
d="M490 283q-30 -95 -98.5 -168.5t-160.5 -77.5q-137 -5 -197 99q-55 95 -22 226q36 143 154 236q137 109 336 101q139 -6 372 -45l75 -12q91 36 166 29q18 -1 25.5 -12t-7.5 -25q-24 -20 -87 -13h-1q-24 1 -51 6q-59 -34 -120.5 -100.5t-114.5 -143l-105.5 -153
t-111.5 -145.5t-114 -106q-46 -32 -112.5 -47.5t-130.5 -4.5q-43 8 -79 25q-48 23 -94 78l6 6q42 -52 92 -77q42 -21 98 -27q59 -1 118.5 32.5t108 87.5t103 126t99.5 141t101 140.5t106 116.5q45 39 92 60l-64 10q-230 39 -370 45q-216 9 -354 -132q-102 -104 -122 -243
q-17 -129 47 -207q56 -68 158 -64q83 4 154 77t97 163q17 57 13 104q-5 51 -33 82q-23 27 -62 39q-41 14 -88.5 -6.5t-85.5 -61.5t-68.5 -92t-37.5 -99.5t8 -82.5q10 -19 30 -29q37 -18 90.5 31.5t80.5 113.5t0 82q-10 6 -22 5q-33 -5 -70 -52q-10 -14 -28 -42
q-9 -14 -25 -42l-7 4q16 28 25 42t29 42q38 51 76 56q15 2 26 -6q19 -15 19.5 -47.5t-20.5 -71t-48 -71.5t-63 -48.5t-66 -2.5q-22 10 -34 33q-17 31 -15 73.5t19.5 85.5t46.5 84.5t66.5 69t79.5 41t85 -0.5q40 -13 65 -41q30 -35 35 -87q4 -48 -13 -107zM1006 633
q14 -2 40 -4q4 -1 10 -1q52 -4 72 12q4 4 6 9q0 4 -1 6q-6 10 -45 6q-39 -6 -82 -28z" />
    <glyph glyph-name="J_0" unicode="&#xe023;" horiz-adv-x="835" 
d="M490 283q-29 -92 -98.5 -166t-158.5 -79q-137 -5 -198 99q-54 95 -22 226q36 142 154 236q138 109 337 101q139 -6 372 -45l75 -12q91 36 166 29q18 -1 25.5 -12t-7.5 -25q-24 -20 -87 -13h-1q-24 2 -51 6q-67 -39 -129.5 -110.5t-139.5 -182.5l-200 -283
q-69 -99 -123.5 -163.5t-111.5 -103.5q-42 -28 -100.5 -44t-116.5 -11q-65 6 -109 29q-47 23 -95 78l6 5q45 -52 93 -76q45 -23 101 -27q45 -1 90 18.5t80.5 47t80 79t73.5 91l75 105.5l209 297q94 133 167 200q45 39 92 60l-63 10q-233 39 -371 45q-216 9 -354 -132
q-102 -104 -122 -243q-17 -129 47 -207q56 -68 158 -64q83 4 152.5 75t96.5 164q17 57 13 104q-5 51 -33 82q-23 27 -62 39q-41 14 -88.5 -6.5t-85.5 -61.5t-68.5 -92t-37.5 -99.5t8 -82.5q10 -19 30 -29q37 -18 90.5 31.5t80.5 113.5t0 82q-10 6 -22 5q-33 -5 -70 -52
q-10 -14 -28 -42q-9 -14 -25 -42l-7 4q16 28 25 42t29 42q38 51 76 56q15 2 26 -6q19 -15 19.5 -47.5t-20.5 -71t-48 -71.5t-63 -48.5t-66 -2.5q-22 10 -34 33q-17 31 -15 73.5t19.5 85.5t46.5 84.5t66.5 69t79.5 41t85 -0.5q40 -13 65 -41q30 -35 35 -87q4 -48 -13 -107z
M1008 634q14 -2 40 -4q4 -1 10 -1q52 -4 72 12q4 5 6 9q1 2 -1 6q-5 9 -45 6q-41 -6 -82 -28z" />
    <glyph glyph-name="K_0" unicode="&#xe024;" horiz-adv-x="1166" 
d="M491 283q-13 -43 -36.5 -84t-55.5 -77.5t-76 -60t-92 -25.5q-137 -5 -197 99q-55 95 -22 226q36 143 154 236q137 109 336 101q139 -6 372 -45l75 -12q91 36 166 29q18 -1 25.5 -12t-7.5 -25q-24 -20 -87 -13h-1q-24 2 -51 6q-31 -18 -64.5 -47t-57.5 -54t-60.5 -73
l-53.5 -71t-58 -83l-53 -77q68 9 141.5 52.5t162.5 117.5l139 117q103 84 180 124q89 46 191 41q76 -3 139 -34q23 -10 42 -25l-5 -6q-17 13 -40 24q-38 17 -70 21q-83 8 -172.5 -37t-197.5 -133l-158 -133q-126 -102 -217 -134q-56 -20 -127 -17q23 -9 57.5 -46.5t67 -78
t83.5 -80t104 -52.5q83 -21 165 23l3 -7q-80 -43 -171 -43q-71 0 -121.5 24.5t-77.5 62.5t-46 76.5t-39 74t-44 48.5h-4q-117 -164 -204 -223q-41 -28 -99 -44t-116 -11q-61 5 -108 28q-50 24 -95 78l6 6q45 -53 92 -77q42 -21 97 -27q71 -2 140.5 43.5t131.5 123.5
t118 160.5l123.5 173.5t125.5 143q45 39 92 60l-64 10q-230 39 -370 45q-216 9 -354 -132q-102 -104 -122 -243q-17 -129 47 -207q56 -68 158 -64q83 3 153 73.5t99 167.5q17 57 13 104q-5 51 -33 82q-23 27 -62 39q-41 14 -88.5 -6.5t-85.5 -61.5t-68.5 -92t-37.5 -99.5
t8 -82.5q10 -19 30 -29q37 -18 90.5 31.5t80.5 113.5t0 82q-10 6 -22 5q-33 -5 -70 -52q-10 -14 -28 -42q-9 -14 -25 -42l-7 4q16 28 25 42t29 42q38 51 76 56q15 2 26 -6q19 -15 19.5 -47.5t-20.5 -71t-48 -71.5t-63 -48.5t-66 -2.5q-22 10 -34 33q-17 31 -15 73.5
t19.5 85.5t46.5 84.5t66.5 69t79.5 41t85 -0.5q40 -13 65 -41q30 -35 35 -87q4 -48 -13 -107zM1006 632q14 -2 40 -4q4 -1 10 -1q52 -4 72 12q4 5 6 9q0 4 -1 6q-5 9 -45 6q-39 -6 -82 -28z" />
    <glyph glyph-name="L_0" unicode="&#xe025;" horiz-adv-x="837" 
d="M701 0q42 -16 49 -57q3 -24 -10 -45q-15 -23 -39 -35t-55 -10.5t-59 5.5t-65.5 18.5t-60 24t-57.5 26l-43 20.5q-48 -16 -93.5 -20.5t-71.5 -1t-39 10.5q-19 11 -25 27q-5 16 1 30q9 16 25 21q43 15 186 -37q61 39 129.5 121t121.5 162.5t122 173t127 144.5q45 39 92 60
l-64 10q-230 39 -370 45q-216 9 -354 -132q-102 -104 -122 -243q-17 -129 47 -207q56 -68 158 -64q59 2 111 39t85 88t53 111q17 57 13 104q-5 51 -33 82q-23 27 -62 39q-41 14 -88.5 -6.5t-85.5 -61.5t-68.5 -92t-37.5 -99.5t8 -82.5q10 -19 30 -29q37 -18 90.5 31.5
t80.5 113.5t0 82q-10 6 -22 5q-33 -5 -70 -52q-10 -14 -28 -42q-9 -14 -25 -42l-7 4q16 28 25 42t29 42q38 51 76 56q15 2 26 -6q19 -15 19.5 -47.5t-20.5 -71t-48 -71.5t-63 -48.5t-66 -2.5q-22 10 -34 33q-17 31 -15 73.5t19.5 85.5t46.5 84.5t66.5 69t79.5 41t85 -0.5
q40 -13 65 -41q30 -35 35 -87q4 -48 -13 -107q-29 -94 -97 -167t-160 -77q-137 -5 -197 99q-55 95 -22 226q36 143 154 236q137 109 336 101q139 -6 372 -45l75 -12q20 9 58 18t80.5 13t53.5 -14q7 -13 -8 -25q-24 -20 -87 -13h-1q-24 1 -51 6q-59 -34 -120.5 -100.5
t-114.5 -143l-105.5 -153t-111.5 -145.5t-114 -106q-17 -13 -37 -21l2 -1q177 -65 237 -76q81 -14 102 20q11 17 10 39q-5 38 -44 50l1 4zM323 -36q-125 56 -162 43q-15 -5 -20 -18q-6 -10 -1 -23q5 -16 21 -23q32 -13 82.5 -6t79.5 27zM1006 635q14 -2 40 -4q4 -1 10 -1
q52 -4 72 12q4 4 6 9q0 4 -1 6q-5 9 -45 6q-39 -6 -82 -28z" />
    <glyph glyph-name="M_0" unicode="&#xe026;" horiz-adv-x="1339" 
d="M949 644q18 7 47.5 15.5t62.5 14.5t57.5 2t26.5 -21q1 -9 -10 -19q-24 -20 -87 -13h-1q-24 1 -51 6q-59 -34 -120.5 -100.5t-114.5 -143l-105.5 -153t-111.5 -145.5t-114 -106q-95 -65 -214 -55h-5q-5 0 -13 2q-51 6 -91 26q-48 23 -94 78l6 6q42 -52 92 -77
q40 -21 97 -27q60 -2 120 32t108.5 87.5t102.5 126t99.5 141t101.5 140.5t106 117q45 39 92 60l-64 10q-230 39 -370 45q-216 9 -354 -132q-102 -104 -122 -243q-17 -129 47 -207q56 -68 158 -64q87 3 153.5 74t96.5 164q17 57 13 104q-5 51 -33 82q-23 27 -62 39
q-41 14 -88.5 -6.5t-85.5 -61.5t-68.5 -92t-37.5 -99.5t8 -82.5q10 -19 30 -29q37 -18 90.5 31.5t80.5 113.5t0 82q-10 6 -22 5q-33 -5 -70 -52q-10 -14 -28 -42q-9 -14 -25 -42l-7 4q16 28 25 42t29 42q38 51 76 56q15 2 26 -6q19 -15 19.5 -47.5t-20.5 -71t-48 -71.5
t-63 -48.5t-66 -2.5q-22 10 -34 33q-17 31 -15 73.5t19.5 85.5t46.5 84.5t66.5 69t79.5 41t85 -0.5q40 -13 65 -41q30 -35 35 -87q4 -48 -13 -107q-30 -95 -98 -167.5t-160 -76.5q-137 -5 -197 99q-55 95 -22 226q36 143 154 236q137 109 336 101q139 -6 372 -45zM1691 663
q16 -3 39 -13l-3 -8q-21 10 -45 15q-26 7 -50 8q-9 0 -25 -2q-74 -11 -147 -70.5t-135.5 -144l-121.5 -171.5t-127 -171t-129 -125q-48 -32 -114.5 -48t-131.5 -3l2 6q63 -9 125 21t112.5 83t106.5 127t102.5 145t104.5 145.5t109 120.5l25 20q-105 -57 -229.5 -151
t-223.5 -188l-79 -79q-18 -74 -34 -101q-17 -30 -35 -20q-3 2 -7 8q-8 20 35 76q15 20 34 40l26 108q20 89 32.5 137.5t35 108t45.5 82.5l6 -5q-22 -22 -44 -81t-34.5 -108t-32.5 -136q-19 -79 -23 -93q57 57 70 69q143 135 318 256t280 142q51 13 104 10h5q31 -3 54 -10z
M1006 635q14 -2 40 -4q4 -1 11 -1q51 -4 71 12q4 4 6 9q0 4 -1 6q-5 9 -45 6q-39 -6 -82 -28zM845 166q-10 -10 -24 -28q-40 -52 -33 -68l3 -3q11 -7 24 16q14 25 30 83z" />
    <glyph glyph-name="N_0" unicode="&#xe027;" horiz-adv-x="1272" 
d="M1115 670q18 -1 25.5 -12t-7.5 -25q-24 -20 -87 -13h-1q-24 2 -51 6q-59 -34 -120.5 -100.5t-114.5 -143l-105.5 -153t-111.5 -145.5t-114 -106q-82 -55 -187 -56q-133 0 -225 107l6 6q51 -63 120.5 -88.5t150.5 0.5q58 23 116.5 78.5t111.5 128l103 146.5t109 151
t111 124q45 39 92 60l-64 10q-230 39 -370 45q-216 9 -354 -132q-102 -104 -122 -243q-17 -129 47 -207q56 -68 158 -64q88 3 156.5 76t95.5 165q17 57 13 104q-5 51 -33 82q-23 27 -62 39q-41 14 -88.5 -6.5t-85.5 -61.5t-68.5 -92t-37.5 -99.5t8 -82.5q10 -19 30 -29
q37 -18 90.5 31.5t80.5 113.5t0 82q-10 6 -22 5q-33 -5 -70 -52q-10 -14 -28 -42q-9 -14 -25 -42l-7 4q16 28 25 42t29 42q38 51 76 56q15 2 26 -6q19 -15 19.5 -47.5t-20.5 -71t-48 -71.5t-63 -48.5t-66 -2.5q-22 10 -34 33q-17 31 -15 73.5t19.5 85.5t46.5 84.5t66.5 69
t79.5 41t85 -0.5q40 -13 65 -41q30 -35 35 -87q4 -48 -13 -107q-13 -43 -36.5 -84t-55.5 -77.5t-76 -60t-92 -25.5q-137 -5 -197 99q-55 95 -22 226q36 143 154 236q137 109 336 101q139 -6 372 -45l75 -12q91 36 166 29zM1546 670q34 -4 51 -8q23 -5 47 -15l-3 -8
q-23 11 -46 15q-16 4 -50 8q-10 0 -30 -2q-74 -11 -147.5 -70.5t-136 -144l-121.5 -171.5t-127 -171t-129 -125q-51 -36 -117.5 -49.5t-128.5 -1.5l1 6q44 -11 105 15q31 13 56 33q42 31 71.5 77.5t48.5 112t27.5 108.5t20.5 120q10 63 16 95t18.5 69t28.5 53l6 -5
q-16 -16 -28 -52t-17.5 -67.5t-15.5 -94.5q-9 -58 -14.5 -89t-18.5 -86t-27 -89.5t-37.5 -74t-52.5 -66.5q56 43 121 124t115.5 158t116 164t121.5 137q57 51 131.5 75.5t144.5 19.5zM1006 632q14 -2 40 -4q4 -1 10 -1q52 -4 72 12q4 5 6 9q0 4 -1 6q-6 10 -45 6
q-39 -6 -82 -28z" />
    <glyph glyph-name="O_0" unicode="&#xe028;" horiz-adv-x="1165" 
d="M225 45q61 2 116 44t87 93.5t48 102.5q17 57 13 104q-5 51 -33 82q-23 27 -62 39q-41 14 -88.5 -6.5t-85.5 -61.5t-68.5 -92t-37.5 -99.5t8 -82.5q10 -19 30 -29q37 -18 90.5 31.5t80.5 113.5t0 82q-10 6 -22 5q-33 -5 -70 -52q-10 -14 -28 -42q-9 -14 -25 -42l-7 4
q16 28 25 42t29 42q38 51 76 56q15 2 26 -6q19 -15 19.5 -47.5t-20.5 -71t-48 -71.5t-63 -48.5t-66 -2.5q-22 10 -34 33q-17 31 -15 73.5t19.5 85.5t46.5 84.5t66.5 69t79.5 41t85 -0.5q40 -13 65 -41q30 -35 35 -87q4 -48 -13 -107q-29 -94 -98.5 -168.5t-160.5 -78.5
q-135 -5 -193 99q-53 95 -19 226q37 143 152 234q141 111 342 91q85 -9 258 -78l69 -27q101 72 190 90q71 15 108 -2.5t35 -51.5v-4q-4 -42 -51 -67l-8 -3q6 -21 6 -44q0 -81 -60 -196q-59 -111 -144 -204q-184 -204 -342 -176q-30 5 -53 22q-37 28 -40 85t25 128t75 146.5
t113.5 147.5t137.5 124l-64 25q-170 68 -255 77q-212 20 -352 -116q-103 -99 -127 -238q-22 -130 38 -210q54 -73 159 -69zM868 560q-139 -113 -238.5 -280.5t-88.5 -267.5q11 -84 100 -81q115 12 263 173q90 99 143 203q59 110 59 192q0 19 -5 41q-37 -16 -87 -14
q-4 1 -11 1h-1q-53 6 -134 33zM1099 547q-9 25 -27 41l5 6q19 -17 29 -44l6 3q28 15 39 36q8 14 8 28v1q3 26 -28 43t-87 0q-80 -25 -169 -95q71 -24 129 -31q2 0 5.5 -0.5t4.5 -0.5q45 -3 85 13z" />
    <glyph glyph-name="P_0" unicode="&#xe029;" horiz-adv-x="1158" 
d="M492 283q-30 -95 -99 -169t-160 -78q-129 -5 -193 91q-59 89 -31 213q31 142 159 239q87 66 207 96q210 52 404 -6q66 -20 120 -53q1 0 1 -0.5t1 -0.5q50 31 98 42q105 23 191 5q25 -6 46 -16l-3 -7q-11 5 -35 13l2 -2q-9 3 -27 7l-22 3q-106 12 -211 -73q36 -30 62 -71
q38 -60 45 -133q3 -38 -10 -78q-21 -64 -75 -109q-62 -52 -149 -60q-83 -8 -184 26l2 7q64 -24 127 -21t113.5 25.5t83 77.5t36.5 134q6 98 -76 180q-57 -52 -124.5 -142t-118.5 -168.5t-117.5 -158t-125.5 -119.5q-48 -33 -118 -48.5t-136 -0.5q-38 8 -67 23q-47 23 -95 78
l7 5q42 -51 91 -76q40 -20 102 -27q59 0 118.5 34t107.5 88t102 126t99 140t101 139.5t105 115.5q5 5 30 25q-118 87 -286 91q-113 3 -213 -23q-194 -54 -291 -203q-77 -119 -61 -241q15 -110 97 -156q48 -26 111 -23q86 4 152.5 75t98.5 166q18 53 13 104t-33 82
q-23 27 -62 39q-41 14 -88.5 -6.5t-85.5 -61.5t-68.5 -92t-37.5 -99.5t8 -82.5q10 -19 30 -29q37 -18 90.5 31.5t80.5 113.5t0 82q-10 6 -22 5q-33 -5 -70 -52q-10 -14 -28 -42q-9 -14 -25 -42l-7 4q16 28 25 42t29 42q38 51 76 56q15 2 26 -6q19 -15 19.5 -47.5t-20.5 -71
t-48 -71.5t-63 -48.5t-66 -2.5q-22 10 -34 33q-17 31 -15 73.5t19.5 85.5t46.5 84.5t66.5 69t79.5 41t85 -0.5q40 -13 65 -41q30 -35 35 -87q4 -48 -13 -107z" />
    <glyph glyph-name="Q_0" unicode="&#xe02a;" horiz-adv-x="1098" 
d="M654 36q57 43 111 101t97.5 119t76 124t48 116.5t12.5 97t-29 65.5q-23 20 -54.5 21.5t-63.5 -13t-58 -31t-50 -37.5q2 -2 3 -2q23 -26 37 -50q35 -62 31 -132q-3 -61 -37 -118q-59 -99 -124 -104q-32 -2 -55 20q-23 23 -29 62q-10 60 22 137q34 78 103 151q26 26 38 36
q-23 22 -55 42q-74 44 -171 50q-212 11 -352 -127q-103 -101 -127 -238q-22 -128 39 -205q54 -69 158 -64q67 3 130 54q63 50 78 116l8 -2q-1 -1 -1 -4q13 24 26 64q17 57 13 104q-5 51 -33 82q-23 27 -62 39q-41 14 -88.5 -6.5t-85.5 -61.5t-68.5 -92t-37.5 -99.5t8 -82.5
q10 -19 30 -29q37 -18 90.5 31.5t80.5 113.5t0 82q-10 6 -22 5q-33 -5 -70 -52q-10 -14 -28 -42q-9 -14 -25 -42l-7 4q16 28 25 42t29 42q38 51 76 56q15 2 26 -6q19 -15 19.5 -47.5t-20.5 -71t-48 -71.5t-63 -48.5t-66 -2.5q-22 10 -34 33q-17 31 -15 73.5t19.5 85.5
t46.5 84.5t66.5 69t79.5 41t85 -0.5q40 -13 65 -41q30 -35 35 -87q4 -48 -13 -107q-36 -116 -129 -197l-4 4q-58 -40 -115 -41q-138 -5 -196 99q-52 93 -16 223q39 140 158 231q140 108 336 96q96 -4 174 -50q29 -16 57 -43q121 103 233 83q105 -19 91 -143
q-14 -125 -131 -286q-110 -152 -245 -242q114 -72 158 -90q51 -21 94 -20q49 0 68.5 28.5t-6.5 66.5l6 4q23 -30 15 -65q-5 -24 -23 -36q-21 -16 -55 -16q-112 -1 -267 121q-60 -38 -116 -58q-22 -7 -44 -12q-105 -22 -136 20q-10 13 -10 31q5 51 61 74.5t115 14.5
q42 -7 107 -44zM777 543q-15 25 -35 47l-4 4l-37 -36q-55 -59 -88 -122q-47 -89 -35 -159q6 -38 26 -58t49 -18q63 5 118 100q32 53 37 115q3 67 -31 127zM496 -50q73 23 150 80q-57 34 -100 42q-32 4 -66.5 -0.5t-65 -25.5t-35.5 -55q0 -15 8 -26q30 -39 109 -15z" />
    <glyph glyph-name="R_0" unicode="&#xe02b;" horiz-adv-x="1152" 
d="M901 614q133 80 275 47q25 -6 46 -16l-3 -7q-15 8 -45 15q-16 4 -50 8q-91 0 -184 -75q36 -30 62 -71q38 -60 45 -133q3 -30 -9 -65q-24 -70 -88 -121q-73 -60 -174 -70q-71 -6 -145 13q20 -13 59.5 -51.5l73.5 -69t89.5 -57t115.5 -28.5q53 -2 109 24l2 -2
q-71 -41 -165 -41q-69 0 -118.5 19t-76.5 49.5t-45.5 61.5l-37.5 61t-40 43l-1 1q-90 -121 -167 -173q-51 -34 -118.5 -48t-144.5 2q-28 6 -57 20q-48 23 -94 78l6 5q45 -53 92 -76q40 -21 101 -27q59 0 118 34.5t107 88t102 125.5t99 140t101 139.5t105 115.5q18 16 28 23
q-60 45 -140.5 69t-163.5 24q-97 1 -193 -23q-193 -51 -289 -200q-76 -118 -60 -241q14 -110 95 -157q48 -27 110 -25q87 4 155 75.5t98 166.5q17 57 13 104q-5 51 -33 82q-23 27 -62 39q-41 14 -88.5 -6.5t-85.5 -61.5t-68.5 -92t-37.5 -99.5t8 -82.5q10 -19 30 -29
q37 -18 90.5 31.5t80.5 113.5t0 82q-10 6 -22 5q-33 -5 -70 -52q-10 -14 -28 -42q-9 -14 -25 -42l-7 4q16 28 25 42t29 42q38 51 76 56q15 2 26 -6q19 -15 19.5 -47.5t-20.5 -71t-48 -71.5t-63 -48.5t-66 -2.5q-22 10 -34 33q-17 31 -15 73.5t19.5 85.5t46.5 84.5t66.5 69
t79.5 41t85 -0.5q40 -13 65 -41q30 -35 35 -87q4 -48 -13 -107q-18 -59 -52 -112t-90 -93t-119 -43q-129 -5 -193 91q-59 89 -32 213q32 141 159 238q88 67 208 97q210 52 404 -6q67 -20 120 -53zM602 155q52 -16 105.5 -17t102 14t87.5 44t63 77t26 108q4 102 -73 181
q-50 -47 -101 -112.5t-115.5 -160t-94.5 -134.5z" />
    <glyph glyph-name="S_0" unicode="&#xe02c;" horiz-adv-x="1004" 
d="M938 547q-20 -50 -46.5 -165t-42.5 -163q-50 -144 -137.5 -216t-170.5 -67q-34 3 -61 18q-60 35 -64 107q0 47 26 96q48 91 146.5 138.5t195.5 20.5l-2 -8q-95 27 -190.5 -19.5t-140.5 -136.5q-22 -44 -24 -83t23.5 -66t77.5 -28q67 6 136 68t112 176q12 33 35.5 106.5
t45 131t46.5 100.5q-42 13 -141 52q-170 68 -255 77q-212 20 -352 -117q-103 -100 -127 -239q-22 -130 38 -210q54 -73 159 -67q84 3 149 71.5t95 160.5q17 57 13 104q-5 51 -33 82q-23 27 -62 39q-41 14 -88.5 -6.5t-85.5 -61.5t-68.5 -92t-37.5 -99.5t8 -82.5
q10 -19 30 -29q37 -18 90.5 31.5t80.5 113.5t0 82q-10 6 -22 5q-33 -5 -70 -52q-10 -14 -28 -42q-9 -14 -25 -42l-7 4q16 28 25 42t29 42q38 51 76 56q15 2 26 -6q19 -15 19.5 -47.5t-20.5 -71t-48 -71.5t-63 -48.5t-66 -2.5q-22 10 -34 33q-17 31 -15 73.5t19.5 85.5
t46.5 84.5t66.5 69t79.5 41t85 -0.5q40 -13 65 -41q30 -35 35 -87q4 -48 -13 -107q-30 -93 -96 -163.5t-156 -75.5q-135 -5 -193 99q-53 95 -19 226q37 143 152 234q141 111 342 91q85 -9 258 -78q99 -39 142 -52q27 44 75 78t99.5 42.5t94.5 -21.5q17 -13 24 -35
q6 -17 -1 -39q-10 -31 -42 -50q-60 -35 -219 8zM942 554q155 -40 211 -8q29 18 39 45q5 21 0 35q-5 18 -20 30q-56 37 -129 0.5t-101 -102.5z" />
    <glyph glyph-name="T_0" unicode="&#xe02d;" horiz-adv-x="850" 
d="M241 47q81 4 151.5 75t97.5 163q17 57 13 104q-5 51 -33 82q-23 27 -62 39q-41 14 -88.5 -6.5t-85.5 -61.5t-68.5 -92t-37.5 -99.5t8 -82.5q10 -19 30 -29q37 -18 90.5 31.5t80.5 113.5t0 82q-10 6 -22 5q-33 -5 -70 -52q-10 -14 -28 -42q-9 -14 -25 -42l-7 4
q16 28 25 42t29 42q38 51 76 56q15 2 26 -6q19 -15 19.5 -47.5t-20.5 -71t-48 -71.5t-63 -48.5t-66 -2.5q-22 10 -34 33q-17 31 -15 73.5t19.5 85.5t46.5 84.5t66.5 69t79.5 41t85 -0.5q40 -13 65 -41q30 -35 35 -87q4 -48 -13 -107q-29 -95 -98.5 -166.5t-158.5 -77.5
q-146 -5 -208 100q-55 93 -19 224q38 141 158 234q172 133 423 94q94 -15 194 -54q4 -2 24.5 -10l32.5 -13l40 -16q108 82 240 74q79 -3 122 -34q22 -15 32 -37q8 -20 2 -38q-6 -19 -24 -32q-28 -20 -69 -24q-66 -8 -257 64q-57 -52 -125 -142t-119.5 -169t-119 -159.5
t-126.5 -120.5q-41 -28 -98.5 -44t-115.5 -11q-115 10 -197 106l6 6q74 -91 192 -104q69 1 137.5 48t129.5 124.5t116.5 159t122.5 171t124 140.5l19 17l-17 6.5t-18 7.5l-57 23q-296 119 -515 11q-137 -68 -205 -205q-63 -126 -36 -238q26 -107 122 -140q40 -13 89 -11z
M939 577q182 -69 249 -62q41 4 65 22q17 16 21 29q5 17 -2 32q-5 16 -28 34h-1q-42 29 -117 32q-93 -4 -187 -87z" />
    <glyph glyph-name="U_0" unicode="&#xe02e;" horiz-adv-x="1145" 
d="M1373 662q88 7 156 -23l-3 -7q-79 35 -152 16q-79 -19 -151 -87.5t-154 -181.5l-28 -38.5l-36.5 -50l-38.5 -55t-38 -61l-31.5 -60.5t-22 -60t-6 -53t12 -46.5t36.5 -33.5l-1 -3q-58 -3 -87 18t-29 61t17.5 88t50.5 107q-114 -143 -193 -209t-152 -61q-27 2 -41.5 15.5
t-15 37t3.5 49t16.5 58t22.5 55.5t24 51t17 36l7 16q67 159 63 267q-2 70 -36.5 115t-86.5 60t-112 10t-116 -29q-126 -54 -195 -192q-65 -129 -48 -255q16 -122 104 -163q40 -18 91 -16q90 4 161 83t97 165q17 57 13 104q-5 51 -33 82q-23 27 -62 39q-41 14 -88.5 -6.5
t-85.5 -61.5t-68.5 -92t-37.5 -99.5t8 -82.5q10 -19 30 -29q37 -18 90.5 31.5t80.5 113.5t0 82q-10 6 -22 5q-33 -5 -70 -52q-10 -14 -28 -42q-9 -14 -25 -42l-7 4q16 28 25 42t29 42q38 51 76 56q15 2 26 -6q19 -15 19.5 -47.5t-20.5 -71t-48 -71.5t-63 -48.5t-66 -2.5
q-22 10 -34 33q-17 31 -15 73.5t19.5 85.5t46.5 84.5t66.5 69t79.5 41t85 -0.5q40 -13 65 -41q30 -35 35 -87q4 -48 -13 -107q-29 -94 -101.5 -172t-164.5 -82q-134 -5 -191 105q-51 100 -16 239q36 148 145 239q48 40 105 62q61 23 123.5 26.5t118.5 -13.5t99.5 -60.5
t62.5 -108.5q13 -47 14.5 -89.5t-12.5 -90.5t-25.5 -77.5t-41 -92.5l-43.5 -94q-52 -121 6 -130q30 -4 71.5 22t91 79t92.5 106l97 124q61 94 145 195q32 41 48 56l40 41q94 85 222 95z" />
    <glyph glyph-name="V_0" unicode="&#xe02f;" horiz-adv-x="1017" 
d="M369 -70l1 3q70 11 143.5 134.5t107 276t1.5 237.5q-19 51 -62 78.5t-94.5 30.5t-103.5 -7.5t-97 -31.5q-129 -62 -197 -202q-62 -129 -40 -248q21 -115 112 -149q37 -13 82 -11q85 4 155.5 75.5t99.5 168.5q17 57 13 104q-5 51 -33 82q-23 27 -62 39q-41 14 -88.5 -6.5
t-85.5 -61.5t-68.5 -92t-37.5 -99.5t8 -82.5q10 -19 30 -29q37 -18 90.5 31.5t80.5 113.5t0 82q-10 6 -22 5q-33 -5 -70 -52q-10 -14 -28 -42q-9 -14 -25 -42l-7 4q16 28 25 42t29 42q38 51 76 56q15 2 26 -6q19 -15 19.5 -47.5t-20.5 -71t-48 -71.5t-63 -48.5t-66 -2.5
q-22 10 -34 33q-17 31 -15 73.5t19.5 85.5t46.5 84.5t66.5 69t79.5 41t85 -0.5q40 -13 65 -41q30 -35 35 -87q4 -48 -13 -107q-18 -59 -52.5 -112.5t-91 -94t-119.5 -43.5q-135 -5 -192 102q-52 98 -16 233q37 145 151 237q46 37 100 60q68 28 140 34t142.5 -19.5
t110.5 -85.5q36 -50 43 -122.5t-10.5 -145.5t-51.5 -146t-77.5 -128.5t-93 -89.5t-92.5 -31q40 -8 83 -2q74 11 147 70.5t136 144l122 171.5t127 171t129 125q39 27 89.5 43.5t113.5 16t114 -27.5l-3 -7q-49 22 -97 22.5t-90.5 -19.5t-83 -53t-79.5 -79.5t-75.5 -96
l-75 -106l-74 -106.5t-77 -100t-79.5 -84q-70 -63 -165.5 -86t-168.5 2z" />
    <glyph glyph-name="W_0" unicode="&#xe030;" horiz-adv-x="1252" 
d="M220 39q90 4 158 76t99 170q17 57 13 104q-5 51 -33 82q-23 27 -62 39q-41 14 -88.5 -6.5t-85.5 -61.5t-68.5 -92t-37.5 -99.5t8 -82.5q10 -19 30 -29q37 -18 90.5 31.5t80.5 113.5t0 82q-10 6 -22 5q-33 -5 -70 -52q-10 -14 -28 -42q-9 -14 -25 -42l-7 4q16 28 25 42
t29 42q38 51 76 56q15 2 26 -6q19 -15 19.5 -47.5t-20.5 -71t-48 -71.5t-63 -48.5t-66 -2.5q-22 10 -34 33q-17 31 -15 73.5t19.5 85.5t46.5 84.5t66.5 69t79.5 41t85 -0.5q40 -13 65 -41q30 -35 35 -87q4 -48 -13 -107q-29 -94 -100.5 -171t-163.5 -81q-134 -5 -190 105
q-52 100 -17 239q36 146 144 237q91 76 209 87q192 19 269 -103q37 -59 38.5 -145t-26.5 -171t-81 -164.5t-120 -129.5q80 45 173.5 125.5t170.5 166.5q34 37 57 67q25 109 40 134q14 24 30 15q4 -2 8 -8q12 -23 -27 -84q-17 -29 -44 -61l-3 -15q-18 -75 -28.5 -115
t-32 -104.5t-48 -105.5t-58.5 -63q67 23 134.5 86.5t126 145l114.5 163.5t120 159.5t122 116.5q67 45 155 55t160 -23l-3 -7l-14 6q-43 18 -85 18t-78.5 -15t-74 -43.5t-70.5 -65t-68 -81t-66.5 -90.5l-66 -96l-66 -94t-68.5 -87t-71 -74q-61 -54 -141 -78.5t-153 -14.5l1 6
q32 0 50 3l12 3q26 9 48 31t40.5 57t32 66.5t27.5 81t21.5 79.5l19.5 81q-15 -19 -47 -55q-98 -108 -216 -203t-204 -125l-6 -2q-47 -20 -96 -21v4q62 19 144.5 106t130.5 196q103 234 55 358q-49 124 -235 106q-159 -17 -259 -157q-83 -116 -88 -254q-5 -134 68 -199
q51 -45 129 -42zM860 360q17 23 32 46q36 56 27 76q-2 3 -5 5q-9 5 -19 -12q-14 -25 -35 -115z" />
    <glyph glyph-name="X_0" unicode="&#xe031;" horiz-adv-x="908" 
d="M837 -18l1 -10q-44 -19 -78 -21t-57.5 13.5t-39.5 40t-25 63t-13.5 77.5t-6.5 88q-52 -57 -94.5 -98.5t-93 -81.5t-94.5 -62t-95.5 -33.5t-99.5 -2.5t-102 38.5t-109 81.5l6 5q62 -60 123 -90t119.5 -29t111 18.5t111 61.5t107 90t109.5 113q-1 54 2 158.5t0 106.5
q-8 68 -43.5 112.5t-86 60t-108 11.5t-113.5 -28q-126 -54 -196 -193q-64 -129 -47 -254q16 -122 105 -163q39 -18 89 -16q88 8 158.5 80.5t97.5 165.5q17 57 13 104q-5 51 -33 82q-23 27 -62 39q-41 14 -88.5 -6.5t-85.5 -61.5t-68.5 -92t-37.5 -99.5t8 -82.5
q10 -19 30 -29q37 -18 90.5 31.5t80.5 113.5t0 82q-10 6 -22 5q-33 -5 -70 -52q-10 -14 -28 -42q-9 -14 -25 -42l-7 4q16 28 25 42t29 42q38 51 76 56q15 2 26 -6q19 -15 19.5 -47.5t-20.5 -71t-48 -71.5t-63 -48.5t-66 -2.5q-22 10 -34 33q-17 31 -15 73.5t19.5 85.5
t46.5 84.5t66.5 69t79.5 41t85 -0.5q40 -13 65 -41q30 -35 35 -87q4 -48 -13 -107q-31 -98 -100 -170.5t-164 -81.5q-134 -5 -190 104q-52 99 -18 238q36 147 145 238q49 42 107 64q61 24 125 27t120.5 -13.5t99.5 -60.5t58 -109q4 -16 5.5 -44.5t2.5 -84.5t2 -81l16 19
q156 176 233 243q176 155 317 130q47 -8 93 -35l-4 -7q-36 21 -73.5 29.5t-70 8t-72 -16t-69 -30.5t-71 -48.5t-68.5 -57.5t-71 -70l-68 -72.5l-70 -78.5q-4 -5 -12.5 -14.5t-9.5 -10.5q1 -30 2 -54t3.5 -52t5.5 -50.5t8 -46t11.5 -40.5t15.5 -33t20.5 -26t25.5 -16
t31.5 -5.5t37.5 7.5z" />
    <glyph glyph-name="Y_0" unicode="&#xe032;" horiz-adv-x="1172" 
d="M1423 662v1q18 -2 52 -8q25 -6 46 -16l-3 -7q-21 9 -45 15q-17 4 -51 8q-14 0 -28 -3q-89 -13 -169 -88t-171 -205l-229 -326q-135 -194 -228 -257t-210 -56q-64 6 -109 28q-49 25 -94 79l6 5q43 -51 92 -76q35 -19 93 -27q49 -1 96.5 19.5t93 62.5t82.5 86.5t84 109.5
l95 137q-99 -123 -166.5 -174.5t-136.5 -47.5q-27 2 -41.5 16t-15.5 37.5t3.5 48.5t17 57.5t23 56l23.5 51.5t17 36q74 169 70 283q-2 68 -35.5 112.5t-84.5 60t-109.5 11.5t-114.5 -26q-128 -52 -199 -191q-66 -128 -50 -255q15 -124 102 -166q40 -19 91 -17
q53 2 99.5 29.5t78 68.5t51.5 78.5t30 71.5q17 57 13 104q-5 51 -33 82q-23 27 -62 39q-41 14 -88.5 -6.5t-85.5 -61.5t-68.5 -92t-37.5 -99.5t8 -82.5q10 -19 30 -29q37 -18 90.5 31.5t80.5 113.5t0 82q-10 6 -22 5q-33 -5 -70 -52q-10 -14 -28 -42q-9 -14 -25 -42l-7 4
q16 28 25 42t29 42q38 51 76 56q15 2 26 -6q19 -15 19.5 -47.5t-20.5 -71t-48 -71.5t-63 -48.5t-66 -2.5q-22 10 -34 33q-17 31 -15 73.5t19.5 85.5t46.5 84.5t66.5 69t79.5 41t85 -0.5q40 -13 65 -41q30 -35 35 -87q4 -48 -13 -107q-29 -94 -101.5 -172t-164.5 -82
q-134 -5 -190 105q-52 100 -17 239q36 146 145 238q52 44 114 66q61 22 122 24t115.5 -15t97 -60t60.5 -108q49 -139 -52 -334q-64 -124 -76 -167q-17 -67 26 -73q95 -13 349 327l66 94q101 142 169 202q56 51 129.5 75.5t143.5 19.5z" />
    <glyph glyph-name="Z_0" unicode="&#xe033;" horiz-adv-x="957" 
d="M490 -237v-1q-39 -19 -77 -26q-31 -7 -75 -9q-78 -1 -131 38q-30 23 -45 56q-14 34 -7 62q6 31 33 50l4 -6q-24 -18 -30 -45q-7 -29 7 -58q16 -37 49.5 -56.5t70.5 -20t77 6.5l12 3h1q149 41 250 201q85 132 95 271q9 126 -53 168q-32 22 -79 14l3 12q83 10 170 90
q109 101 147 125l-39 6q-233 39 -371 45q-216 9 -354 -131q-101 -104 -121 -243q-18 -129 45 -207q56 -69 159 -65q87 3 154.5 74.5t98.5 167.5q17 57 13 104q-5 51 -33 82q-23 27 -62 39q-41 14 -88.5 -6.5t-85.5 -61.5t-68.5 -92t-37.5 -99.5t8 -82.5q10 -19 30 -29
q37 -18 90.5 31.5t80.5 113.5t0 82q-10 6 -22 5q-33 -5 -70 -52q-10 -14 -28 -42q-9 -14 -25 -42l-7 4q16 28 25 42t29 42q38 51 76 56q15 2 26 -6q19 -15 19.5 -47.5t-20.5 -71t-48 -71.5t-63 -48.5t-66 -2.5q-22 10 -34 33q-17 31 -15 73.5t19.5 85.5t46.5 84.5t66.5 69
t79.5 41t85 -0.5q40 -13 65 -41q30 -35 35 -87q4 -48 -13 -107q-18 -59 -52 -112t-89.5 -93t-118.5 -43q-138 -5 -198 99q-55 95 -22 226q36 143 154 236q138 109 337 101q138 -6 371 -45l48 -8q51 30 108 37.5t76 -2.5q9 -3 16.5 -6t14.5 -11t5 -17q-1 -6 -8 -13
q-26 -20 -88 -13q-40 4 -60 7q-21 -13 -80 -64.5t-118 -91.5q-52 -37 -122 -50q58 -16 85.5 -76.5t19 -142.5t-40.5 -167t-96 -160t-144 -111zM997 633q2 -1 6 -1q27 -4 44 -5q59 -7 81 11q6 4 6 9q3 29 -100 -1q-28 -8 -37 -13z" />
    <glyph glyph-name="a_0.001" unicode="&#xe034;" 
d="M284 411l66 -1q-90 -123 -124 -179q-59 -97 -47 -138q11 -39 68 0q23 15 45 33.5t45.5 43l38 40l42 47l37.5 42.5l6 -5q-141 -172 -232 -223q-55 -32 -90 -7.5t-17 88.5q-38 -41 -67 -62q-50 -36 -92 -30q-41 6 -49.5 45t13.5 88q-123 -111 -233 -156t-197 -31
q-73 12 -122 62q-47 50 -59 123q-14 83 16.5 172.5t89.5 163.5t135 133t154 90q75 30 156.5 41.5t173 3.5t161 -20t172.5 -35q224 -50 308 -60q237 -27 389 69q47 29 89 71l5 -6q-37 -36 -78 -63.5t-78.5 -45.5t-85.5 -28t-85.5 -15t-91.5 -2t-90.5 6.5t-95.5 14t-93 18
l-97 21.5l-137 29.5t-129 21.5t-138.5 11.5t-125 -10t-129.5 -32.5q-77 -29 -151.5 -87t-132 -131t-87 -160.5t-16.5 -168.5q12 -72 57 -120q47 -48 117 -60q87 -14 198.5 33t236.5 163q37 82 108.5 143.5t137.5 49.5q29 -5 37 -38q5 -15 3 -34q0 -6 -1 -9zM204 301
q7 17 7 29v13q-1 25 -10 33.5t-34 2.5q-34 -9 -74 -44t-70 -84q-55 -93 -50 -152q4 -55 78 -3q34 25 78 76q11 29 29 59z" />
    <glyph glyph-name="b_0.001" unicode="&#xe035;" horiz-adv-x="447" 
d="M263 674h66l-233 -320q11 10 25 19q49 38 92 31q31 -5 43.5 -28.5t7 -56.5t-23.5 -71.5t-45 -74.5q22 -6 44 -5.5t39.5 4t38.5 15t33 19t31.5 25.5l25.5 23.5t23 25.5l18 19l4 -2l3 -2l-11 -13l-16 -17.5l-19 -20t-23.5 -22l-26 -20.5t-30 -19.5t-32 -14t-35 -10
t-36.5 -1.5t-39 7q-43 -53 -93.5 -82.5t-96.5 -20.5q-27 5 -37 38q-5 15 -3 34q1 19 23 61l-99 -136h-68l73 99q-218 -178 -389 -151q-73 12 -122 62q-47 50 -59 123q-14 83 16.5 172.5t89.5 163.5t135 133t154 90q75 30 156.5 41.5t173 3.5t161 -20t172.5 -35
q224 -50 308 -60q237 -27 389 69q47 29 89 71l5 -6q-37 -36 -78 -63.5t-78.5 -45.5t-85.5 -28t-85.5 -15t-91.5 -2t-90.5 6.5t-95.5 14t-93 18l-97 21.5l-137 29.5t-129 21.5t-138.5 11.5t-125 -10t-129.5 -32.5q-77 -29 -151.5 -87t-132 -131t-87 -160.5t-16.5 -168.5
q12 -72 57 -120q47 -48 117 -60q82 -13 186.5 28.5t221.5 143.5zM132 191q-14 6 -9 17q5 12 20 1l3 -3l2 -2l5 8q55 92 50 152q-4 55 -78 3q-29 -22 -60 -56l-58 -79h1q-4 -8 -16.5 -31t-19 -38.5t-7.5 -29.5v-13q2 -25 11 -33t33 -2q29 7 64 35t64 68z" />
    <glyph glyph-name="c_0.001" unicode="&#xe036;" horiz-adv-x="366" 
d="M222 318q-4 -11 -13.5 -20t-18.5 -4q-7 6 -4.5 18t12 22t16.5 6q6 -3 5 -14q10 36 -18 48q-41 16 -104 -39q-32 -28 -64 -71q-44 -61 -44.5 -114.5t40.5 -68.5q116 -43 337 218l8 -4q-28 -35 -62 -70.5t-79.5 -75.5t-94 -65t-88.5 -25q-62 0 -93 42.5t-18 103.5
q-127 -118 -240 -165.5t-202 -33.5q-73 12 -122 62q-47 50 -59 123q-14 83 16.5 172.5t89.5 163.5t135 133t154 90q75 30 156.5 41.5t173 3.5t161 -20t172.5 -35q224 -50 308 -60q237 -27 389 69q47 29 89 71l5 -6q-37 -36 -78 -63.5t-78.5 -45.5t-85.5 -28t-85.5 -15
t-91.5 -2t-90.5 6.5t-95.5 14t-93 18l-97 21.5l-137 29.5t-129 21.5t-138.5 11.5t-125 -10t-129.5 -32.5q-77 -29 -151.5 -87t-132 -131t-87 -160.5t-16.5 -168.5q12 -72 57 -120q47 -48 117 -60q89 -14 203 35t242 170q8 25 21 46q62 99 153 131q68 24 100 -5q26 -24 5 -72
z" />
    <glyph glyph-name="d_0.001" unicode="&#xe037;" horiz-adv-x="455" 
d="M473 673h67q-179 -250 -221 -304q-67 -94 -94 -139q-58 -95 -46 -137q11 -42 69 -2q38 25 95.5 83t111.5 125l7 -5q-138 -168 -230 -224q-54 -34 -91.5 -8.5t-19.5 89.5q-35 -40 -66 -62q-50 -36 -92 -30q-41 6 -49.5 45t13.5 89q-123 -111 -233 -156t-197 -31
q-73 12 -122 62q-47 50 -59 123q-14 83 16.5 172.5t89.5 163.5t135 133t154 90q75 30 156.5 41.5t173 3.5t161 -20t172.5 -35q224 -50 308 -60q237 -27 389 69q47 29 89 71l5 -6q-37 -36 -78 -63.5t-78.5 -45.5t-85.5 -28t-85.5 -15t-91.5 -2t-90.5 6.5t-95.5 14t-93 18
l-97 21.5l-137 29.5t-129 21.5t-138.5 11.5t-125 -10t-129.5 -32.5q-77 -29 -151.5 -87t-132 -131t-87 -160.5t-16.5 -168.5q12 -72 57 -120q47 -48 117 -60q87 -14 198.5 33t237.5 163q37 82 108.5 143.5t136.5 49.5q29 -5 37 -39q4 -15 3 -34q0 -5 -1 -8l39 55
q5 6 109.5 150.5t106.5 146.5zM204 302q7 16 7 27v14q-1 25 -10 33.5t-34 1.5q-34 -9 -74 -43.5t-70 -83.5q-55 -94 -50 -153q4 -57 78 -2q30 21 77 75q9 24 30 59q7 13 46 72z" />
    <glyph glyph-name="e_0.001" unicode="&#xe038;" horiz-adv-x="366" 
d="M229 365q14 -68 -77 -108q-51 -22 -120 -27q-4 0 -11 -0.5t-10 -1.5q-27 -51 -22 -92t40 -55q16 -6 34 -6.5t36 5t36.5 13.5t38 21.5t36.5 26.5t36 31l34 32.5t32.5 33.5t28.5 32l25 29l8 -4q-198 -240 -324 -236q-62 -3 -93 40.5t-17 105.5q-127 -118 -240.5 -165.5
t-202.5 -33.5q-73 12 -122 62q-47 50 -59 123q-14 83 16.5 172.5t89.5 163.5t135 133t154 90q75 30 156.5 41.5t173 3.5t161 -20t172.5 -35q224 -50 308 -60q237 -27 389 69q47 29 89 71l5 -6q-37 -36 -78 -63.5t-78.5 -45.5t-85.5 -28t-85.5 -15t-91.5 -2t-90.5 6.5
t-95.5 14t-93 18l-97 21.5l-137 29.5t-129 21.5t-138.5 11.5t-125 -10t-129.5 -32.5q-77 -29 -151.5 -87t-132 -131t-87 -160.5t-16.5 -168.5q12 -72 57 -120q47 -48 117 -60q89 -14 203 35.5t242 170.5q7 23 21 45q63 99 154 131q67 22 98 -7q10 -9 13 -23zM15 236q3 1 7 1
h9q71 7 118 27q86 40 69 96q-8 26 -50 15q-66 -18 -134 -111q-6 -7 -14 -21z" />
    <glyph glyph-name="f_0.001" unicode="&#xe039;" horiz-adv-x="288" 
d="M555 632q-35 11 -69.5 12t-65 -6t-61.5 -24t-58 -37.5t-56 -50t-53.5 -58.5t-51.5 -66h93v-6h-97l-87 -123l-176 -233q-60 -84 -110 -141t-101 -92q-43 -29 -99.5 -44.5t-125 -8.5t-121.5 46q49 -29 96 -37.5t90.5 6t81 38t79 67.5t73 84.5t72.5 98.5l74 97
q-215 -176 -385 -148q-73 12 -122 62q-47 50 -59 123q-14 83 16.5 172.5t89.5 163.5t135 133t154 90q75 30 156.5 41.5t173 3.5t161 -20t172.5 -35q224 -50 308 -60q237 -27 389 69q47 29 89 71l5 -6q-37 -36 -78 -63.5t-78.5 -45.5t-85.5 -28t-85.5 -15t-91.5 -2t-90.5 6.5
t-95.5 14t-93 18l-97 21.5l-137 29.5t-129 21.5t-138.5 11.5t-125 -10t-129.5 -32.5q-77 -29 -151.5 -87t-132 -131t-87 -160.5t-16.5 -168.5q12 -72 57 -120q47 -48 117 -60q82 -13 185.5 27.5t220.5 142.5l74 99q57 82 81 114h-77v6h81q73 98 135 155q76 68 180 88.5
t177 -13.5z" />
    <glyph glyph-name="g_0.001" unicode="&#xe03a;" horiz-adv-x="448" 
d="M219 298l81 113h67l-240 -344q223 106 322 233l6 -6q-106 -139 -338 -241l-23 -34q-33 -56 -87.5 -119t-126.5 -116.5t-128 -57.5q-46 -3 -67 21q-22 25 -1 65q21 41 93.5 91.5t185.5 94.5q52 19 54 20l24 36l48 67l-28 -23q-62 -43 -96 -38q-41 6 -49.5 45t12.5 89
q-124 -112 -234 -157t-197 -31q-73 12 -122 62q-47 50 -59 123q-14 83 16.5 172.5t89.5 163.5t135 133t154 90q75 30 156.5 41.5t173 3.5t161 -20t172.5 -35q224 -50 308 -60q237 -27 389 69q47 29 89 71l5 -6q-37 -36 -78 -63.5t-78.5 -45.5t-85.5 -28t-85.5 -15t-91.5 -2
t-90.5 6.5t-95.5 14t-93 18l-97 21.5l-137 29.5t-129 21.5t-138.5 11.5t-125 -10t-129.5 -32.5q-77 -29 -151.5 -87t-132 -131t-87 -160.5t-16.5 -168.5q12 -72 57 -120q47 -48 117 -60q87 -14 199 33.5t237 163.5q37 85 109 147t137 46q11 -3 19.5 -8t13 -14t7 -15
t2.5 -18.5v-17t-2 -18.5zM117 158l54 74h-1l3 3l33 46q5 15 7.5 33.5t1 36.5t-13 26.5t-32.5 1.5q-30 -11 -71.5 -45.5t-72.5 -81.5q-27 -40 -41.5 -84t-10.5 -71q7 -54 95 16q32 25 49 45zM-309 -248q34 -36 132.5 50.5t184.5 204.5q-7 -3 -21.5 -8.5t-20.5 -8.5
q-112 -43 -183.5 -93t-91.5 -89q-18 -35 0 -56z" />
    <glyph glyph-name="h_0.001" unicode="&#xe03b;" 
d="M281 309l-48 -76l-37 -57.5t-23 -37.5t-14 -28.5t-1 -16.5q5 -17 21.5 -19.5t32.5 4t29 15.5q38 25 81 65.5t63 62l70 78.5l6 -5q-136 -166 -238 -223q-34 -19 -69.5 -16.5t-49.5 27.5t13 77q0 1 8 13t34 54.5l67 109.5q9 17 2.5 30.5t-20.5 15.5q-22 3 -71 -40t-92 -92
l-90 -106t-50 -61l-25 -27h-68l75 103q-217 -180 -390 -153q-73 12 -122 62q-47 50 -59 123q-14 83 16.5 172.5t89.5 163.5t135 133t154 90q75 30 156.5 41.5t173 3.5t161 -20t172.5 -35q224 -50 308 -60q237 -27 389 69q47 29 89 71l5 -6q-37 -36 -78 -63.5t-78.5 -45.5
t-85.5 -28t-85.5 -15t-91.5 -2t-90.5 6.5t-95.5 14t-93 18l-97 21.5l-137 29.5t-129 21.5t-138.5 11.5t-125 -10t-129.5 -32.5q-77 -29 -151.5 -87t-132 -131t-87 -160.5t-16.5 -168.5q12 -72 57 -120q47 -48 117 -60q82 -13 187 28.5t222 144.5l357 489h66l-399 -548
q7 8 35.5 43.5l43.5 53l43.5 50t48.5 51.5l44 40t44.5 31.5t37.5 12.5q25 3 45 -6.5t26 -32.5t-18 -61z" />
    <glyph glyph-name="i_0.001" unicode="&#xe03c;" horiz-adv-x="241" 
d="M71 410h66q-87 -118 -124 -180q-58 -94 -47 -137q11 -39 69 -2q33 22 72.5 62t111.5 120l25 27l2 -3l3 -2q-12 -15 -24 -27q-85 -94 -133 -140q-42 -39 -76 -57q-67 -34 -98 0t6 119q-123 -110 -232 -154t-195 -30q-73 12 -122 62q-47 50 -59 123q-14 83 16.5 172.5
t89.5 163.5t135 133t154 90q75 30 156.5 41.5t173 3.5t161 -20t172.5 -35q224 -50 308 -60q237 -27 389 69q47 29 89 71l5 -6q-37 -36 -78 -63.5t-78.5 -45.5t-85.5 -28t-85.5 -15t-91.5 -2t-90.5 6.5t-95.5 14t-93 18l-97 21.5l-137 29.5t-129 21.5t-138.5 11.5t-125 -10
t-129.5 -32.5q-77 -29 -151.5 -87t-132 -131t-87 -160.5t-16.5 -168.5q12 -72 57 -120q47 -48 117 -60q87 -14 198.5 33t236.5 163l12 21q40 66 126 180zM151 484q21 -16 4 -40q-7 -10 -19 -12t-21 4q-9 7 -10 18.5t6 21.5q20 23 40 8z" />
    <glyph glyph-name="j_0.001" unicode="&#xe03d;" horiz-adv-x="219" 
d="M-132 25q-27 -42 -64.5 -89t-84.5 -95t-99.5 -80.5t-96.5 -35.5q-27 -2 -39 4q-48 23 7 89q48 57 145 114q91 52 142 75q3 5 9 13t8 10l15 21l2 3l77 106q-218 -182 -392 -154q-73 12 -122 62q-47 50 -59 123q-14 83 16.5 172.5t89.5 163.5t135 133t154 90
q75 30 156.5 41.5t173 3.5t161 -20t172.5 -35q224 -50 308 -60q237 -27 389 69q47 29 89 71l5 -6q-37 -36 -78 -63.5t-78.5 -45.5t-85.5 -28t-85.5 -15t-91.5 -2t-90.5 6.5t-95.5 14t-93 18l-97 21.5l-137 29.5t-129 21.5t-138.5 11.5t-125 -10t-129.5 -32.5
q-77 -29 -151.5 -87t-132 -131t-87 -160.5t-16.5 -168.5q12 -72 57 -120q47 -48 117 -60q83 -13 188 29t223 146l161 223l66 -1l-241 -347l114 60q124 74 212 177l6 -5q-88 -104 -214 -179q-39 -24 -127 -65zM-516 -258q31 -17 116.5 66.5t167.5 186.5q-78 -38 -129 -70
q-130 -80 -161 -140q-16 -31 6 -43zM146 485q9 -7 10 -18.5t-6 -21.5q-8 -10 -19.5 -12.5t-20.5 4.5q-21 16 -4 40q7 10 19 12t21 -4z" />
    <glyph glyph-name="k_0.001" unicode="&#xe03e;" horiz-adv-x="453" 
d="M264 675h66l-399 -548q7 8 35.5 43.5l43.5 53l43.5 50t48.5 51.5l44 40t44.5 31.5t37.5 12.5q39 4 61 -17.5t-1 -60.5l-62 5q10 16 3.5 30.5t-21.5 16.5q-33 4 -123 -90q13 -8 20.5 -41.5t10.5 -69.5t15.5 -69t38 -39.5t77.5 18.5q15 8 30 19.5t35.5 32t33 34.5l42 46.5
l43.5 48.5l24 27l3 -3l3 -2l-25 -27q-101 -113 -132 -141q-38 -35 -76 -56q-52 -26 -98.5 -10.5t-55.5 64.5q-5 27 -1 67t8 60t-2 34q-34 -35 -72.5 -80.5l-67.5 -81.5t-34 -41l-25 -27h-68l75 103q-217 -180 -390 -153q-73 12 -122 62q-47 50 -59 123q-14 83 16.5 172.5
t89.5 163.5t135 133t154 90q75 30 156.5 41.5t173 3.5t161 -20t172.5 -35q224 -50 308 -60q237 -27 389 69q47 29 89 71l5 -6q-37 -36 -78 -63.5t-78.5 -45.5t-85.5 -28t-85.5 -15t-91.5 -2t-90.5 6.5t-95.5 14t-93 18l-97 21.5l-137 29.5t-129 21.5t-138.5 11.5t-125 -10
t-129.5 -32.5q-77 -29 -151.5 -87t-132 -131t-87 -160.5t-16.5 -168.5q12 -72 57 -120q47 -48 117 -60q82 -13 187 28.5t222 144.5z" />
    <glyph glyph-name="l_0.001" unicode="&#xe03f;" horiz-adv-x="238" 
d="M261 674h66l-220 -304q-57 -78 -94 -139q-58 -95 -47 -138q12 -40 69 -1q23 16 55.5 46.5t52.5 52.5l76 82l24 27l3 -2l3 -3l-24 -27q-96 -105 -133 -139q-42 -39 -76 -57q-66 -34 -98 -0.5t5 118.5q-122 -110 -231 -154t-195 -30q-73 12 -122 62q-47 50 -59 123
q-14 83 16.5 172.5t89.5 163.5t135 133t154 90q75 30 156.5 41.5t173 3.5t161 -20t172.5 -35q224 -50 308 -60q237 -27 389 69q47 29 89 71l5 -6q-37 -36 -78 -63.5t-78.5 -45.5t-85.5 -28t-85.5 -15t-91.5 -2t-90.5 6.5t-95.5 14t-93 18l-97 21.5l-137 29.5t-129 21.5
t-138.5 11.5t-125 -10t-129.5 -32.5q-77 -29 -151.5 -87t-132 -131t-87 -160.5t-16.5 -168.5q12 -72 57 -120q47 -48 117 -60q87 -14 198.5 33t236.5 163l12 22q41 65 100 145q5 8 106.5 147.5z" />
    <glyph glyph-name="m_0.001" unicode="&#xe040;" horiz-adv-x="670" 
d="M29 56l196 278q10 17 3.5 32t-20.5 17q-18 2 -52 -24t-74 -69l-74.5 -83l-66.5 -79.5l-36 -44.5l-11.5 -12t-13.5 -15h-68l75 102q-111 -92 -211 -128.5t-179 -23.5q-73 12 -122 62q-47 50 -59 123q-14 83 16.5 172.5t89.5 163.5t135 133t154 90q75 30 156.5 41.5
t173 3.5t161 -20t172.5 -35q224 -50 308 -60q237 -27 389 69q47 29 89 71l5 -6q-37 -36 -78 -63.5t-78.5 -45.5t-85.5 -28t-85.5 -15t-91.5 -2t-90.5 6.5t-95.5 14t-93 18l-97 21.5l-137 29.5t-129 21.5t-138.5 11.5t-125 -10t-129.5 -32.5q-77 -29 -151.5 -87t-132 -131
t-87 -160.5t-16.5 -168.5q12 -72 57 -120q47 -48 117 -60q82 -13 187 28.5t222 143.5l165 228l67 -1l-208 -285l27 33l32 39.5l33 39.5t36.5 41.5l35.5 37.5t37 35.5t34 27t33.5 20.5t28.5 8q25 3 45.5 -7.5t26.5 -33.5t-20 -60l-96 -132q80 98 146.5 163t112.5 70
q25 3 45 -6.5t26 -32.5t-18 -61l-49 -76l-39.5 -57t-26 -38t-15.5 -28t-2 -17q5 -17 23 -19.5t35.5 4t30.5 15.5q83 55 217 206l7 -5q-48 -59 -115 -125t-125 -98q-34 -19 -71.5 -16.5t-53.5 27.5t11 77q9 15 118 177q10 16 3 30t-21 16q-22 3 -71 -40t-92 -92l-90.5 -106.5
t-50.5 -60.5l-11 -12l-11 -15h-68z" />
    <glyph glyph-name="n_0.001" unicode="&#xe041;" horiz-adv-x="453" 
d="M72 413l67 -1l-167 -230q180 219 254 227q25 3 45 -6.5t26 -32.5t-18 -61l-49 -76l-39.5 -57t-26 -38t-15.5 -28t-2 -17q5 -17 23 -19.5t35.5 4t30.5 15.5q83 55 217 206l7 -5q-145 -169 -242 -223q-34 -19 -71 -16.5t-52.5 27.5t11.5 77q9 15 118 177q10 16 3 30t-21 16
q-22 3 -71 -40t-92 -92l-90.5 -106.5t-50.5 -60.5l-11 -13l-11 -14h-68l75 102q-111 -92 -211 -128.5t-179 -23.5q-73 12 -122 62q-47 50 -59 123q-14 83 16.5 172.5t89.5 163.5t135 133t154 90q75 30 156.5 41.5t173 3.5t161 -20t172.5 -35q224 -50 308 -60q237 -27 389 69
q47 29 89 71l5 -6q-37 -36 -78 -63.5t-78.5 -45.5t-85.5 -28t-85.5 -15t-91.5 -2t-90.5 6.5t-95.5 14t-93 18l-97 21.5l-137 29.5t-129 21.5t-138.5 11.5t-125 -10t-129.5 -32.5q-77 -29 -151.5 -87t-132 -131t-87 -160.5t-16.5 -168.5q12 -72 57 -120q47 -48 117 -60
q82 -13 187 28.5t222 143.5z" />
    <glyph glyph-name="o_0.001" unicode="&#xe042;" horiz-adv-x="395" 
d="M143 173q22 -6 44 -5.5t39.5 4t38.5 15t33 19t31.5 25.5l25.5 23.5t23 25.5l18 19l4 -2l3 -2l-11 -13l-16 -17.5l-19 -20t-23.5 -22l-26 -20.5t-30 -19.5t-32 -14t-35 -10t-36.5 -1.5t-39 7h-1q-31 -40 -79 -77q-48 -35 -92 -28q-41 6 -49.5 45t13.5 89
q-123 -111 -233 -156t-197 -31q-73 12 -122 62q-47 50 -59 123q-14 83 16.5 172.5t89.5 163.5t135 133t154 90q75 30 156.5 41.5t173 3.5t161 -20t172.5 -35q224 -50 308 -60q237 -27 389 69q47 29 89 71l5 -6q-37 -36 -78 -63.5t-78.5 -45.5t-85.5 -28t-85.5 -15t-91.5 -2
t-90.5 6.5t-95.5 14t-93 18l-97 21.5l-137 29.5t-129 21.5t-138.5 11.5t-125 -10t-129.5 -32.5q-77 -29 -151.5 -87t-132 -131t-87 -160.5t-16.5 -168.5q12 -72 57 -120q47 -48 117 -60q87 -14 198.5 33t237.5 163q37 82 108.5 143.5t136.5 49.5q10 -1 18 -8q6 -4 9 -12
q9 -15 9 -37q0 -15 -3 -31q-13 -65 -61 -127l-10 -14q1 -1 2 0zM145 192q50 72 59 124q2 16 3 32t-9 26t-31 4q-34 -9 -74 -43.5t-70 -83.5q-55 -92 -50 -152q1 -16 9.5 -22t21 -3t24.5 8.5t23 13.5q1 0 10.5 7.5l17.5 14t21.5 20t26.5 29.5l-1 1q-14 5 -11 14q3 11 18 0
q1 -2 3 -3z" />
    </font>
</defs>
</svg>
